<svg id="Capa_5" data-name="Capa 5" xmlns="http://www.w3.org/2000/svg" viewBox="0 0 956.52 335.85">
  <defs>
    <style>
      .cls-1{fill:#3c3d3f}
    </style>
  </defs>
  <path class="cls-1" d="M420.48 193.25v49.87h-26v-50.56q0-11-3.36-16.17t-10.83-5.16a18.47 18.47 0 00-13.24 5.59q-5.77 5.59-5.77 16.43v49.87h-25.8v-92.53h25.8v10.49q10.67-12 24.42-12a26.49 26.49 0 0115.91 5.16 33.56 33.56 0 0110.75 12.56 36.27 36.27 0 0114.36-13.07 39.33 39.33 0 0118.19-4.73q16.34 0 26.32 9.72t10 28.12v56.24h-26v-50.52q0-21.32-15.64-21.33a18.5 18.5 0 00-13.42 5.59q-5.68 5.58-5.69 16.43zM498 138.81a15.37 15.37 0 1110.75 4.38 14.63 14.63 0 01-10.75-4.38zm23.6 104.31h-25.8v-92.53h25.8v92.53zM561.5 191.52v51.6h-25.8v-92.53h25.8v10.32Q573.2 149 587.83 149a32.59 32.59 0 0124.5 10.32q9.89 10.32 9.89 27.52v56.24h-25.8v-52.25q0-21.32-15.65-21.33a18.75 18.75 0 00-13.5 5.59q-5.78 5.6-5.77 16.43zM694.4 200.47v-49.88h26v92.53h-26V230.9q-9.64 13.59-24.86 13.59T644 235q-10.31-9.55-10.32-28.29v-56.12h26V201q0 21.32 15.65 21.32a18.45 18.45 0 0013.42-5.59q5.65-5.59 5.65-16.26z" transform="translate(-4.04 -3.87)"/>
  <path class="cls-1" d="M760.68 169.16v41.45c0 3.55.91 6.34 2.75 8.33a8.57 8.57 0 006.54 3q7.22 0 12.21-6.54l9.64 18.06q-12 11-25.38 11a31.41 31.41 0 01-22.53-8.77q-9.2-8.77-9.2-23.91v-42.62h-19.9v-18.57h19.9V122.9h26v27.7H783v18.57h-22.32z" transform="translate(-4.04 -3.87)"/>
  <path class="cls-1" d="M886 196.85q0 20.13-13.93 33.88t-35 13.76q-21.06 0-35-13.76t-13.93-33.88q0-20.12 13.93-34t35-13.84q21.07 0 35 13.84t13.93 34zm-71.89 0q0 11.37 6.46 18.5a22.67 22.67 0 0033 0q6.44-7.15 6.44-18.5t-6.44-18.57a22.48 22.48 0 00-33 0q-6.47 7.23-6.47 18.57z" transform="translate(-4.04 -3.87)"/>
  <path class="cls-1" d="M960.57 214.31q0 13.68-10.05 21.93T925 244.5a68.46 68.46 0 01-21.5-3.69 63.44 63.44 0 01-20.12-10.93l11.35-16.16q14.46 11.17 30.78 11.18a14 14 0 007.92-2 6.07 6.07 0 002.92-5.25c0-2.18-1.34-4.18-4-6a46.06 46.06 0 00-11.7-5.16q-7.65-2.39-11.7-4.12a65.3 65.3 0 01-9.19-5q-10.5-6.53-10.5-19.35t10.32-20.9q10.3-8.08 26.66-8.08t32.67 11l-9.63 17.2q-12-8.25-24-8.26t-12 6.53q0 3.62 3.79 5.68a76.35 76.35 0 0012.54 4.81q8.78 2.75 12.47 4.21a63.69 63.69 0 018.85 4.55q9.65 5.88 9.64 19.55zM153.09 144.64a36.89 36.89 0 00-13.19-15.14q-8.81-5.86-21.46-7.2-18.3-1.93-31.52 7.83T71.76 158q-1.92 18.13 8.12 30.34t26.81 14a41.7 41.7 0 0024.37-4.86q-2.72 12.69-9.58 19.48t-18 5.63a23.93 23.93 0 01-9.48-3.43l-15.62 17.72a66 66 0 008.93 4.66 52.5 52.5 0 0015.82 4.18A46.06 46.06 0 00138.69 235q7.6-6.47 12.93-18.44t7.07-28.4q2.7-25.51-5.6-43.52zm-27.6 32a19.6 19.6 0 01-13.74 3.22q-8-.84-11.85-6.53a19.07 19.07 0 01-3.1-13.21 16.86 16.86 0 016.2-11.87 18.29 18.29 0 0125.33 3.28 18.5 18.5 0 013.76 13.54 15.43 15.43 0 01-6.61 11.59zM245.47 144.64a36.89 36.89 0 00-13.18-15.14q-8.81-5.86-21.47-7.2-18.3-1.93-31.53 7.83T164.15 158q-1.92 18.13 8.12 30.34t26.8 14a41.72 41.72 0 0024.38-4.86q-2.74 12.69-9.58 19.48t-18 5.63a23.9 23.9 0 01-9.55-3.43l-15.58 17.73a66.49 66.49 0 008.94 4.66 52.57 52.57 0 0015.83 4.18A46.09 46.09 0 00231.09 235q7.6-6.47 12.93-18.44t7.06-28.4q2.69-25.51-5.61-43.52zm-27.6 32a19.62 19.62 0 01-13.75 3.22q-7.95-.84-11.84-6.53a19.07 19.07 0 01-3.11-13.21 17.64 17.64 0 0131.52-8.6 18.45 18.45 0 013.77 13.54 15.43 15.43 0 01-6.58 11.6z" transform="translate(-4.04 -3.87)"/>
  <path d="M284.75 76l29.68 29.7 25.45-25.48S323 38.09 263.53 3.87l-25.45 25.45L267.79 59l-6.43 6.44a156 156 0 1017 17zm-2.29 105.55A122.67 122.67 0 11159.79 58.84a122.68 122.68 0 01122.67 122.68z" transform="translate(-4.04 -3.87)" fill="#99c34e"/>
</svg>
