<svg id="Layer_1" data-name="Layer 1" xmlns="http://www.w3.org/2000/svg" viewBox="0 0 270.63 83.86">
  <defs>
    <style>
      .cls-1{fill:#002f87}
    </style>
  </defs>
  <path class="cls-1" d="M65.7 59.44a37.64 37.64 0 00-34.77-37.53 6.78 6.78 0 013.82 5.16A33.06 33.06 0 0161.1 59.44v.58h4.61c-.02-.19-.01-.39-.01-.58z" transform="translate(-1.51 -2.12)"/>
  <path class="cls-1" d="M28.05 32.89A26.54 26.54 0 001.51 59.44a25.94 25.94 0 00.17 2.94h5A24 24 0 0029.37 86h-1.32a26.55 26.55 0 000-53.09zm-23.14 28a1.57 1.57 0 111.57-1.56 1.57 1.57 0 01-1.57 1.56zm22.88-26a1.57 1.57 0 11-1.57 1.57 1.57 1.57 0 011.57-1.58zm0 48.89a1.57 1.57 0 111.56-1.57 1.57 1.57 0 01-1.56 1.56zm2.59-23.52a2.33 2.33 0 01-2.33 2.33 2.3 2.3 0 01-2.23-1.69l-12.27-8.74.89-1.4 13 7.26a2.39 2.39 0 01.66-.1 2.44 2.44 0 01.48 0l10-16.2.71.42-9.39 16.71a2.3 2.3 0 01.48 1.4zm20.28.64a1.57 1.57 0 111.57-1.56 1.56 1.56 0 01-1.57 1.55z" transform="translate(-1.51 -2.12)"/>
  <path d="M110.58 47.56c0-8.17-3.62-15-15.21-15a28.52 28.52 0 00-13.5 3.13l2 6.9A20.39 20.39 0 0193.45 40c5.34 0 6.33 2.63 6.33 4.48v.42c-12.3 0-20.4 4.27-20.4 13.3 0 5.54 4.19 10.66 11.23 10.66a12.52 12.52 0 0010-4.26h.21l.64 3.48h9.74a44.76 44.76 0 01-.57-8.39zm-10.45 7.89a7.82 7.82 0 01-.21 1.85 6 6 0 01-5.62 4c-2.41 0-4.26-1.35-4.26-4.12 0-4.12 4.41-5.48 10.09-5.48zm56.37-22.89a13.3 13.3 0 00-6.61 1.71 15.24 15.24 0 00-4.55 4.27h-.14c-1.49-3.63-5-6-9.52-6a12 12 0 00-10.53 5.55h-.21l-.42-4.76h-9.18c.15 3.12.29 6.75.29 11.09v23.69h10.52V47.92a7.19 7.19 0 01.43-2.77 5.51 5.51 0 015-3.84c3.49 0 5 3 5 7.32v19.48h10.52V47.78a10.86 10.86 0 01.36-2.7 5.36 5.36 0 015-3.77c3.49 0 5.12 2.91 5.12 8v18.8h10.52V47.63c.13-10.37-4.92-15.07-11.6-15.07z" transform="translate(-1.51 -2.12)" fill="#e1251b"/>
  <path class="cls-1" d="M194.53 32.56c-5.05 0-9 2-11.59 5.62h-.14l-.5-4.83h-9.38c.14 3.27.29 7.11.29 11.65v37.18H184V64.91h.14c1.57 2.27 4.84 4 9 4 7.75 0 15.78-6 15.78-18.62.08-11.11-6.78-17.73-14.39-17.73zm-4 28a6.54 6.54 0 01-6.33-5.12 11.38 11.38 0 01-.21-2.27v-4.75a8.5 8.5 0 01.21-1.92 6.8 6.8 0 016.49-5.5c4.84 0 7.32 4.2 7.32 9.74-.01 5.92-2.77 9.83-7.46 9.83zm62.47-28a13.3 13.3 0 00-6.61 1.71 15.12 15.12 0 00-4.55 4.27h-.14c-1.49-3.63-5-6-9.53-6a12 12 0 00-10.52 5.55h-.21l-.42-4.76h-9.18c.15 3.12.29 6.75.29 11.09v23.69h10.52V47.92a7.19 7.19 0 01.43-2.77 5.51 5.51 0 015-3.84c3.49 0 5 3 5 7.32v19.48h10.52V47.78a10.86 10.86 0 01.36-2.7 5.37 5.37 0 015-3.77c3.48 0 5.12 2.91 5.12 8v18.8h10.52V47.63c.16-10.37-4.89-15.07-11.6-15.07zm14.21-2.05a8.08 8.08 0 011.11-.06 1.87 1.87 0 011.19.28 1 1 0 01.34.77 1 1 0 01-.66.91.89.89 0 01.5.68c.12.43.23.9.29 1.06h-.85a5.49 5.49 0 01-.25-.87c-.1-.47-.25-.58-.6-.6H268v1.47h-.83zm.83 1.58h.32c.41 0 .66-.2.66-.53s-.23-.51-.61-.51a2.41 2.41 0 00-.37 0z" transform="translate(-1.51 -2.12)"/>
  <path class="cls-1" d="M271.47 32.33a3 3 0 11-3-3 3 3 0 013 3zm-3-3.66a3.67 3.67 0 103.68 3.66 3.67 3.67 0 00-3.69-3.66zM98.73 20.64a21.74 21.74 0 01-6.42 1.08c-3.5 0-6-.88-7.8-2.56a9.62 9.62 0 01-2.71-7c0-6.38 4.67-10 11-10a13.83 13.83 0 015.3.84l-.91 3.5a10.18 10.18 0 00-4.45-.82c-3.62 0-6.38 2.05-6.38 6.21 0 4 2.51 6.3 6.07 6.3a6.7 6.7 0 002.11-.19v-4.09h-3v-3.39h7.16zm3.36-8.46c0-2 0-3.39-.11-4.59h3.7l.17 2.59h.15a4 4 0 014.67-2.82v4.08a6.75 6.75 0 00-1.2-.12 2.76 2.76 0 00-3 2.2 4.64 4.64 0 00-.09 1v7h-4.33zm23.85 4.87c0 1.83.06 3.31.12 4.47h-3.76l-.2-2h-.1a5 5 0 01-4.36 2.28c-2.85 0-4.9-1.77-4.9-6.07V7.59h4.33v7.5c0 2 .66 3.24 2.19 3.24a2.29 2.29 0 002.17-1.51 2.36 2.36 0 00.17-.94V7.59h4.33zm3.48-4.79c0-1.82 0-3.36-.11-4.67h3.76l.2 1.94h.06A5.39 5.39 0 01138 7.27c3.05 0 5.79 2.65 5.79 7.1 0 5.07-3.22 7.47-6.33 7.47a4.32 4.32 0 01-3.62-1.6h-.05v6.93h-4.34zm4.34 3.28a4.28 4.28 0 00.08.91 2.61 2.61 0 002.54 2.05c1.88 0 3-1.56 3-3.93 0-2.22-1-3.9-2.94-3.9a2.72 2.72 0 00-2.59 2.19 3.19 3.19 0 00-.08.77zm19.24 6.3a6.83 6.83 0 01-7.21-7.18c0-4.5 3-7.39 7.47-7.39a6.77 6.77 0 017.09 7.16 7 7 0 01-7.35 7.41zm.09-3.11c1.71 0 2.77-1.68 2.77-4.19 0-2-.81-4.16-2.77-4.16s-2.85 2.11-2.85 4.19c0 2.37 1 4.16 2.82 4.16z" transform="translate(-1.51 -2.12)"/>
</svg>
