<svg xmlns="http://www.w3.org/2000/svg" viewBox="0 0 932.61 253.288"><defs><style>.cls-1{fill:#fefefe;}.cls-2{fill:#215ffe;}.cls-3{fill:#205ffe;}.cls-4{fill:#4c7efe;}.cls-5{fill:#7199fe;}.cls-6{fill:#6d96fe;}.cls-7{fill:#2965fe;}.cls-8{fill:#8eaefe;}.cls-9{fill:#4f81fe;}.cls-10{fill:#3d74fe;}.cls-11{fill:#6993fe;}.cls-12{fill:#cbd9fe;}.cls-13{fill:#a1bbfe;}.cls-14{fill:#abc2fe;}.cls-15{fill:#bbcefe;}.cls-16{fill:#4378fe;}.cls-17{fill:#0048fe;}</style></defs><g id="Layer_2" data-name="Layer 2"><g id="Layer_1-2" data-name="Layer 1"><path class="cls-1" d="M849.6,253.261c1.555-.56,3.2-.385,4.8-.534,12.251-1.136,24.061-3.915,35.132-9.411,18.972-9.419,31.61-24.328,38.267-44.373a97.46,97.46,0,0,0,4.5-23.433c.026-.34-.17-.77.285-1q0,38.811.027,77.621c0,.967-.19,1.157-1.156,1.156Q890.527,253.239,849.6,253.261Z"/><path class="cls-2" d="M319.8,253.261H296.657a.336.336,0,0,1,.157-.464,3.911,3.911,0,0,1,1.927-.27q9.487-.012,18.976,0a3.962,3.962,0,0,1,1.928.268A.34.34,0,0,1,319.8,253.261Z"/><path class="cls-3" d="M823.614,253l21.757-.017c.09.063.118.125.087.186s-.062.09-.093.09H823.631c-.089-.052-.121-.108-.1-.167S823.586,253,823.614,253Z"/><path class="cls-4" d="M296.639,253c.009.088.015.176.018.265H294.4a.3.3,0,0,1,.106-.43A1.9,1.9,0,0,1,296.639,253Z"/><path class="cls-5" d="M819.939,253.021h1.969c.11.041.151.09.124.147s-.061.093-.094.093h-1.976c-.085-.046-.117-.1-.1-.152S819.913,253.021,819.939,253.021Z"/><path class="cls-6" d="M319.8,253.261a.928.928,0,0,1,.02-.268,1.58,1.58,0,0,1,1.858-.159.3.3,0,0,1,.1.427Z"/><path class="cls-5" d="M846.794,253.008c.648.127,1.373-.357,1.958.253h-1.976c-.095-.063-.124-.122-.087-.176S846.759,253.008,846.794,253.008Z"/><path class="cls-7" d="M134.641,253.261c.613-.523,1.333-.2,2.006-.253.071.065.09.125.058.178s-.06.075-.088.075Z"/><path class="cls-8" d="M294.367,253.028c.01.078.02.155.032.233h-1.694a.3.3,0,0,1,.091-.42A1.218,1.218,0,0,1,294.367,253.028Z"/><path class="cls-9" d="M122.19,253.019c.586,0,1.207-.241,1.725.242h-1.694c-.082-.044-.114-.094-.1-.151S122.166,253.019,122.19,253.019Z"/><path class="cls-10" d="M821.938,253.261q-.01-.12-.03-.24l1.706-.019c.008.086.014.173.017.259Z"/><path class="cls-11" d="M136.617,253.261a1.345,1.345,0,0,1,.03-.253c.461.082,1-.294,1.381.253Z"/><path class="cls-12" d="M292.688,253.022a2.117,2.117,0,0,1,.017.239h-1.411a1.171,1.171,0,0,0-.01-.244A.9.9,0,0,1,292.688,253.022Z"/><path class="cls-13" d="M122.19,253.019a1.042,1.042,0,0,1,.031.242H120.81a1.583,1.583,0,0,0-.022-.237Z"/><path class="cls-14" d="M321.777,253.261a1.959,1.959,0,0,1,.021-.242.9.9,0,0,1,1.411.01c0,.077-.011.155-.02.232Z"/><path class="cls-15" d="M819.939,253.021a1.135,1.135,0,0,1,.023.24h-1.411c0-.077-.01-.154-.017-.231Z"/><path class="cls-16" d="M846.794,253.008a1.783,1.783,0,0,0-.018.253h-1.411a2.543,2.543,0,0,1,.006-.276Z"/><path class="cls-17" d="M645.167,252.434c-20.133,0-40.267.085-60.4-.032a23.459,23.459,0,0,1-23.085-21.16c-.594-5.582-.191-11.186-.248-16.779a78.372,78.372,0,0,1,.46-12.39,34.477,34.477,0,0,1,9.454-18.977c5.506-5.816,11.841-10.728,17.86-15.98q26.034-22.722,52.169-45.327c.639-.555,1.31-1.077,1.912-1.669.248-.244.877-.382.5-.963-.3-.475-.7-.45-1.218-.285a70.208,70.208,0,0,1-10.424,2.379,111.6,111.6,0,0,1-16.577,1.289q-14.041.081-28.084,0c-6.049-.036-11.759-1.369-16.674-5.112A20.84,20.84,0,0,1,562.3,100.97c-.256-7.188-.207-14.4-.032-21.588a22.661,22.661,0,0,1,18.665-21.443,31.133,31.133,0,0,1,5.886-.549c38.9.007,77.806.113,116.709-.05,14.851-.062,24.78,10.762,25.062,24.01.158,7.38.111,14.771-.045,22.152A33.365,33.365,0,0,1,716.288,129c-8.5,7.268-17.281,14.213-25.963,21.269q-23.915,19.433-47.842,38.849c-.366.3-1.235.448-.876,1.186.377.775,1.044.319,1.6.132a85.171,85.171,0,0,1,25.642-4.151c12.6-.247,25.221-.6,37.8.153,8.8.53,15.795,4.568,19.829,12.806a21.741,21.741,0,0,1,2.186,9.541c.032,7.477.357,14.965-.136,22.429A22.727,22.727,0,0,1,708.8,252.151a39.044,39.044,0,0,1-5.345.307q-29.142,0-58.285,0Z"/><path class="cls-17" d="M420.286,155.539c0-24.272-.051-48.544.028-72.816.027-8.219,2.959-15.245,9.577-20.428a23.283,23.283,0,0,1,14.577-4.825c6.35-.052,12.7-.012,19.051-.012,14.892,0,25.61,10.624,25.711,25.53.043,6.3.007,12.606.007,18.909,0,.282,0,.565,0,.847.006.324-.05.716.423.742.456.024.487-.393.553-.692.5-2.292.977-4.592,1.482-6.884,1.422-6.458,2.538-12.995,5.077-19.162,3.106-7.545,7.85-13.53,15.621-16.7a38.33,38.33,0,0,1,14.06-2.575c3.661-.054,7.349-.269,10.961.564,8.7,2.007,14.034,8.633,14.17,17.912q.194,13.192,0,26.388A20.482,20.482,0,0,1,530.8,122.611a188.631,188.631,0,0,0-19.038.245,32.891,32.891,0,0,0-10.249,2.359c-6.436,2.759-9.779,7.919-11.23,14.541a49.72,49.72,0,0,0-1.04,10.643q-.027,38.736,0,77.472a24.69,24.69,0,0,1-6.458,17.393,20.827,20.827,0,0,1-15.289,7.119c-8.181.178-16.369.163-24.552.043a22.655,22.655,0,0,1-21.8-17.382,28.109,28.109,0,0,1-.874-6.972Q420.3,191.805,420.286,155.539Z"/><path class="cls-17" d="M195.741,141.209a159.076,159.076,0,0,0-1.238-22.374c-1.5-11.061-4.3-21.729-9.655-31.6-8-14.726-19.966-24.5-36.343-28.462a93.356,93.356,0,0,0-38.783-.7C95.738,60.6,84.976,68.049,77.893,80.533a76.632,76.632,0,0,0-7.882,21.9c-.084.39,0,.977-.59.947-.663-.033-.351-.64-.405-1a6.613,6.613,0,0,1-.011-.986q0-37.116,0-74.231,0-2.044-.122-4.088A24.344,24.344,0,0,0,45.191.12C37.9-.035,30.605-.051,23.319.137A22.585,22.585,0,0,0,6.5,7.829C1.877,12.984.01,19.157.009,25.968Q0,127.011,0,228.055a28.93,28.93,0,0,0,.538,5.462A22.846,22.846,0,0,0,23.344,252.46c7.433,0,14.867-.111,22.3.025,12.689.231,22.515-9.751,23.2-22,.389-6.941.129-13.919.162-20.879,0-.377,0-.753.016-1.129.007-.2.11-.388.323-.378a.627.627,0,0,1,.468.208,8.326,8.326,0,0,1,.446,1.18A82.474,82.474,0,0,0,76.2,223.594c9.6,17.778,24.345,27.768,44.585,29.43a4.452,4.452,0,0,0,1.362.092c.586.074,1.2-.162,1.765.145h10.726c.621-.294,1.281-.076,1.919-.145.488.067,1-.151,1.468.145h.847c.282-.479.759-.251,1.143-.288a58.764,58.764,0,0,0,22.964-6.66c11.865-6.5,19.611-16.546,24.724-28.829,5.347-12.845,7.392-26.366,7.871-40.153C196,165.3,195.671,153.25,195.741,141.209ZM128.553,170.4c-2.477,7.653-7.575,12.691-15.257,14.851a58.4,58.4,0,0,1-30.5.293c-8.557-2.156-13.952-7.735-16.043-16.247a59.807,59.807,0,0,1,.05-29.023c2.267-9.132,8.136-14.876,17.258-17.038a56.351,56.351,0,0,1,28.036.306c10.026,2.711,15.488,9.681,17.476,19.656a67.537,67.537,0,0,1,1.089,11.761C130.539,160.2,130.181,165.377,128.553,170.4Z"/><path class="cls-17" d="M932.583,140.64a7.7,7.7,0,0,1-.146-2.3c0-.553,0-1.107,0-1.66a4.837,4.837,0,0,0-.09-1.42,97.7,97.7,0,0,0-4.286-23.5c-5.847-18.277-16.738-32.62-33.353-42.4-13.958-8.22-29.268-11.735-45.287-12.521-8.6-.422-17.205-.278-25.808-.147a110.215,110.215,0,0,0-33.132,5.259c-18.047,5.967-32.531,16.561-42.371,33.027-8.234,13.778-11.621,28.916-11.944,44.8-.192,9.4-.07,18.811-.048,28.216a98.729,98.729,0,0,0,4.461,29.987c6.805,21.329,20.246,36.873,40.615,46.311,11.839,5.485,24.391,7.975,37.34,8.745a5.5,5.5,0,0,0,1.471.086h26.654c.7.08,1.414-.169,2.093.145h.847c2.044-.236,4.111-.126,6.151-.317a99.477,99.477,0,0,0,28.822-6.954,74.279,74.279,0,0,0,33.339-26.249c8.147-11.617,12.455-24.681,14.218-38.665.275-2.182.12-4.389.454-6.565v-.847c-.309-.655-.073-1.349-.146-2.021a9.081,9.081,0,0,1,.146-2.5Zm-66.968,29.377c-2.644,8.81-8.532,14.344-17.411,16.5a57.537,57.537,0,0,1-27.783-.031c-9.482-2.356-15.427-8.423-17.689-17.923a58.376,58.376,0,0,1-.045-27.095c2.261-9.684,8.289-15.83,17.953-18.165a56.843,56.843,0,0,1,28.184.2c9.663,2.55,15.253,9.1,17.42,18.725a53.78,53.78,0,0,1,1.21,12.739A49.391,49.391,0,0,1,865.615,170.017Z"/><path class="cls-17" d="M405.85,141.637a98.428,98.428,0,0,0-5.6-33.047c-6.742-18.518-18.766-32.427-36.325-41.459-12.973-6.673-26.9-9.615-41.361-10.3-8.6-.408-17.209-.279-25.814-.141a108.577,108.577,0,0,0-35.394,6.081c-15.8,5.7-28.775,15.132-38.108,29.243-9.291,14.048-13.268,29.746-13.758,46.382-.291,9.869-.1,19.754-.093,29.631a98.774,98.774,0,0,0,3.732,27.567c6.73,23.238,21.039,39.9,43.3,49.574,11.112,4.831,22.825,7.057,34.854,7.852l1.4,0,1.679.006L296.64,253l23.182,0,1.976.026,1.411.01c2.3-.193,4.595-.344,6.884-.586a94.085,94.085,0,0,0,35.9-10.783,72.321,72.321,0,0,0,29.954-30.527c6.764-12.974,9.579-26.918,9.865-41.416C405.994,160.36,405.936,151,405.85,141.637Zm-66.767,27.516c-2.31,9.116-8.168,14.958-17.307,17.261a56.971,56.971,0,0,1-28.45-.037c-9.7-2.489-15.312-8.965-17.557-18.573a62.238,62.238,0,0,1-1.33-12.861,57.729,57.729,0,0,1,1.8-14.651c2.546-8.907,8.28-14.6,17.221-16.861a56.553,56.553,0,0,1,28.589.068c8.915,2.338,14.686,8.095,16.99,17.061A57.088,57.088,0,0,1,339.083,169.153Z"/></g></g></svg>