<svg version="1.1" id="svg4322" xmlns="http://www.w3.org/2000/svg" x="0" y="0" viewBox="0 0 1000 170" xml:space="preserve">
  <style>
    .st0{fill:#ec1c24}
  </style>
  <path class="st0" d="M22.5 61.9c2.7-11.3 5.9-24.5 24.8-24.5h76.1c27.9 0 24.2 15.3 22 24.5l-10 41.5H54.7l-3 12.6c-2 8.3 3.6 13.4 13.9 13.4h63.5l-7.1 29.2H27.7c-28.6 0-26.1-10.3-22.6-24.7l17.4-72zm37.7 18.6h37.7l2.6-10.1c.8-3.1 1.9-8-5.3-8H72.3c-6 0-8.4 3.7-9.4 7.6l-2.7 10.5zm201.5-43.1H188c-22.6 0-25.9 13-28.7 25-2.8 12 1.5 23 16.1 33.5 14.7 10.5 31 17.2 28.2 26.7-1.2 3.9-6.1 6.8-15.9 6.8h-44.6l-7.1 29.2h73.4c14.3 0 32.1.3 40.5-13.3 8.5-13.5 6.1-24.4-1.6-35.6-7.6-11.2-22.6-18.4-33.7-29.3-6.6-6.4-6.2-18.1 4.4-18.1h36.6l6.1-24.9zm13.8 0h23.7l7.6-31.3h43.1l-7.6 31.3h22.1c-2 8.3-4 16.7-6 25h-22.1l-13.7 56.7c-2.5 10.3.7 14.6 13.9 14.6l-6 24.9h-31.7c-28.9 0-24.1-19.8-21.8-29.2l16.2-66.9h-23.7l6-25.1zm96.7 25.1l6-25h92c22.4 0 19.6 16.7 17.6 25l-17.2 71.2c-4.5 18.7 1.2 20.1 4.9 24.9h-41.1c-4.6 0-10.6-3.4-12.7-5.6-9.7 2.9-10.3 9.2-30.5 8.8-20.2-.4-42.7-18.4-40.8-42.5 1.9-24.1 23-38.8 42-38.8h46.8l2.7-11c1.7-7.1-3.8-7.1-7.2-7.1l-62.5.1zm63.3 38.3h-28.3c-11.6 0-27.5 13.9-14.1 27.7 13.3 13.8 37.6-7 42.4-27.7zM595.8 6.2h-40.5c-10.4 0-23.7 0-29 22.1l-2.2 9.2H506l-6 25h18.1l-21 86.9c-.9 3.7-2.3 6.2-6.9 9.3h32.9c11.1 0 17.1-10.3 20.6-24.9l17.2-71.2h21.3l6-25H567l1.3-5.3c.9-3.8 4.2-6.6 10-6.6l12.9.2 4.6-19.7zm1.5 55.7c2.7-11.3 5.9-24.5 24.8-24.5h76.1c27.9 0 24.2 15.3 22 24.5l-10 41.5h-80.6l-3 12.6c-2 8.3 3.6 13.4 13.9 13.4H704l-7.1 29.2h-94.3c-28.6 0-26.1-10.3-22.6-24.7l17.3-72zM635 80.5h37.7l2.6-10.1c.8-3.1 1.9-8-5.3-8h-22.9c-6 0-8.4 3.7-9.4 7.6L635 80.5zm103.8-43.1h23.7L770 6.2h43.1l-7.6 31.3h22.1c-2 8.3-4 16.7-6 25h-22.1l-13.7 56.7c-2.5 10.3.7 14.6 13.9 14.6l-6 24.9H762c-28.9 0-24.1-19.8-21.8-29.2l16.2-66.9h-23.7l6.1-25.2zm96.7 25.1l6-25h92c22.4 0 19.6 16.7 17.6 25L934 133.7c-4.5 18.7 1.3 20.1 4.9 24.9h-41.1c-4.6 0-10.6-3.4-12.7-5.6-9.7 2.9-10.3 9.2-30.5 8.8-20.2-.4-42.7-18.4-40.8-42.5 1.9-24.1 23-38.8 42-38.8h46.8l2.7-11c1.7-7.1-3.8-7.1-7.2-7.1l-62.6.1zm63.3 38.3h-28.3c-11.6 0-27.5 13.9-14.1 27.7 13.3 13.8 37.6-7 42.4-27.7zM979.9 33.6c4.9 0 9.3 2 12.5 5.2 3.2 3.2 5.2 7.6 5.2 12.5s-2 9.3-5.2 12.5c-3.2 3.2-7.6 5.2-12.5 5.2s-9.3-2-12.5-5.2c-3.2-3.2-5.2-7.6-5.2-12.5s2-9.3 5.2-12.5c3.1-3.2 7.6-5.2 12.5-5.2z"/>
  <path d="M984.1 50.2h3.6c.8 0 1.4-.1 1.8-.2.4-.2.8-.4 1-.8.2-.4.3-.7.3-1.1 0-.6-.2-1.1-.7-1.5-.4-.4-1.1-.6-2.1-.6h-4v4.2h.1zm-1.7 7.1V44.6h5.6c1.1 0 2 .1 2.6.3.6.2 1.1.6 1.4 1.2.4.6.5 1.2.5 1.9 0 .9-.3 1.7-.9 2.3-.6.6-1.5 1-2.7 1.2.4.2.8.4 1 .6.5.4 1 1 1.4 1.7l2.2 3.5h-2.1l-1.7-2.6c-.5-.8-.9-1.3-1.2-1.7-.3-.4-.6-.7-.8-.9-.3-.2-.5-.3-.8-.3-.2 0-.5-.1-.9-.1h-2v5.6h-1.6zm-14.9 0V44.6h2.5l3 9c.3.8.5 1.5.6 1.9.1-.5.4-1.1.7-2l3-8.8h2.3v12.7H978V46.7l-3.7 10.6h-1.5l-3.7-10.8v10.8h-1.6z" fill="#fff"/>
</svg>
