<svg xmlns="http://www.w3.org/2000/svg" viewBox="0 0 792 366.4">
  <defs/>
  <style>
    .st0{display:none}.st1{fill:#82027e}.st2{fill:#fff}
  </style>
  <g id="Layer_1">
    <path d="M55.5 294.4h3.4c1.9 0 3.2.1 3.8.3 1 .3 1.7.8 2.2 1.6.5.8.6 1.9.4 3.1-.2 1-.6 1.9-1.2 2.7-.6.8-1.3 1.4-2.2 1.8-.9.4-2 .6-3.5.6l4.5 8.7h-2.1l-4.5-8.7h-1l-1.6 8.7H52l3.5-18.8zm1.4 1.8l-1.2 6.4h2.9c1.1 0 2-.1 2.6-.4.6-.2 1.1-.6 1.5-1.1.4-.5.7-1.1.8-1.8.1-.6.1-1.2-.2-1.7-.2-.5-.6-.9-1-1.1-.5-.2-1.3-.3-2.4-.3h-3zM80.3 299.2L77.7 313h-1.6l.4-2.4c-.8.9-1.7 1.6-2.7 2-.9.5-1.9.7-2.9.7-1.8 0-3.2-.7-4.2-2.1-1-1.4-1.3-3.1-.9-5.2.4-2 1.3-3.7 2.8-5.1 1.5-1.4 3.2-2.1 5-2.1 1 0 1.9.2 2.7.7.7.5 1.3 1.2 1.8 2.2l.5-2.5h1.7zm-6.7 1.4c-.9 0-1.8.2-2.6.7-.9.5-1.6 1.2-2.2 2.1-.6.9-1 1.8-1.2 2.8a5.29 5.29 0 001.6 4.9c.7.5 1.5.7 2.3.7.9 0 1.8-.3 2.7-.7a7.03 7.03 0 003.4-4.8c.3-1.6.1-2.9-.7-4a3.9 3.9 0 00-3.3-1.7zM83.2 299.2h1.6l-.5 2.5c.8-1 1.7-1.7 2.6-2.2.9-.5 1.9-.7 2.9-.7 1.8 0 3.2.7 4.2 2.1 1 1.4 1.3 3.1 1 5.1-.4 2-1.3 3.8-2.8 5.2a7.22 7.22 0 01-5 2.1c-1 0-1.9-.2-2.6-.7-.8-.5-1.4-1.1-1.9-2l-1.4 7.4h-1.6l3.5-18.8zm6.2 1.4c-1.4 0-2.7.5-3.8 1.6a6.94 6.94 0 00-2.2 4c-.2 1.1-.2 2 .1 2.8.3.8.8 1.5 1.5 2s1.5.7 2.4.7c.9 0 1.7-.3 2.6-.7.9-.5 1.6-1.2 2.2-2.1.6-.9 1-1.8 1.2-2.8a5.29 5.29 0 00-1.6-4.9c-.7-.3-1.5-.6-2.4-.6zM98.3 299.2h1.6L97.3 313h-1.6l2.6-13.8zm1.8-5.6c.4 0 .7.1.9.4.2.3.3.6.2 1-.1.4-.3.8-.6 1-.3.3-.7.4-1 .4-.4 0-.7-.1-.9-.4-.2-.3-.3-.6-.2-1 .1-.4.3-.8.6-1 .3-.3.7-.4 1-.4zM116 293.9l-3.5 19.2h-1.6l.4-2.4c-.9.9-1.7 1.6-2.7 2-.9.5-1.9.7-2.9.7-1.8 0-3.2-.7-4.2-2.1-1-1.4-1.3-3.1-.9-5.2.4-2 1.3-3.7 2.9-5.1 1.5-1.4 3.2-2.1 5-2.1 1 0 1.9.2 2.7.7.7.5 1.3 1.2 1.8 2.2l1.5-7.9h1.5zm-7.7 6.7c-.9 0-1.8.2-2.6.7-.9.5-1.6 1.2-2.2 2.1-.6.9-1 1.8-1.2 2.8a5.29 5.29 0 001.6 4.9c.7.5 1.5.7 2.3.7.9 0 1.8-.3 2.7-.7a7.03 7.03 0 003.4-4.8c.3-1.6.1-2.9-.7-4-.9-1.1-1.9-1.7-3.3-1.7zM126.7 308.5l1.2.8c-.6 1-1.3 1.7-2 2.3a7.08 7.08 0 01-4.8 1.9c-2.1 0-3.5-.7-4.4-2.2-.9-1.5-1.1-3.1-.8-5 .3-1.8 1.1-3.3 2.3-4.7 1.6-1.7 3.4-2.6 5.5-2.6s3.7.9 4.6 2.7c.7 1.3.9 2.8.5 4.7h-11.3c-.3 1.6 0 2.9.7 4 .7 1 1.7 1.5 3.1 1.5.6 0 1.3-.1 1.9-.4.7-.2 1.2-.6 1.7-1 .6-.4 1.2-1.1 1.8-2zm.7-3.7c0-.9-.2-1.7-.5-2.3-.3-.6-.8-1-1.4-1.4-.6-.4-1.3-.5-2-.5-1.2 0-2.4.4-3.4 1.3-.8.6-1.4 1.6-2 2.9h9.3zM131.4 299.2h9.3l-9.4 12.3h6.9l-.3 1.6h-9.7l9.4-12.3h-6.5l.3-1.6zM141.3 309.6l1.4.8-3.2 4.8-1.1-.5 2.9-5.1zM159.2 300.8l-1.3 1.2c-.7-.9-1.5-1.4-2.3-1.4-.5 0-1 .2-1.5.6-.4.4-.7.8-.8 1.3-.1.5 0 .9.2 1.3s.8.9 1.7 1.5c1.1.7 1.8 1.3 2.1 2 .3.6.4 1.4.2 2.2-.2 1.1-.7 2.1-1.6 2.9-.9.8-1.9 1.2-2.9 1.2-.7 0-1.4-.2-2-.5-.6-.3-1.1-.8-1.4-1.4l1.3-1.3c.6 1 1.4 1.5 2.4 1.5.6 0 1.2-.2 1.8-.7.5-.5.9-1 1-1.6.1-.5 0-1-.2-1.4-.2-.4-.8-.9-1.8-1.5s-1.7-1.3-2-1.9c-.3-.6-.4-1.3-.2-2.1.2-1.1.7-1.9 1.5-2.6.8-.7 1.7-1 2.7-1 1.1-.2 2.1.4 3.1 1.7zM170.4 308.5l1.2.8c-.6 1-1.3 1.7-2 2.3a7.08 7.08 0 01-4.8 1.9c-2.1 0-3.5-.7-4.4-2.2-.9-1.5-1.1-3.1-.8-5 .3-1.8 1.1-3.3 2.3-4.7 1.6-1.7 3.4-2.6 5.5-2.6s3.7.9 4.6 2.7c.7 1.3.9 2.8.5 4.7h-11.3c-.3 1.6 0 2.9.7 4 .7 1 1.7 1.5 3.1 1.5.6 0 1.3-.1 1.9-.4.6-.2 1.2-.6 1.7-1s1.1-1.1 1.8-2zm.7-3.7c0-.9-.2-1.7-.5-2.3-.3-.6-.8-1-1.4-1.4-.6-.4-1.3-.5-2-.5-1.2 0-2.4.4-3.4 1.3-.8.6-1.4 1.6-2 2.9h9.3zM186.9 299.2h1.6l-2 11c-.4 1.9-.8 3.4-1.3 4.3-.7 1.3-1.6 2.3-2.8 2.9-1.2.7-2.5 1-4 1-1.1 0-2-.2-2.8-.5-.8-.3-1.4-.8-1.8-1.4-.4-.6-.8-1.4-1-2.5h1.8c.3.9.8 1.6 1.5 2 .7.4 1.6.7 2.7.7s2.1-.2 2.9-.7c.8-.5 1.5-1 1.9-1.7.4-.7.8-1.8 1.1-3.3l.1-.7c-.8.9-1.6 1.5-2.6 2s-1.9.7-2.9.7c-1.2 0-2.2-.3-3.1-.9-.9-.6-1.5-1.5-1.9-2.6-.4-1.1-.4-2.2-.2-3.5.2-1.3.7-2.5 1.5-3.6s1.7-2 2.9-2.6c1.1-.6 2.3-1 3.4-1 .9 0 1.8.2 2.5.6.7.4 1.4 1.1 2 2.1l.5-2.3zm-5 1.4c-.9 0-1.8.2-2.7.7a7.03 7.03 0 00-3.4 4.8c-.3 1.5 0 2.8.7 3.8s1.8 1.5 3.3 1.5c1.5 0 2.8-.5 3.9-1.5s1.8-2.3 2.1-3.9c.2-1 .2-2-.1-2.8-.3-.8-.7-1.5-1.4-1.9-.7-.4-1.5-.7-2.4-.7zM191 299.2h1.6l-1.2 6.5c-.3 1.6-.4 2.7-.4 3.3.1.8.4 1.5 1 2s1.3.7 2.2.7c.9 0 1.7-.2 2.4-.7.7-.5 1.3-1.1 1.7-1.9.3-.5.5-1.7.9-3.4l1.2-6.5h1.7l-1.3 6.8c-.4 1.9-.8 3.3-1.4 4.3-.6 1-1.3 1.7-2.2 2.3-.9.5-2 .8-3.2.8-1.2 0-2.2-.3-2.9-.8-.7-.6-1.2-1.3-1.4-2.3-.2-1-.2-2.5.2-4.4l1.1-6.7zM204.2 299.2h1.7l-.4 2c.6-.8 1.3-1.4 1.9-1.8.6-.4 1.2-.6 1.8-.6.5 0 .9.2 1.3.5l-1.1 1.5c-.3-.2-.6-.2-.8-.2-.5 0-1.1.2-1.7.7-.6.5-1.1 1.2-1.6 2.3-.3.8-.7 2.4-1.2 4.8l-.9 4.7h-1.6l2.6-13.9zM210.8 299.2h1.6l-2.6 13.8h-1.6l2.6-13.8zm1.9-5.6c.4 0 .7.1.9.4.2.3.3.6.2 1-.1.4-.3.8-.6 1-.3.3-.7.4-1 .4-.4 0-.7-.1-.9-.4-.2-.3-.3-.6-.2-1 .1-.4.3-.8.6-1 .3-.3.6-.4 1-.4zM228.6 293.9l-3.5 19.2h-1.6l.4-2.4c-.8.9-1.7 1.6-2.7 2-.9.5-1.9.7-2.9.7-1.8 0-3.2-.7-4.2-2.1-1-1.4-1.3-3.1-.9-5.2.4-2 1.3-3.7 2.9-5.1 1.5-1.4 3.2-2.1 5-2.1 1 0 1.9.2 2.7.7.7.5 1.3 1.2 1.8 2.2l1.5-7.9h1.5zm-7.8 6.7c-.9 0-1.8.2-2.6.7-.9.5-1.6 1.2-2.2 2.1-.6.9-1 1.8-1.2 2.8a5.29 5.29 0 001.6 4.9c.7.5 1.4.7 2.3.7.9 0 1.8-.3 2.7-.7a7.03 7.03 0 003.4-4.8c.3-1.6.1-2.9-.7-4a3.9 3.9 0 00-3.3-1.7zM243 299.2l-2.6 13.8h-1.6l.4-2.4c-.8.9-1.7 1.6-2.7 2-.9.5-1.9.7-2.9.7-1.8 0-3.2-.7-4.2-2.1-1-1.4-1.3-3.1-.9-5.2.4-2 1.3-3.7 2.9-5.1 1.5-1.4 3.2-2.1 5-2.1 1 0 1.9.2 2.7.7.7.5 1.3 1.2 1.8 2.2l.5-2.5h1.6zm-6.8 1.4c-.9 0-1.8.2-2.6.7-.9.5-1.6 1.2-2.2 2.1-.6.9-1 1.8-1.2 2.8-.2 1-.1 1.9.2 2.8a3.9 3.9 0 003.8 2.8c.9 0 1.8-.3 2.7-.7a7.03 7.03 0 003.4-4.8c.3-1.6.1-2.9-.7-4-.9-1.1-2-1.7-3.4-1.7zM259.3 293.9l-3.5 19.2h-1.6l.4-2.4c-.8.9-1.7 1.6-2.7 2-.9.5-1.9.7-2.9.7-1.8 0-3.2-.7-4.2-2.1-1-1.4-1.3-3.1-.9-5.2.4-2 1.3-3.7 2.9-5.1 1.5-1.4 3.2-2.1 5-2.1 1 0 1.9.2 2.7.7.7.5 1.3 1.2 1.8 2.2l1.5-7.9h1.5zm-7.7 6.7c-.9 0-1.8.2-2.6.7-.9.5-1.6 1.2-2.2 2.1-.6.9-1 1.8-1.2 2.8a5.29 5.29 0 001.6 4.9c.7.5 1.5.7 2.3.7.9 0 1.8-.3 2.7-.7a7.03 7.03 0 003.4-4.8c.3-1.6.1-2.9-.7-4a3.9 3.9 0 00-3.3-1.7zM265.6 299.2h1.7l2.4 10.7 6.2-10.7h1.7l-11 18.9h-1.7l3.6-6.1-2.9-12.8zM290.6 300.8l-1.3 1.2c-.7-.9-1.5-1.4-2.3-1.4-.5 0-1 .2-1.5.6-.4.4-.7.8-.8 1.3-.1.5 0 .9.2 1.3s.8.9 1.7 1.5c1.1.7 1.8 1.3 2.1 2 .3.6.4 1.4.2 2.2-.2 1.1-.7 2.1-1.6 2.9-.9.8-1.9 1.2-2.9 1.2-.7 0-1.4-.2-2-.5-.6-.3-1.1-.8-1.4-1.4l1.3-1.3c.6 1 1.4 1.5 2.4 1.5.7 0 1.2-.2 1.8-.7.5-.5.9-1 1-1.6.1-.5 0-1-.2-1.4-.2-.4-.8-.9-1.8-1.5s-1.7-1.3-2-1.9c-.3-.6-.4-1.3-.2-2.1.2-1.1.7-1.9 1.5-2.6.8-.7 1.7-1 2.7-1 1.1-.2 2.1.4 3.1 1.7zM301.8 308.5l1.2.8c-.6 1-1.3 1.7-2 2.3a7.08 7.08 0 01-4.8 1.9c-2.1 0-3.5-.7-4.4-2.2a6.6 6.6 0 01-.8-5c.3-1.8 1.1-3.3 2.3-4.7 1.6-1.7 3.4-2.6 5.5-2.6s3.7.9 4.6 2.7c.7 1.3.9 2.8.5 4.7h-11.3c-.3 1.6 0 2.9.7 4 .7 1 1.7 1.5 3.1 1.5.6 0 1.3-.1 1.9-.4.7-.2 1.2-.6 1.7-1 .6-.4 1.1-1.1 1.8-2zm.7-3.7c0-.9-.2-1.7-.5-2.3-.3-.6-.8-1-1.4-1.4-.6-.4-1.3-.5-2.1-.5-1.2 0-2.4.4-3.4 1.3-.8.6-1.4 1.6-2 2.9h9.4zM306.9 299.2h1.7l-.4 2c.6-.8 1.3-1.4 1.9-1.8.6-.4 1.2-.6 1.8-.6.5 0 .9.2 1.3.5l-1.1 1.5c-.3-.2-.6-.2-.8-.2-.5 0-1.1.2-1.7.7-.6.5-1.1 1.2-1.6 2.3-.3.8-.7 2.4-1.2 4.8l-.9 4.7h-1.7l2.7-13.9z"/>
    <path d="M312.6 299.2h1.7l2.4 10.1 6-10.1h1.7l-8.3 13.8h-.3l-3.2-13.8zM325.9 299.2h1.6l-2.6 13.8h-1.6l2.6-13.8zm1.8-5.6c.4 0 .7.1.9.4.2.3.3.6.2 1-.1.4-.3.8-.6 1-.3.3-.7.4-1 .4-.4 0-.6-.1-.9-.4-.2-.3-.3-.6-.2-1 .1-.4.3-.8.6-1 .3-.3.6-.4 1-.4zM341.7 302.1l-1.4.9c-.8-1.6-2.2-2.4-4.1-2.4-1.5 0-2.9.5-4.1 1.6-1.2 1.1-2 2.4-2.2 4-.2 1-.1 2 .2 2.8.3.9.8 1.6 1.5 2.1s1.6.7 2.6.7c1.9 0 3.5-.8 5-2.4l1.1.9c-.8 1-1.7 1.8-2.9 2.3-1.1.5-2.3.8-3.6.8-2 0-3.5-.7-4.6-2.1-1.1-1.4-1.4-3.1-1-5.1.2-1.3.8-2.6 1.6-3.7.8-1.2 1.8-2 3-2.7 1.2-.6 2.5-1 3.8-1a5.87 5.87 0 014.1 1.5c.4.6.8 1.1 1 1.8zM344.3 299.2h1.6l-2.6 13.8h-1.6l2.6-13.8zm1.8-5.6c.4 0 .7.1.9.4.2.3.3.6.2 1-.1.4-.3.8-.6 1-.3.3-.7.4-1 .4-.4 0-.6-.1-.9-.4-.2-.3-.3-.6-.2-1 .1-.4.3-.8.6-1 .3-.3.7-.4 1-.4zM354.5 298.9c1.9 0 3.4.8 4.4 2.3.9 1.4 1.2 3.1.8 5-.4 1.9-1.3 3.6-2.8 5.1a7.39 7.39 0 01-5.1 2.2c-1.9 0-3.4-.7-4.3-2.2-1-1.4-1.3-3.1-.9-5.1.4-1.9 1.2-3.6 2.7-5 1.5-1.5 3.2-2.3 5.2-2.3zm-.4 1.7c-1.3 0-2.6.5-3.8 1.6a6.94 6.94 0 00-2.1 6.8c.3.9.8 1.5 1.4 2 .7.5 1.4.7 2.4.7.9 0 1.8-.2 2.6-.7.8-.5 1.6-1.1 2.2-2 .6-.9 1-1.8 1.2-2.8.3-1.5 0-2.9-.7-4-.8-1-1.8-1.6-3.2-1.6zM381.4 299.2l-2.6 13.8h-1.6l.4-2.4c-.8.9-1.7 1.6-2.7 2-.9.5-1.9.7-2.9.7-1.8 0-3.2-.7-4.2-2.1-1-1.4-1.3-3.1-.9-5.2.4-2 1.3-3.7 2.9-5.1 1.5-1.4 3.2-2.1 5-2.1 1 0 1.9.2 2.7.7.7.5 1.3 1.2 1.8 2.2l.5-2.5h1.6zm-6.7 1.4c-.9 0-1.8.2-2.6.7a7.67 7.67 0 00-3.4 4.9 5.29 5.29 0 001.6 4.9c.7.5 1.5.7 2.3.7.9 0 1.8-.3 2.7-.7a7.03 7.03 0 003.4-4.8c.3-1.6.1-2.9-.7-4a3.9 3.9 0 00-3.3-1.7zM392.3 294.1h1.6l-.9 5.1h2.6l-.3 1.5h-2.6l-2.3 12.3h-1.6l2.3-12.3h-2.2l.3-1.5h2.2l.9-5.1zM397 299.2h1.6l-1.2 6.5c-.3 1.6-.4 2.7-.4 3.3.1.8.4 1.5 1 2s1.3.7 2.2.7c.9 0 1.7-.2 2.4-.7.7-.5 1.3-1.1 1.6-1.9.3-.5.5-1.7.9-3.4l1.2-6.5h1.7l-1.3 6.8c-.4 1.9-.8 3.3-1.4 4.3-.6 1-1.3 1.7-2.2 2.3-.9.5-2 .8-3.2.8-1.2 0-2.2-.3-2.9-.8-.7-.6-1.2-1.3-1.4-2.3-.2-1-.2-2.5.2-4.4l1.2-6.7zM429 299.2l-2.6 13.8h-1.6l.4-2.4c-.9.9-1.7 1.6-2.7 2-.9.5-1.9.7-2.9.7-1.8 0-3.2-.7-4.2-2.1-1-1.4-1.3-3.1-.9-5.2.4-2 1.3-3.7 2.8-5.1 1.5-1.4 3.2-2.1 5-2.1 1 0 1.9.2 2.7.7.7.5 1.3 1.2 1.8 2.2l.5-2.5h1.7zm-6.7 1.4c-.9 0-1.8.2-2.6.7a7.67 7.67 0 00-3.4 4.9 5.29 5.29 0 001.6 4.9c.7.5 1.5.7 2.3.7.9 0 1.8-.3 2.7-.7a7.03 7.03 0 003.4-4.8c.3-1.6.1-2.9-.7-4a3.9 3.9 0 00-3.3-1.7zM432.6 293.9h1.6l-3.5 19.2h-1.6l3.5-19.2zM447.5 302.1l-1.5.9c-.8-1.6-2.2-2.4-4.1-2.4-1.5 0-2.9.5-4.1 1.6-1.2 1.1-2 2.4-2.3 4-.2 1-.1 2 .2 2.8.3.9.8 1.6 1.5 2.1s1.6.7 2.6.7c1.8 0 3.5-.8 5-2.4l1.1.9c-.8 1-1.7 1.8-2.9 2.3-1.1.5-2.3.8-3.6.8-2 0-3.5-.7-4.6-2.1-1.1-1.4-1.4-3.1-1-5.1.2-1.3.8-2.6 1.6-3.7.8-1.2 1.8-2 3-2.7 1.2-.6 2.5-1 3.8-1a5.87 5.87 0 014.1 1.5c.6.6.9 1.1 1.2 1.8zM462.8 299.2l-2.5 13.8h-1.6l.4-2.4c-.8.9-1.7 1.6-2.7 2-.9.5-1.9.7-2.9.7-1.8 0-3.2-.7-4.2-2.1-1-1.4-1.3-3.1-.9-5.2.4-2 1.3-3.7 2.9-5.1 1.5-1.4 3.2-2.1 5-2.1 1 0 1.9.2 2.7.7.8.5 1.4 1.2 1.8 2.2l.5-2.5h1.5zm-6.7 1.4c-.9 0-1.8.2-2.6.7a7.67 7.67 0 00-3.4 4.9 5.29 5.29 0 001.6 4.9c.7.5 1.5.7 2.3.7a5.94 5.94 0 004.8-2.7c.6-.8 1-1.8 1.2-2.8.3-1.6.1-2.9-.7-4-.7-1.1-1.8-1.7-3.2-1.7zM465.7 299.2h1.6l-.5 2.5c.8-1 1.7-1.7 2.6-2.1.9-.5 1.8-.7 2.7-.7.9 0 1.7.3 2.4.8.6.5 1 1.2 1.2 2.1.2.9.1 2.3-.2 4.2l-1.3 7.1h-1.6l1.2-6.6c.3-1.6.4-2.7.4-3.2 0-.9-.2-1.6-.7-2.1-.5-.5-1.1-.7-2-.7-1 0-1.9.4-2.8 1.1-.9.7-1.6 1.6-2 2.6-.3.7-.6 1.9-.9 3.8l-.9 5.1h-1.6l2.4-13.9zM491 302.1l-1.4.9c-.8-1.6-2.2-2.4-4.1-2.4-1.5 0-2.9.5-4.1 1.6-1.2 1.1-2 2.4-2.2 4-.2 1-.1 2 .2 2.8.3.9.8 1.6 1.5 2.1s1.6.7 2.6.7c1.8 0 3.5-.8 5-2.4l1.1.9c-.8 1-1.7 1.8-2.9 2.3-1.1.5-2.3.8-3.6.8-2 0-3.5-.7-4.6-2.1-1.1-1.4-1.4-3.1-1-5.1.3-1.3.8-2.6 1.6-3.7.8-1.2 1.8-2 3-2.7 1.2-.6 2.5-1 3.8-1a5.87 5.87 0 014.1 1.5c.4.6.7 1.1 1 1.8zM502.7 308.5l1.2.8c-.6 1-1.3 1.7-2 2.3a7.08 7.08 0 01-4.8 1.9c-2.1 0-3.5-.7-4.4-2.2-.9-1.5-1.1-3.1-.8-5 .3-1.8 1.1-3.3 2.3-4.7 1.6-1.7 3.4-2.6 5.5-2.6s3.7.9 4.6 2.7c.7 1.3.9 2.8.5 4.7h-11.3c-.3 1.6 0 2.9.7 4 .7 1 1.7 1.5 3.1 1.5.6 0 1.3-.1 1.9-.4.7-.2 1.2-.6 1.7-1s1.1-1.1 1.8-2zm.7-3.7c0-.9-.2-1.7-.5-2.3-.3-.6-.8-1-1.4-1.4-.6-.4-1.3-.5-2.1-.5-1.2 0-2.4.4-3.4 1.3-.8.6-1.4 1.6-2 2.9h9.4z"/>
    <g>
      <path class="st1" d="M706.5 298.1l10.2-4.1 3.4 4-12 10.6-15.7-9.1-23.5-6.6 10.3-12.7 18.2 9z"/>
      <path class="st2" d="M708.2 309.9l-16.2-9.4-25-6.9 11.9-14.6 19.3 9.6 8.6 8.4 10.3-4.2 4.5 5.4-13.4 11.7zm-37.5-17.5l22.2 6.2 15 8.7 10.7-9.4-2.2-2.6-10.1 4.1-9.5-9.3-17.2-8.5-8.9 10.8z"/>
      <path class="st1" d="M684.6 244.8l16.3 14.3 5.4.5 5.2-4.8 4.6 4 2.6.4 3.3 6.4-.6 4.7-15 .6-15.9-4.4-10.1-6.9z"/>
      <path class="st2" d="M706.3 272l-16.5-4.7-10.7-7.3 4.9-17.1 17.3 15.2 4.5.4 5.5-5.2 5.2 4.5 2.8.5 3.8 7.1-.8 5.9-16 .7zm-15.3-6.5l15.6 4.4 13.9-.6.5-3.5-3-5.6-2.3-.4-4.1-3.6-4.8 4.5-6.2-.6-15.2-13.3-3.6 12.4 9.2 6.3z"/>
      <path class="st1" d="M686.3 240l-1.3 24.2-4.2 13.6-8.9 13.6-23 21.7-20.9-9.6-14.1 4-5.7-3.5 21.6-12.2 16 9.2s13.1-23.5 15.2-31.6c2.1-8.2.3-15.1.3-15.1l-19.4 6.1-2.5 10.9-4.4.6-1.5-4.7-7.4 4.1s-4.5-1.3-5.7-11.6c.3 3.6 46.5-22.8 46.5-22.8l19.4 3.1z"/>
      <path class="st2" d="M649.2 314.2l-21.1-9.7-14.2 4.1-7.4-4.6 23.5-13.3 15.6 9c2.4-4.3 12.8-23.5 14.6-30.6 1.5-6.1.9-11.5.5-13.7l-17.9 5.6-2.5 11-5.9.8-1.4-4.3-6.7 3.7-.4-.1c-.2-.1-5.2-1.6-6.4-12.4l1.9-.2c0-.3-.3-.5-.4-.5 3.8 0 29.3-13.8 45.4-23l.3-.2 20.8 3.4-1.3 25.2-4.3 13.8-9 13.8-23.7 22.2zm-21-11.7l20.6 9.5 22.4-21.1 8.8-13.4 4.1-13.4 1.2-23.2-18.4-3c-5.2 3-38.7 22-45.5 23 1.1 6.8 3.6 8.8 4.6 9.3l8-4.5 1.6 5.1 3-.4 2.5-10.8L662 253l.3 1c.1.3 1.8 7.2-.3 15.5-2.1 8.2-14.7 30.9-15.3 31.9l-.5.9-16.4-9.4-19.8 11.2 4 2.5 14.2-4.1z"/>
      <path class="st1" d="M700.1 230.4c.3 7.7-5.9 13.8-13.9 13.6-8.3-.2-15.3-7-15.6-15.2-.3-8.2 6.4-14.2 14.6-13.6 8.1.7 14.6 7.5 14.9 15.2z"/>
      <path class="st2" d="M686.6 245.1h-.5c-8.9-.2-16.4-7.5-16.7-16.2-.1-4 1.3-7.8 4.1-10.5 3-3 7.2-4.5 11.8-4.2 8.6.7 15.6 7.8 15.9 16.2.1 4-1.3 7.8-4.1 10.5-2.7 2.7-6.4 4.2-10.5 4.2zm-2.6-28.8c-3.4 0-6.6 1.3-8.9 3.6-2.3 2.3-3.6 5.5-3.4 9 .3 7.6 6.8 13.9 14.6 14.2h.4c3.4 0 6.6-1.3 8.9-3.6 2.4-2.3 3.6-5.5 3.5-9-.2-7.2-6.5-13.6-13.9-14.1-.4-.1-.8-.1-1.2-.1z"/>
      <g>
        <path class="st1" d="M739.2 283.5c0 .2-.2.4-.4.4l-23.1.9c-.2 0-.4-.2-.5-.4l-1.3-38c0-.2.2-.4.4-.4l23.2.7c.2 0 .4.2.4.4l1.3 36.4z"/>
        <path class="st2" d="M715.8 285.6c-.6 0-1.1-.5-1.2-1.1l-1.3-38c0-.3.1-.6.3-.8.2-.2.5-.3.8-.3l23.2.7c.6 0 1.1.5 1.1 1.1l1.2 36.3c0 .6-.5 1.1-1.1 1.2l-23 .9zm-1-38.9l1.2 37.4 22.5-.9-1.2-35.8-22.5-.7z"/>
      </g>
      <g>
        <path class="st1" d="M713.5 255.9l4.9 5.3s-1.7.4-3 .4-4.9-2.7-4.9-2.7-.1-3 3-3z"/>
        <path class="st2" d="M715.4 262.4c-1.4 0-4.4-2.2-5.3-2.8l-.3-.2v-.3c0-.1 0-1.7 1.1-2.9.6-.6 1.5-1 2.6-1h.3l.3.2 5.7 6.1-1.1.3c-.2.1-1.9.6-3.3.6zm-4.1-3.7c1.6 1.1 3.5 2.3 4.1 2.3.5 0 1.1-.1 1.6-.2l-3.9-4.2c-.5 0-.9.2-1.3.5-.4.5-.5 1.2-.5 1.6z"/>
      </g>
      <g>
        <path class="st1" d="M714.6 247.5l3.9 5.8 16.6 1.6 3.1-7.1"/>
        <path class="st2" d="M735.6 255.6l-17.5-1.6-4.1-6.2 1.2-.7 3.7 5.5 15.7 1.6 2.9-6.7 1.3.5z"/>
      </g>
    </g>
    <g>
      <path d="M211.2 258.4L132.5 46.3h48.2l55.6 157 53.9-157h47.1l-78.8 212.1h-47.3zM327.1 179.4c0-13.5 3.4-26.6 10.4-39.2a69.78 69.78 0 0129.3-28.9c12.6-6.7 26.8-10 42.4-10 24.1 0 43.9 7.5 59.3 22.6 15.4 15.1 23.1 34.2 23.1 57.2 0 23.2-7.8 42.5-23.3 57.8-15.6 15.3-35.1 22.9-58.7 22.9-14.6 0-28.5-3.2-41.8-9.6-13.3-6.4-23.3-15.7-30.2-28-7.1-12.2-10.5-27.2-10.5-44.8zm43.2 2.1c0 15.2 3.7 26.9 11.3 35 7.5 8.1 16.8 12.2 27.8 12.2s20.2-4.1 27.7-12.2 11.2-19.9 11.2-35.3c0-15-3.7-26.6-11.2-34.7-7.4-8.1-16.7-12.2-27.7-12.2s-20.3 4.1-27.8 12.2-11.3 19.8-11.3 35zM504.6 104.7h44.9l38.1 109.1 37.2-109.1h43.7l-56.3 147.8-10 26.8c-3.7 9-7.2 15.8-10.6 20.5-3.4 4.7-7.2 8.6-11.6 11.5-4.4 2.9-9.7 5.2-16.1 6.9-6.3 1.6-13.5 2.5-21.5 2.5-8.1 0-16.1-.8-23.9-2.5l-3.7-31.8c6.6 1.2 12.5 1.9 17.8 1.9 9.8 0 17.1-2.8 21.8-8.3 4.7-5.5 8.3-12.6 10.8-21.2l-60.6-154.1zM53.2 99.9h51.3v157.8H53.2zM103.5 47.3c0 13.1-11 23.8-24.6 23.8-13.6 0-24.6-10.6-24.6-23.8 0-13.1 11-23.8 24.6-23.8 13.6.1 24.6 10.7 24.6 23.8z"/>
      <g>
        <path d="M726.9 312.9v-16.8h7.4c1.5 0 2.6.2 3.4.5.8.3 1.4.8 1.9 1.6s.7 1.6.7 2.5c0 1.2-.4 2.2-1.2 3-.8.8-2 1.3-3.6 1.6.6.3 1 .6 1.3.8.6.6 1.3 1.3 1.8 2.2l2.9 4.6h-2.8l-2.2-3.5c-.6-1-1.2-1.8-1.6-2.3-.4-.5-.8-.9-1.1-1.1-.3-.2-.7-.4-1-.4-.3-.1-.7-.1-1.2-.1H729v7.5h-2.1zm2.2-9.4h4.8c1 0 1.8-.1 2.4-.3.6-.2 1-.5 1.3-1a2.82 2.82 0 00-.5-3.5c-.6-.5-1.5-.8-2.7-.8h-5.3v5.6z"/>
      </g>
    </g>
  </g>
  <g id="Layer_3" class="st0">
    <path class="st2" d="M64.8 290.2h3.4c1.9 0 3.2.1 3.8.3 1 .3 1.7.8 2.2 1.6.5.8.6 1.9.4 3.1-.2 1-.6 1.9-1.2 2.7-.6.8-1.3 1.4-2.2 1.8-.9.4-2 .6-3.5.6l4.5 8.7h-2.1l-4.5-8.7h-1L63 309h-1.7l3.5-18.8zm1.4 1.9l-1.2 6.4h2.9c1.1 0 2-.1 2.6-.4.6-.2 1.1-.6 1.5-1.1.4-.5.7-1.1.8-1.8.1-.6.1-1.2-.2-1.7-.2-.5-.6-.9-1-1.1-.5-.2-1.3-.3-2.4-.3h-3zM89.7 295.1l-2.6 13.8h-1.6l.4-2.4c-.8.9-1.7 1.6-2.7 2-.9.5-1.9.7-2.9.7-1.8 0-3.2-.7-4.2-2.1-1-1.4-1.3-3.1-.9-5.2.4-2 1.3-3.7 2.8-5.1 1.5-1.4 3.2-2.1 5-2.1 1 0 1.9.2 2.7.7.7.5 1.3 1.2 1.8 2.2l.5-2.5h1.7zm-6.8 1.4c-.9 0-1.8.2-2.6.7-.9.5-1.6 1.2-2.2 2.1-.6.9-1 1.8-1.2 2.8a5.29 5.29 0 001.6 4.9c.7.5 1.5.7 2.3.7.9 0 1.8-.3 2.7-.7a7.03 7.03 0 003.4-4.8c.3-1.6.1-2.9-.7-4-.8-1.2-1.9-1.7-3.3-1.7zM92.5 295.1h1.6l-.5 2.5c.8-1 1.7-1.7 2.6-2.2.9-.5 1.9-.7 2.9-.7 1.8 0 3.2.7 4.2 2.1 1 1.4 1.3 3.1 1 5.1-.4 2-1.3 3.8-2.8 5.2a7.22 7.22 0 01-5 2.1c-1 0-1.9-.2-2.6-.7-.8-.5-1.4-1.1-1.9-2l-1.4 7.4H89l3.5-18.8zm6.2 1.4c-1.4 0-2.7.5-3.8 1.6a6.94 6.94 0 00-2.2 4c-.2 1.1-.2 2 .1 2.8.3.8.8 1.5 1.5 2s1.5.7 2.4.7c.9 0 1.7-.3 2.6-.7.9-.5 1.6-1.2 2.2-2.1.6-.9 1-1.8 1.2-2.8a5.29 5.29 0 00-1.6-4.9c-.7-.4-1.5-.6-2.4-.6zM107.6 295.1h1.6l-2.6 13.8H105l2.6-13.8zm1.8-5.7c.4 0 .7.1.9.4.2.3.3.6.2 1-.1.4-.3.8-.6 1-.3.3-.7.4-1 .4-.4 0-.7-.1-.9-.4-.2-.3-.3-.6-.2-1 .1-.4.3-.8.6-1 .3-.3.7-.4 1-.4zM125.3 289.8l-3.5 19.2h-1.6l.4-2.4c-.9.9-1.7 1.6-2.7 2-.9.5-1.9.7-2.9.7-1.8 0-3.2-.7-4.2-2.1-1-1.4-1.3-3.1-.9-5.2.4-2 1.3-3.7 2.9-5.1 1.5-1.4 3.2-2.1 5-2.1 1 0 1.9.2 2.7.7.7.5 1.3 1.2 1.8 2.2l1.5-7.9h1.5zm-7.7 6.7c-.9 0-1.8.2-2.6.7-.9.5-1.6 1.2-2.2 2.1-.6.9-1 1.8-1.2 2.8a5.29 5.29 0 001.6 4.9c.7.5 1.5.7 2.3.7.9 0 1.8-.3 2.7-.7a7.03 7.03 0 003.4-4.8c.3-1.6.1-2.9-.7-4-.8-1.2-1.9-1.7-3.3-1.7zM136.1 304.3l1.2.8c-.6 1-1.3 1.7-2 2.3a7.08 7.08 0 01-4.8 1.9c-2.1 0-3.5-.7-4.4-2.2-.9-1.5-1.1-3.1-.8-5 .3-1.8 1.1-3.3 2.3-4.7 1.6-1.7 3.4-2.6 5.5-2.6s3.7.9 4.6 2.7c.7 1.3.9 2.8.5 4.7h-11.3c-.3 1.6 0 2.9.7 4 .7 1 1.7 1.5 3.1 1.5.6 0 1.3-.1 1.9-.4.7-.2 1.2-.6 1.7-1s1.1-1.1 1.8-2zm.6-3.7c0-.9-.2-1.7-.5-2.3-.3-.6-.8-1-1.4-1.4-.6-.4-1.3-.5-2-.5-1.2 0-2.4.4-3.4 1.3-.8.6-1.4 1.6-2 2.9h9.3zM140.7 295.1h9.3l-9.4 12.3h6.9l-.3 1.6h-9.7l9.4-12.3h-6.5l.3-1.6zM150.7 305.5l1.4.8-3.2 4.8-1.1-.5 2.9-5.1zM168.5 296.6l-1.3 1.2c-.7-.9-1.5-1.4-2.3-1.4-.5 0-1 .2-1.5.6-.4.4-.7.8-.8 1.3-.1.5 0 .9.2 1.3s.8.9 1.7 1.5c1.1.7 1.8 1.3 2.1 2 .3.6.4 1.4.2 2.2-.2 1.1-.7 2.1-1.6 2.9a4.18 4.18 0 01-4.9.7c-.6-.3-1.1-.8-1.4-1.4l1.3-1.3c.6 1 1.4 1.5 2.4 1.5.7 0 1.2-.2 1.8-.7.5-.5.9-1 1-1.6.1-.5 0-1-.2-1.4-.2-.4-.8-.9-1.8-1.5s-1.7-1.3-2-1.9c-.3-.6-.4-1.3-.2-2.1.2-1.1.7-1.9 1.5-2.6.8-.7 1.7-1 2.7-1 1.1-.2 2.1.5 3.1 1.7zM179.7 304.3l1.2.8c-.6 1-1.3 1.7-2 2.3a7.08 7.08 0 01-4.8 1.9c-2.1 0-3.5-.7-4.4-2.2-.9-1.5-1.1-3.1-.8-5 .3-1.8 1.1-3.3 2.3-4.7 1.6-1.7 3.4-2.6 5.5-2.6s3.7.9 4.6 2.7c.7 1.3.9 2.8.5 4.7h-11.3c-.3 1.6 0 2.9.7 4 .7 1 1.7 1.5 3.1 1.5.6 0 1.3-.1 1.9-.4.6-.2 1.2-.6 1.7-1 .6-.4 1.1-1.1 1.8-2zm.7-3.7c0-.9-.2-1.7-.5-2.3-.3-.6-.8-1-1.4-1.4-.6-.4-1.3-.5-2-.5-1.2 0-2.4.4-3.4 1.3-.8.6-1.4 1.6-2 2.9h9.3zM196.2 295.1h1.6l-2 11c-.4 1.9-.8 3.4-1.2 4.3-.7 1.3-1.6 2.3-2.8 2.9-1.2.7-2.5 1-4 1-1.1 0-2-.2-2.8-.5-.8-.3-1.4-.8-1.8-1.4-.4-.6-.8-1.4-1-2.5h1.8c.3.9.8 1.6 1.5 2 .7.4 1.6.7 2.7.7s2.1-.2 2.9-.7c.8-.5 1.5-1 1.9-1.7.4-.7.8-1.8 1.1-3.3l.1-.7c-.8.9-1.6 1.5-2.6 2s-1.9.7-2.9.7c-1.2 0-2.2-.3-3.1-.9-.9-.6-1.5-1.5-1.9-2.6-.4-1.1-.4-2.2-.2-3.5.2-1.3.7-2.5 1.5-3.6s1.7-2 2.9-2.6c1.1-.6 2.3-1 3.4-1 .9 0 1.8.2 2.5.6.7.4 1.4 1.1 2 2.1l.4-2.3zm-5 1.4c-.9 0-1.8.2-2.7.7a7.03 7.03 0 00-3.4 4.8c-.3 1.5 0 2.8.7 3.8s1.8 1.5 3.3 1.5c1.5 0 2.8-.5 3.9-1.5s1.8-2.3 2.1-3.9c.2-1 .2-2-.1-2.8-.3-.8-.7-1.5-1.4-1.9-.7-.5-1.5-.7-2.4-.7zM200.3 295.1h1.6l-1.2 6.5c-.3 1.6-.4 2.7-.4 3.3.1.8.4 1.5 1 2s1.3.7 2.2.7c.9 0 1.7-.2 2.4-.7.7-.5 1.3-1.1 1.7-1.9.3-.5.5-1.7.9-3.4l1.2-6.5h1.7l-1.3 6.8c-.4 1.9-.8 3.3-1.4 4.3-.6 1-1.3 1.7-2.2 2.3-.9.5-2 .8-3.2.8-1.2 0-2.2-.3-2.9-.8-.7-.6-1.2-1.3-1.4-2.3-.2-1-.2-2.5.2-4.4l1.1-6.7zM213.5 295.1h1.7l-.4 2c.6-.8 1.3-1.4 1.9-1.8.6-.4 1.2-.6 1.8-.6.4 0 .9.2 1.3.5l-1.1 1.5c-.3-.2-.6-.2-.8-.2-.5 0-1.1.2-1.7.7-.6.5-1.1 1.2-1.6 2.3-.3.8-.7 2.4-1.2 4.8l-.9 4.7h-1.6l2.6-13.9zM220.2 295.1h1.6l-2.6 13.8h-1.6l2.6-13.8zm1.8-5.7c.4 0 .7.1.9.4.2.3.3.6.2 1-.1.4-.3.8-.6 1-.3.3-.7.4-1 .4-.4 0-.7-.1-.9-.4-.2-.3-.3-.6-.2-1 .1-.4.3-.8.6-1 .3-.3.6-.4 1-.4zM237.9 289.8l-3.5 19.2h-1.6l.4-2.4c-.8.9-1.7 1.6-2.7 2-.9.5-1.9.7-2.9.7-1.8 0-3.2-.7-4.2-2.1-1-1.4-1.3-3.1-.9-5.2.4-2 1.3-3.7 2.9-5.1 1.5-1.4 3.2-2.1 5-2.1 1 0 1.9.2 2.7.7.7.5 1.3 1.2 1.8 2.2l1.5-7.9h1.5zm-7.7 6.7c-.9 0-1.8.2-2.6.7-.9.5-1.6 1.2-2.2 2.1-.6.9-1 1.8-1.2 2.8a5.29 5.29 0 001.6 4.9c.7.5 1.4.7 2.3.7.9 0 1.8-.3 2.7-.7a7.03 7.03 0 003.4-4.8c.3-1.6.1-2.9-.7-4-.9-1.2-1.9-1.7-3.3-1.7zM252.3 295.1l-2.6 13.8h-1.6l.4-2.4c-.8.9-1.7 1.6-2.7 2-.9.5-1.9.7-2.9.7-1.8 0-3.2-.7-4.2-2.1-1-1.4-1.3-3.1-.9-5.2.4-2 1.3-3.7 2.9-5.1 1.5-1.4 3.2-2.1 5-2.1 1 0 1.9.2 2.7.7.7.5 1.3 1.2 1.8 2.2l.5-2.5h1.6zm-6.8 1.4c-.9 0-1.8.2-2.6.7-.9.5-1.6 1.2-2.2 2.1-.6.9-1 1.8-1.2 2.8-.2 1-.1 1.9.2 2.8a3.9 3.9 0 003.8 2.8c.9 0 1.8-.3 2.7-.7a7.03 7.03 0 003.4-4.8c.3-1.6.1-2.9-.7-4-.9-1.2-1.9-1.7-3.4-1.7zM268.7 289.8l-3.5 19.2h-1.6l.4-2.4c-.8.9-1.7 1.6-2.7 2-.9.5-1.9.7-2.9.7-1.8 0-3.2-.7-4.2-2.1-1-1.4-1.3-3.1-.9-5.2.4-2 1.3-3.7 2.9-5.1 1.5-1.4 3.2-2.1 5-2.1 1 0 1.9.2 2.7.7.7.5 1.3 1.2 1.8 2.2l1.5-7.9h1.5zm-7.8 6.7c-.9 0-1.8.2-2.6.7-.9.5-1.6 1.2-2.2 2.1-.6.9-1 1.8-1.2 2.8a5.29 5.29 0 001.6 4.9c.7.5 1.5.7 2.3.7.9 0 1.8-.3 2.7-.7a7.03 7.03 0 003.4-4.8c.3-1.6.1-2.9-.7-4-.8-1.2-1.9-1.7-3.3-1.7zM274.9 295.1h1.7l2.4 10.7 6.2-10.7h1.7l-11 18.9h-1.7l3.6-6.1-2.9-12.8zM299.9 296.6l-1.3 1.2c-.7-.9-1.5-1.4-2.3-1.4-.5 0-1 .2-1.5.6-.4.4-.7.8-.8 1.3-.1.5 0 .9.2 1.3s.8.9 1.7 1.5c1.1.7 1.8 1.3 2.1 2 .3.6.4 1.4.2 2.2-.2 1.1-.7 2.1-1.6 2.9-.9.8-1.9 1.2-2.9 1.2-.7 0-1.4-.2-2-.5-.6-.3-1.1-.8-1.4-1.4l1.2-1.3c.6 1 1.4 1.5 2.4 1.5.7 0 1.2-.2 1.8-.7.5-.5.9-1 1-1.6.1-.5 0-1-.2-1.4-.2-.4-.8-.9-1.8-1.5s-1.7-1.3-2-1.9c-.3-.6-.4-1.3-.2-2.1.2-1.1.7-1.9 1.5-2.6.8-.7 1.7-1 2.7-1 1.2-.2 2.3.5 3.2 1.7zM311.1 304.3l1.2.8c-.6 1-1.3 1.7-2 2.3a7.08 7.08 0 01-4.8 1.9c-2.1 0-3.5-.7-4.4-2.2a6.6 6.6 0 01-.8-5c.3-1.8 1.1-3.3 2.3-4.7 1.6-1.7 3.4-2.6 5.5-2.6s3.7.9 4.6 2.7c.7 1.3.9 2.8.5 4.7H302c-.3 1.6 0 2.9.7 4 .7 1 1.7 1.5 3.1 1.5.6 0 1.3-.1 1.9-.4.7-.2 1.2-.6 1.7-1s1.1-1.1 1.7-2zm.7-3.7c0-.9-.2-1.7-.5-2.3-.3-.6-.8-1-1.4-1.4-.6-.4-1.3-.5-2.1-.5-1.2 0-2.4.4-3.4 1.3-.8.6-1.4 1.6-2 2.9h9.4zM316.2 295.1h1.7l-.4 2c.6-.8 1.3-1.4 1.9-1.8.6-.4 1.2-.6 1.8-.6.5 0 .9.2 1.3.5l-1.1 1.5c-.3-.2-.6-.2-.8-.2-.5 0-1.1.2-1.7.7-.6.5-1.1 1.2-1.6 2.3-.3.8-.7 2.4-1.2 4.8l-.9 4.7h-1.7l2.7-13.9z"/>
    <path class="st2" d="M321.9 295.1h1.7l2.4 10.1 6-10.1h1.7l-8.3 13.8h-.3l-3.2-13.8zM335.2 295.1h1.6l-2.6 13.8h-1.6l2.6-13.8zm1.8-5.7c.4 0 .7.1.9.4.2.3.3.6.2 1-.1.4-.3.8-.6 1-.3.3-.7.4-1 .4-.4 0-.6-.1-.9-.4-.2-.3-.3-.6-.2-1 .1-.4.3-.8.6-1 .3-.3.7-.4 1-.4zM351 298l-1.4.9c-.8-1.6-2.2-2.4-4.1-2.4-1.5 0-2.9.5-4.1 1.6-1.2 1.1-2 2.4-2.2 4-.2 1-.1 2 .2 2.8.3.9.8 1.6 1.5 2.1s1.6.7 2.6.7c1.9 0 3.5-.8 5-2.4l1.1.9c-.8 1-1.7 1.8-2.9 2.3-1.1.5-2.3.8-3.6.8-2 0-3.5-.7-4.6-2.1-1.1-1.4-1.4-3.1-1-5.1.2-1.3.8-2.6 1.6-3.7.8-1.2 1.8-2 3-2.7 1.2-.6 2.5-1 3.8-1a5.87 5.87 0 014.1 1.5c.4.5.8 1.1 1 1.8zM353.6 295.1h1.6l-2.6 13.8H351l2.6-13.8zm1.9-5.7c.4 0 .7.1.9.4.2.3.3.6.2 1-.1.4-.3.8-.6 1-.3.3-.7.4-1 .4-.4 0-.6-.1-.9-.4-.2-.3-.3-.6-.2-1 .1-.4.3-.8.6-1 .3-.3.6-.4 1-.4zM363.8 294.7c1.9 0 3.4.8 4.4 2.3.9 1.4 1.2 3.1.8 5-.4 1.9-1.3 3.6-2.8 5.1a7.39 7.39 0 01-5.1 2.2c-1.9 0-3.4-.7-4.3-2.2-1-1.4-1.3-3.1-.9-5.1.4-1.9 1.2-3.6 2.7-5 1.5-1.5 3.2-2.3 5.2-2.3zm-.3 1.8c-1.3 0-2.6.5-3.8 1.6a6.94 6.94 0 00-2.1 6.8c.3.9.8 1.5 1.4 2 .7.5 1.4.7 2.3.7.9 0 1.8-.2 2.6-.7.8-.5 1.6-1.1 2.2-2 .6-.9 1-1.8 1.2-2.8.3-1.5 0-2.9-.7-4s-1.8-1.6-3.1-1.6zM390.7 295.1l-2.6 13.8h-1.6l.4-2.4c-.8.9-1.7 1.6-2.7 2-.9.5-1.9.7-2.9.7-1.8 0-3.2-.7-4.2-2.1-1-1.4-1.3-3.1-.9-5.2.4-2 1.3-3.7 2.9-5.1 1.5-1.4 3.2-2.1 5-2.1 1 0 1.9.2 2.7.7.7.5 1.3 1.2 1.8 2.2l.5-2.5h1.6zm-6.7 1.4c-.9 0-1.8.2-2.6.7a7.67 7.67 0 00-3.4 4.9 5.29 5.29 0 001.6 4.9c.7.5 1.5.7 2.3.7.9 0 1.8-.3 2.7-.7a7.03 7.03 0 003.4-4.8c.3-1.6.1-2.9-.7-4-.8-1.2-1.9-1.7-3.3-1.7zM401.6 290h1.6l-.9 5.1h2.6l-.3 1.5H402l-2.3 12.3h-1.6l2.3-12.3h-2.2l.3-1.5h2.2l.9-5.1zM406.3 295.1h1.6l-1.2 6.5c-.3 1.6-.4 2.7-.4 3.3.1.8.4 1.5 1 2s1.3.7 2.2.7c.9 0 1.7-.2 2.4-.7.7-.5 1.3-1.1 1.6-1.9.3-.5.5-1.7.9-3.4l1.2-6.5h1.7l-1.3 6.8c-.4 1.9-.8 3.3-1.4 4.3-.6 1-1.3 1.7-2.2 2.3-.9.5-2 .8-3.2.8-1.2 0-2.2-.3-2.9-.8-.7-.6-1.2-1.3-1.4-2.3-.2-1-.2-2.5.2-4.4l1.2-6.7zM438.4 295.1l-2.6 13.8h-1.6l.4-2.4c-.9.9-1.7 1.6-2.7 2-.9.5-1.9.7-2.9.7-1.8 0-3.2-.7-4.2-2.1-1-1.4-1.3-3.1-.9-5.2.4-2 1.3-3.7 2.8-5.1 1.5-1.4 3.2-2.1 5-2.1 1 0 1.9.2 2.7.7.7.5 1.3 1.2 1.8 2.2l.5-2.5h1.7zm-6.8 1.4c-.9 0-1.8.2-2.6.7a7.67 7.67 0 00-3.4 4.9 5.29 5.29 0 001.6 4.9c.7.5 1.5.7 2.3.7.9 0 1.8-.3 2.7-.7a7.03 7.03 0 003.4-4.8c.3-1.6.1-2.9-.7-4-.8-1.2-1.9-1.7-3.3-1.7zM441.9 289.8h1.6L440 309h-1.6l3.5-19.2zM456.8 298l-1.4.9c-.8-1.6-2.2-2.4-4.1-2.4-1.5 0-2.9.5-4.1 1.6-1.2 1.1-2 2.4-2.3 4-.2 1-.1 2 .2 2.8.3.9.8 1.6 1.5 2.1s1.6.7 2.6.7c1.8 0 3.5-.8 5-2.4l1.1.9c-.8 1-1.7 1.8-2.9 2.3-1.1.5-2.3.8-3.6.8-2 0-3.5-.7-4.6-2.1-1.1-1.4-1.4-3.1-1-5.1.2-1.3.8-2.6 1.6-3.7.8-1.2 1.8-2 3-2.7 1.2-.6 2.5-1 3.8-1a5.87 5.87 0 014.1 1.5c.5.5.8 1.1 1.1 1.8zM472.2 295.1l-2.5 13.8H468l.4-2.4c-.8.9-1.7 1.6-2.7 2-.9.5-1.9.7-2.9.7-1.8 0-3.2-.7-4.2-2.1-1-1.4-1.3-3.1-.9-5.2.4-2 1.3-3.7 2.9-5.1 1.5-1.4 3.2-2.1 5-2.1 1 0 1.9.2 2.7.7.8.5 1.4 1.2 1.8 2.2l.5-2.5h1.6zm-6.8 1.4c-.9 0-1.8.2-2.6.7a7.67 7.67 0 00-3.4 4.9 5.29 5.29 0 001.6 4.9c.7.5 1.5.7 2.3.7a5.94 5.94 0 004.8-2.7c.6-.8 1-1.8 1.2-2.8.3-1.6.1-2.9-.7-4-.7-1.2-1.8-1.7-3.2-1.7zM475 295.1h1.6l-.5 2.5c.8-1 1.7-1.7 2.6-2.1.9-.5 1.8-.7 2.7-.7.9 0 1.7.3 2.4.8.6.5 1 1.2 1.2 2.1.2.9.1 2.3-.2 4.2l-1.3 7.1h-1.6l1.2-6.6c.3-1.6.4-2.7.4-3.2 0-.9-.2-1.6-.7-2.1-.5-.5-1.1-.7-2-.7-1 0-1.9.4-2.8 1.1-.9.7-1.6 1.6-2 2.6-.3.7-.6 1.9-.9 3.8l-.9 5.1h-1.6l2.4-13.9zM500.3 298l-1.4.9c-.8-1.6-2.2-2.4-4.1-2.4-1.5 0-2.9.5-4.1 1.6-1.2 1.1-2 2.4-2.2 4-.2 1-.1 2 .2 2.8.3.9.8 1.6 1.5 2.1s1.6.7 2.6.7c1.8 0 3.5-.8 5-2.4l1.1.9c-.8 1-1.7 1.8-2.9 2.3-1.1.5-2.3.8-3.6.8-2 0-3.5-.7-4.6-2.1-1.1-1.4-1.4-3.1-1-5.1.3-1.3.8-2.6 1.6-3.7.8-1.2 1.8-2 3-2.7 1.2-.6 2.5-1 3.8-1a5.87 5.87 0 014.1 1.5c.4.5.7 1.1 1 1.8zM512 304.3l1.2.8c-.6 1-1.3 1.7-2 2.3a7.08 7.08 0 01-4.8 1.9c-2.1 0-3.5-.7-4.4-2.2-.9-1.5-1.1-3.1-.8-5 .3-1.8 1.1-3.3 2.3-4.7 1.6-1.7 3.4-2.6 5.5-2.6s3.7.9 4.6 2.7c.7 1.3.9 2.8.5 4.7h-11.3c-.3 1.6 0 2.9.7 4 .7 1 1.7 1.5 3.1 1.5.6 0 1.3-.1 1.9-.4.7-.2 1.2-.6 1.7-1 .6-.4 1.1-1.1 1.8-2zm.7-3.7c0-.9-.2-1.7-.5-2.3-.3-.6-.8-1-1.4-1.4-.6-.4-1.3-.5-2.1-.5-1.2 0-2.4.4-3.4 1.3-.8.6-1.4 1.6-2 2.9h9.4z"/>
    <g>
      <path class="st1" d="M715.8 293.9l10.3-4.1 3.3 4-12 10.6-15.7-9.1-23.5-6.5 10.3-12.7 18.2 9z"/>
      <path class="st2" d="M717.5 305.7l-16.2-9.4-25-6.9 11.9-14.6 19.3 9.6 8.6 8.4 10.3-4.2 4.5 5.4-13.4 11.7zM680 288.2l22.2 6.2 15 8.7 10.7-9.4-2.2-2.6-10.1 4.1-9.5-9.3-17.2-8.5-8.9 10.8z"/>
      <path class="st1" d="M693.9 240.7l16.3 14.2 5.4.6 5.2-4.9 4.7 4 2.5.5 3.4 6.3-.7 4.8-14.9.6-16-4.5-10.1-6.9z"/>
      <path class="st2" d="M715.6 267.9l-16.5-4.7-10.7-7.3 4.9-17.1 17.3 15.2 4.5.4 5.5-5.2 5.2 4.5 2.8.5 3.8 7.1-.8 5.9-16 .7zm-15.3-6.6l15.6 4.4 13.9-.6.5-3.5-3-5.6-2.3-.4-4.1-3.6-4.8 4.5-6.2-.6-15.2-13.3L691 255l9.3 6.3z"/>
      <path class="st1" d="M695.6 235.9l-1.3 24.2-4.2 13.6-8.9 13.6-23 21.7-20.9-9.6-14.1 4-5.7-3.5 21.6-12.2 16 9.2s13.1-23.5 15.2-31.6c2.1-8.2.3-15.1.3-15.1l-19.4 6.1-2.5 10.9-4.4.6-1.5-4.7-7.4 4.1s-4.5-1.3-5.7-11.6c.3 3.6 46.5-22.8 46.5-22.8l19.4 3.1z"/>
      <path class="st2" d="M658.5 310.1l-21.1-9.7-14.2 4.1-7.4-4.6 23.5-13.3 15.6 9c2.4-4.3 12.8-23.5 14.6-30.6 1.5-6.1.9-11.5.5-13.7l-17.9 5.6-2.5 11-5.9.8-1.4-4.3-6.7 3.7-.4-.1c-.2-.1-5.2-1.6-6.4-12.4l1.9-.2c0-.3-.3-.5-.4-.5 3.8 0 29.3-13.8 45.4-23l.3-.2 20.8 3.4-1.3 25.2-4.3 13.8-9 13.8-23.7 22.2zm-21-11.7l20.6 9.5 22.4-21.1 8.8-13.4 4.1-13.4 1.2-23.2-18.4-3c-5.2 3-38.7 22-45.5 23 1.1 6.8 3.6 8.8 4.6 9.3l8-4.5 1.6 5.1 3-.4 2.5-10.8 20.9-6.6.3 1c.1.3 1.8 7.2-.3 15.5-2.1 8.2-14.7 30.9-15.3 31.9l-.5.9-16.4-9.4-19.8 11.2 4 2.5 14.2-4.1z"/>
      <path class="st1" d="M709.4 226.2c.3 7.7-5.9 13.8-13.9 13.6-8.3-.2-15.3-7-15.6-15.2-.3-8.2 6.4-14.2 14.6-13.6 8.1.7 14.7 7.5 14.9 15.2z"/>
      <path class="st2" d="M696 240.9h-.5c-8.9-.2-16.4-7.5-16.7-16.2-.1-4 1.3-7.8 4.1-10.5 3-3 7.2-4.5 11.8-4.2 8.6.7 15.6 7.8 15.9 16.2.1 4-1.3 7.8-4.1 10.5a15 15 0 01-10.5 4.2zm-2.7-28.8c-3.4 0-6.6 1.3-8.9 3.6-2.3 2.3-3.6 5.5-3.4 9 .3 7.6 6.8 13.9 14.6 14.2h.4c3.4 0 6.6-1.3 8.9-3.6 2.4-2.3 3.6-5.5 3.5-9-.2-7.2-6.5-13.6-13.9-14.1-.4-.1-.8-.1-1.2-.1z"/>
      <g>
        <path class="st1" d="M748.6 279.4c0 .2-.2.4-.4.4l-23.1.9c-.2 0-.4-.2-.5-.4l-1.3-38c0-.2.2-.4.4-.4l23.2.7c.2 0 .4.2.4.4l1.3 36.4z"/>
        <path class="st2" d="M725.1 281.4c-.6 0-1.1-.5-1.2-1.1l-1.3-38c0-.3.1-.6.3-.8.2-.2.5-.3.8-.3l23.2.7c.6 0 1.1.5 1.1 1.1l1.2 36.3c0 .6-.5 1.1-1.1 1.2l-23 .9zm-1-38.8l1.2 37.4 22.5-.9-1.2-35.8-22.5-.7z"/>
      </g>
      <g>
        <path class="st1" d="M722.8 251.8l4.9 5.3s-1.7.4-3 .4-4.9-2.7-4.9-2.7-.1-3.1 3-3z"/>
        <path class="st2" d="M724.7 258.2c-1.4 0-4.4-2.2-5.3-2.8l-.3-.2v-.3c0-.1 0-1.7 1.1-2.9.6-.6 1.5-1 2.6-1h.3l.3.2 5.7 6.1-1.1.3c-.2.2-1.9.6-3.3.6zm-4.1-3.7c1.6 1.1 3.5 2.3 4.1 2.3.5 0 1.1-.1 1.6-.2l-3.9-4.2c-.5 0-.9.2-1.3.5-.3.6-.5 1.2-.5 1.6z"/>
      </g>
      <g>
        <path class="st1" d="M723.9 243.3l3.9 5.8 16.6 1.6 3.1-7.1"/>
        <path class="st2" d="M744.9 251.5l-17.5-1.7-4.1-6.1 1.2-.8 3.8 5.6L744 250l2.8-6.7 1.4.6z"/>
      </g>
    </g>
    <g>
      <path class="st2" d="M220.5 254.2L141.9 42.1H190l55.6 157 53.9-157h47.1l-78.8 212.1h-47.3zM336.4 175.2c0-13.5 3.4-26.6 10.3-39.2a69.78 69.78 0 0129.3-28.9c12.6-6.7 26.8-10 42.4-10 24.1 0 43.9 7.5 59.3 22.6 15.4 15.1 23.1 34.2 23.1 57.2 0 23.2-7.8 42.5-23.3 57.8-15.6 15.3-35.1 22.9-58.7 22.9-14.6 0-28.5-3.2-41.8-9.6-13.3-6.4-23.3-15.7-30.2-28-6.9-12.2-10.4-27.1-10.4-44.8zm43.2 2.2c0 15.2 3.7 26.9 11.3 35 7.5 8.1 16.8 12.2 27.8 12.2s20.2-4.1 27.7-12.2 11.2-19.9 11.2-35.3c0-15-3.7-26.6-11.2-34.7-7.4-8.1-16.7-12.2-27.7-12.2s-20.3 4.1-27.8 12.2-11.3 19.8-11.3 35zM513.9 100.6h44.9l38.1 109.1 37.2-109.1h43.7l-56.3 147.8-10 26.8c-3.7 9-7.2 15.8-10.6 20.5-3.4 4.7-7.2 8.6-11.6 11.5-4.4 2.9-9.7 5.2-16.1 6.9-6.3 1.6-13.5 2.5-21.5 2.5-8.1 0-16.1-.8-23.9-2.5l-3.7-31.8c6.6 1.2 12.5 1.9 17.8 1.9 9.8 0 17.1-2.8 21.8-8.3 4.7-5.5 8.3-12.6 10.8-21.2l-60.6-154.1zM62.6 95.7h51.3v157.8H62.6zM112.8 43.2c0 13.1-11 23.8-24.6 23.8-13.6 0-24.6-10.6-24.6-23.8 0-13.1 11-23.8 24.6-23.8 13.6 0 24.6 10.6 24.6 23.8z"/>
      <g>
        <path class="st2" d="M736.2 308.7v-16.8h7.4c1.5 0 2.6.2 3.4.5.8.3 1.4.8 1.9 1.6s.7 1.6.7 2.5c0 1.2-.4 2.2-1.2 3-.8.8-2 1.3-3.6 1.6.6.3 1 .6 1.3.8.6.6 1.3 1.3 1.8 2.2l2.9 4.6H748l-2.2-3.5c-.6-1-1.2-1.8-1.6-2.3-.4-.5-.8-.9-1.1-1.1-.3-.2-.7-.4-1-.4-.3-.1-.7-.1-1.2-.1h-2.6v7.5h-2.1zm2.2-9.4h4.8c1 0 1.8-.1 2.4-.3.6-.2 1-.5 1.3-1a2.82 2.82 0 00-.5-3.5c-.6-.5-1.5-.8-2.7-.8h-5.3v5.6z"/>
      </g>
    </g>
  </g>
</svg>
