<svg id="Layer_1" data-name="Layer 1" xmlns="http://www.w3.org/2000/svg" viewBox="0 0 695.66 168.72">
  <defs>
    <style>
      .cls-1{fill:#2e3192}
    </style>
  </defs>
  <path class="cls-1" d="M148.78 92.35h14.88l2.77 18h10l-16.07-92h-7.84l-16.27 92H146zm7.44-56.27h.19l3.77 33.45 2 13.3h-11.92zM207.88 111.51c4.14 0 7.57-1 10.47-3.78l5.5 9.64 6.74-5.61-7.06-11.47c4.26-10.38 4.67-25.51 4.67-36 0-16.61-.2-47.29-20.32-47.29s-20.33 30.64-20.33 47.24.21 47.27 20.33 47.27zm0-83c8.19 0 9.33 16.23 9.33 35.76 0 8-.52 16-1.14 23.43h-.21l-3.94-6.59-6.33 5.89 6.54 11.11a5 5 0 01-4.25 2c-8.2 0-9.34-16.23-9.34-35.76s1.14-35.83 9.34-35.83zM259.37 111.51c19.17 0 19.06-15.86 19.06-27.95v-65.3h-11V87.1c-.13 7.57-.79 12.9-8.43 12.9-4.52 0-7.72-2.44-7.72-14.28V18.26h-11v63.47c.03 16.6 1.57 29.78 19.09 29.78zM338.87 110.3h9.15V28.88h10.34V18.26h-30.29v10.62h10.8v81.42zM419.83 110.3l6.08-23.81a47.8 47.8 0 001.86-10.62h.2c.58 6.35 2.35 12.33 4 18.32l4.5 16.11h10l-13.6-46.75 13.62-45.29h-10l-5.19 20.51-2.65 12.69h-.19a122.58 122.58 0 00-3.93-16.84l-4.7-16.36h-9.7l13.13 45.29-14 46.75zM474 69.53c15.29.73 21.17-7.94 21.17-26.61 0-23.68-10.78-24.66-19.21-24.66h-11.75v92H474zm0-40.89h1.37c7.45 0 9.41 7 9.41 15.25 0 10.26-2.35 16-10.78 15.26zM104.62 69.53c15.28.73 21.16-7.94 21.16-26.61 0-23.68-10.78-24.66-19.2-24.66H94.82v92h9.8zm0-40.89H106c7.45 0 9.41 7 9.41 15.25 0 10.26-2.35 16-10.78 15.26zM519.8 65.26h.2l13.77 45h10.52L530.22 65.5c8.41-1.83 10.53-15 10.53-23.68 0-23.07-11.54-23.56-18.93-23.56h-12.14v92h10.12zm0-36.62h1.62c7.69-.25 8.6 7.08 8.6 15.86 0 9.28-2.63 15.14-10.22 14.53zM582.66 99.67h-15.23V68.43h13.61V57.81h-13.61V28.88h15.23V18.26h-24.24v92.04h24.24V99.67zM398.09 99.67h-15.23V68.43h13.61V57.81h-13.61V28.88h15.23V18.26h-24.24v92.04h24.24V99.67zM316.81 99.67h-15.23V68.43h13.61V57.81h-13.61V28.88h15.23V18.26h-24.24v92.04h24.24V99.67zM609.2 99.55c-3.81 0-6.74-2.07-9.67-4.76v12.33a15 15 0 0010.75 4.39c10.84 0 17.29-11.1 17.29-24 0-12.45-3.81-18.55-10.46-27l-7.42-10.13a17.4 17.4 0 01-2.73-10c0-6.35 3.32-11.84 8.69-11.84 3.32 0 5.76 1.58 8.3 3.9l.1-12.33A16.69 16.69 0 00613.7 17c-11 0-16.51 10.62-16.51 23.56 0 24.17 20.61 27.83 20.61 46.14 0 6.87-2.54 12.85-8.6 12.85zM650.68 99.55c-3.81 0-6.74-2.07-9.67-4.76v12.33a15 15 0 0010.74 4.39c10.84 0 17.29-11.1 17.29-24 0-12.45-3.81-18.55-10.45-27l-7.42-10.13a17.33 17.33 0 01-2.74-10c0-6.35 3.32-11.84 8.7-11.84 3.32 0 5.76 1.58 8.3 3.9l.1-12.33A16.72 16.72 0 00655.17 17c-11 0-16.5 10.62-16.5 23.56 0 24.17 20.61 27.83 20.61 46.14 0 6.87-2.54 12.85-8.6 12.85zM674.34 115.88h2.45v-10.4h3.63v-2.2h-9.82v2.2h3.74v10.4zM684.17 105.84l2.6 10.04h2.2l2.63-10.04v10.04h2.33v-12.6h-3.84l-2.2 8.69-2.18-8.69h-3.84v12.6h2.3v-10.04z"/>
  <path class="cls-1" d="M38.76 128.91V0H0v141.1a27.63 27.63 0 0027.63 27.62h668v-14.94h-632a24.87 24.87 0 01-24.87-24.87z"/>
  <path class="cls-1" d="M68.1 129a5.54 5.54 0 01-5.53-5.53V0H45.35v122.55a22.09 22.09 0 0022.1 22.1h628.21V129z"/>
</svg>
