<svg enable-background="new 0 0 141.1 36.2" viewBox="0 0 141.1 36.2" xmlns="http://www.w3.org/2000/svg"><path d="m74.1 10.1h4.9v18.1h-4.9zm2.4-7.3c-1.5 0-2.7 1.1-2.7 2.7s1.1 2.7 2.7 2.7 2.7-1.1 2.7-2.7-1.1-2.7-2.7-2.7zm14.8 6.9c-5.5 0-9.2 3.7-9.2 9.5 0 5.7 3.8 9.5 9.2 9.5 4.7 0 8.2-2.7 8.7-7.2h-4.3c-.6 1.8-2.2 2.8-4.3 2.8-2.8 0-4.8-2-4.8-5.1s1.9-5.1 4.8-5.1c2.1 0 3.7 1 4.3 2.8h4.3c-.5-4.5-4-7.2-8.7-7.2zm-20.3 9.5c0 5.7-3.3 9.5-8 9.5-2.3 0-4.1-.9-5.3-2.6h-.4v10.2h-4.9v-26.2h4.9v2.1h.4c1.2-1.6 2.9-2.6 5.2-2.6 4.9.1 8.1 3.7 8.1 9.6zm-4.9 0c0-2.9-1.8-5-4.4-5-2.5 0-4.4 2.2-4.4 5s1.8 5 4.4 5 4.4-2.2 4.4-5zm-20.1-15c-.9-.7-2.7-.7-2.7-.7s-.7-2.3-3.1-3c-.9-.4-1.7-.5-2.3-.5-.5 0-.5.4-.4.7 0 .4.2.7.4 1.1.2.3.4.6.7.8 1.1.9 1.7.6 2.6.9.8.2 1 .8 1 .8-.2-.2-.5-.4-.9-.5-.2-.1-.5-.1-.7-.1-.7-.1-1.4.1-2.3-.7-.3-.2-.5-.5-.7-.8 0-.1-.1-.1-.2-.1h-.1c-.3.1-.5.2-.3.6.2.5.8 1 1.5 1.3s1.6.3 2.3.5c.4.1.7.3 1 .6-.2.2-.3.5-.4.8-.1.4-.2.7-.2 1.1 0 0-6.3-2-11.1-3.5-8-2.6-13.7 3.2-17.3 7.5-6.2 7.5-10.8 5.8-12.2 5.4-.2-.1-.5 0-.6.3 0 .2 0 .4.2.5 4.5 2.9 8.9 1.6 15.5-3.4 4-3 6.2-2.9 6.2-2.9 0 4.9 2.6 4 3.1 8.8.3 2.6-.8 4.6-1.7 6.2-.3.5-.1 1.2.3 1.7 1.6 1.6 5.5 5.2 5.2 7.9 0 .2.1.4.3.5l.9.4c.5.2.9-.2.9-.7 0-1.2-.7-3.4-2.4-5.7-2.4-3.2-2.3-4.7-.3-7 1.7-2 3.5-3.4 4.2-6.7.6-3.1-.9-5.1-1.7-6v-.1h.1c1.7 1.1 2.6 3.1 2.5 5.1 1.3-.1 2.7-.4 3.9-.8.3-.1.6.1.7.3v.3c-.4 1-1 1.9-1.9 2.5-.2.2-.4.4-.4.7l-.1.7c-.1.3.1.5.4.6h.3c1.2-.6 2.2-1.4 2.9-2.5.7-1 1.1-2.1 1.3-3.3.1-.6.4-1.1.8-1.6.5-.6 1.4-1.5 2.6-2.6.6-.6 3.5.2 4.1-.3.4-.4.8-1.5.8-1.5-.1-.4-1.5-2.7-2.7-3.6zm75 5.9h-6.5l-6.1 6.6h-.4v-11.6h-4.9v23h4.9v-7.3h.4l6.1 7.3h6.6l-8.1-9.4zm16-5h-4.9v16.7c0 3.8 3.1 6.8 6.8 6.8 1.4 0 2.2-.3 2.2-.3v-4.8c-.3.1-.7.2-1 .2-1.7 0-3-1.4-3-3v-6.2h4.1v-4.4h-4.2zm-13.5 23.1h4.9v-18.1h-4.9zm2.5-25.4c-1.5 0-2.7 1.1-2.7 2.7s1.1 2.7 2.7 2.7 2.7-1.1 2.7-2.7-1.2-2.7-2.7-2.7z" fill="#ff6c0e"/></svg>