<svg xmlns="http://www.w3.org/2000/svg" height="100.027" width="674.973">
  <path d="M0 99.066L46.177 1.05h23.807v22.753h-7.68L49.344 51.45H64.8l2.016-.096 2.016-.097h1.152v47.808H58.177l6.431-13.631.672-1.44.48-1.44.384-1.248.192-1.153.192-1.056-.096-.863-.096-.768-.288-.672-.48-.576-.576-.577-.768-.384-.864-.383-1.056-.193-1.151-.288-1.44-.095h-21.12L26.88 99.066zM69.984 1.05h33.024l1.92.193 1.824.192 1.729.096 1.631.287 1.44.193 1.44.383 1.344.385 1.152.384 1.152.48.96.576.864.48.768.576.672.671.672.672.48.769.48 1.056.289.96.287 1.056.192 1.056v2.592l-.192 1.44-.287 1.536-.289 1.535-.383 1.633-.577 1.728-.672 1.727-.768 2.017-.768 1.92-.96 2.111-2.976 6.24-.96 2.017-.96 1.92-1.056 1.823-1.152 1.825-.96 1.632-1.248 1.536-1.152 1.631-1.152 1.345-1.248 1.44-1.248 1.248-1.344 1.247-1.248 1.153-1.44.96-1.344 1.056-1.44.864-1.44.767-1.152.577-1.248.576-1.344.576-1.344.48-1.44.48-1.536.48-3.072.767 1.728.288 1.44.288 1.536.385 1.248.383 1.056.385 1.056.48.768.48.672.48.48.576.48.672.288.768.288.767.192.96v2.113l-.192 1.248-.192 1.344-.288 1.247-.384 1.537-.48 1.536-.576 1.632-.672 1.824-.864 1.727-.863 1.92-6.433 13.632H69.984V51.258l.576-.095 1.729-.193 1.536-.288 1.343-.383 1.248-.48 1.056-.48 1.248-.769 1.152-.864 1.248-1.151 1.057-1.248 1.151-1.344.96-1.632 1.056-1.825.96-1.92 2.976-6.335.576-1.344.48-1.153.192-1.152.097-.96-.097-.48v-.383l-.192-.385-.096-.383-.192-.288-.288-.288-.288-.289-.288-.192-.48-.287-.672-.289-.864-.096-.96-.191-1.055-.096-1.249-.096-3.072-.096H69.984V1.05M93.696 99.066l46.08-98.016H211.2l-10.176 21.6H156.48l-8.448 18.24h41.664l-8.544 18.24h-41.76l-8.64 18.337h45.312l-10.176 21.6H93.696M174.048 99.066l46.08-98.016h19.584v22.753h-3.36L211.68 76.314h24.096l1.056-.095 1.056-.192 1.056-.192.768-.193v22.08l-2.016.385-2.592.287-2.688.288-2.688.288-2.976.096zM239.712 1.05h34.752l2.688.096 2.4.289 2.304.288 2.112.288 2.016.576 1.824.48 1.728.672 1.44.672 1.44.864 1.152.864 1.152.864.864 1.152.768 1.152.576 1.248.384 1.344.288 1.152.192 1.343.096 1.344-.096 1.632-.192 1.537-.288 1.92-.288 1.824-.576 2.016-.576 2.112-.672 2.207-.864 2.4-.864 2.4-.96 2.592-1.248 2.688-1.152 2.785-1.344 2.976-4.896 10.176-1.344 2.976-1.44 2.975-1.44 2.688-1.536 2.689-1.344 2.496-1.536 2.304-1.344 2.4-1.44 2.111-1.536 2.016-1.44 1.92-1.44 1.92-1.536 1.633-1.344 1.536-1.44 1.44-1.536 1.344-1.344 1.248-1.728 1.247-1.824 1.152-1.824 1.153-2.016 1.056-1.92.863-2.112.864-2.208.769-2.304.672-2.304.671-2.4.48-.48.097v-22.08h.192l.96-.385.96-.288.96-.288.864-.48.864-.48.768-.576.768-.576.864-.671.768-.672.672-.672.672-.864.672-.96.768-1.152.96-1.44.864-1.633 2.208-4.224 2.496-5.28 4.704-9.791L264 40.123l1.824-4.128 1.152-2.976.384-1.056.192-.865.096-.863.096-.768v-.865l-.096-.672-.096-.672-.288-.576-.288-.575-.384-.384-.384-.48-.576-.385-.576-.288-.672-.288-.672-.191-.864-.096-.864-.192h-22.272V1.05M270.048 99.066L316.224 1.05h22.656v22.753h-6.528l-13.344 28.416H333.6l3.84-.096 1.44-.096v22.272l-1.632.191-2.496.192-2.4.193-2.592.095h-21.504l-11.232 24.096zM338.88 1.05h28.128l2.304.193 2.21.192 2.014.192 1.921.191 1.919.288 1.632.384 1.632.385 1.344.383 1.248.577 1.248.48.96.576.961.672.767.672.672.672.673.96.383.96.384 1.152.29 1.248.19 1.343v1.345l-.096 1.536-.192 1.632-.287 1.824-.481 1.823-.48 1.92-.672 2.113-.864 2.112-.864 2.303-1.056 2.304-1.056 2.593-3.648 7.68-1.248 2.591-1.247 2.4-1.345 2.4-1.344 2.209-1.344 2.208-1.247 1.92-1.441 2.016-1.44 1.728-1.439 1.727-1.537 1.536-1.44 1.44-1.44 1.345-1.633 1.248-1.535 1.056-1.632 1.056-1.536.96-1.248.671-1.536.576-1.536.577-1.632.576-1.728.48-1.824.383-1.92.48-2.016.385-2.112.288-2.112.288h-.672V52.027h.288l1.536-.097 1.248-.288 1.152-.191 1.056-.193.864-.288 1.152-.576 1.152-.768 1.152-.863 1.056-1.152.96-1.153.96-1.44.96-1.536.864-1.728 3.36-7.391.768-1.536.576-1.537.384-1.344.288-1.055v-2.016l-.096-.672-.192-.385-.096-.192-.384-.48-.576-.383-.768-.288-.96-.193-1.152-.191-1.344-.096-1.44-.192H338.88V1.05M345.024 99.066l72.864-87.743v33.023l-16.703 20.16h16.703v18.145h-31.97L372.48 99.066zm72.864-87.743l8.544-10.273h40.896l-19.104 98.016H420l3.168-16.415h-5.28V64.506h9.025l7.679-40.224-16.704 20.064V11.323M548.736 61.818l-1.248 2.784-1.247 2.593-1.345 2.592-1.248 2.304-1.44 2.303-1.345 2.305-1.342 2.015-1.441 2.016-1.44 1.825-1.44 1.727-1.536 1.729-1.44 1.44-1.535 1.44-1.537 1.248-1.63 1.248-1.634 1.056-1.44.96-1.728.863-1.728.768-1.728.769-1.92.672-1.92.671-2.112.577-2.112.384-2.208.48-2.4.383-2.303.288-2.593.384-2.496.192-2.687.193h-8.929l-3.07-.097-3.074-.192-2.784-.192-2.592-.288-2.495-.48-2.305-.384-2.016-.576-1.92-.48-1.824-.671-1.632-.768-1.44-.768-1.152-.865-.96-.864-.96-1.056-.385-.48-.287-.576-.384-.576-.192-.575-.384-1.344-.288-1.537-.192-1.535v-1.824l.192-1.824.288-2.112.384-2.209.576-2.303.672-2.497.864-2.591.961-2.784 1.056-2.88 1.247-3.073 1.44-3.168 1.536-3.36 4.704-9.983 1.633-3.36 1.535-3.168 1.728-3.073 1.536-2.88 1.632-2.783 1.63-2.688 1.634-2.4 1.632-2.305 1.632-2.207 1.632-2.112 1.728-1.825 1.536-1.824 1.728-1.536 1.632-1.535 1.73-1.345 1.726-1.247 1.632-1.057 1.824-1.056 1.92-.864 2.015-.863 2.21-.768 2.207-.673 2.4-.671 2.4-.576 2.688-.576 2.688-.384 2.785-.385 2.975-.383 3.073-.193 3.071-.19 3.265-.194h6.143l2.496.097 2.4.191 2.305.193 2.207.288 2.016.287 1.92.385 1.728.288 1.632.48 1.441.48 1.44.575 1.151.577 1.152.767 1.056.673.768.864.768.768.576 1.055.577 1.153.383 1.151.29 1.345.19 1.535v1.536l-.096 1.632-.193 1.728-.383 1.825-.384 2.016-.575 2.112-.673 2.208-.864 2.303-.96 2.4-1.056 2.496-1.152 2.593-.192.287h-26.879l.863-2.016.768-1.823.481-1.729.384-1.536.095-.672v-1.248l-.095-.576V26.3l-.193-.48-.19-.384-.29-.289-.288-.383-.288-.193-.863-.48-.961-.384-1.25-.287-1.534-.288-1.728-.096-1.92-.193H523.2l-1.343.097-1.249.096-1.344.192-1.248.192-1.153.287-1.056.193-1.055.383-1.056.385-1.056.384-.96.384-.864.576-.864.576-.767.48-.768.671-.672.673-.961 1.056-.96 1.247-1.056 1.632-1.152 1.92-1.248 2.209-1.343 2.591-1.441 2.785-1.536 3.168-4.704 10.079-1.44 3.168-1.248 2.785-1.056 2.591-.864 2.21-.576 1.919-.48 1.631-.288 1.345v.96l.096.671.096.673.288.48.383.576.385.575.48.384.576.385.672.384.864.384.864.287.864.193 1.056.192 1.152.095 1.25.192 1.246.097h1.344l2.4-.097 2.208-.095 2.017-.192 1.823-.385 1.73-.383 1.44-.48 1.343-.577 1.151-.672 1.152-.864 1.152-1.055 1.056-1.248 1.056-1.44 1.056-1.633 1.153-1.92 1.056-2.111 1.056-2.305h26.879M564.96 99.066h-27.072L584.16 1.05h26.88l-46.08 98.016" fill="#d62724"/>
  <path d="M588.96 47.899l55.393-46.56h30.239L612.96 55.003l14.4 44.448h-26.688l-12.576-42.049-1.344-4.607 2.208-4.896M666.336 85.818h-.479l-1.44.097-1.249.096v9.695h1.536v-4.224h1.153l.383.097h.096V90.33h-1.632v-3.265l.576-.096h1.056zm0 13.44h-.864l-.768-.095-.864-.193-.767-.288-.769-.383-.768-.48-.673-.385-.574-.576-.577-.671-.48-.673-.384-.672-.384-.767-.288-.768-.288-.96-.096-.768v-1.825l.096-.863.288-.864.288-.769.384-.768.384-.672.48-.672.577-.671.574-.48.673-.576.768-.48.77-.288.766-.288.864-.288h.768l.864-.096v1.344h-.672l-.672.096-.672.192-.575.288-.672.288-.577.383-.48.48-.576.385-.384.576-.48.576-.287.576-.289.671-.193.672-.191.672-.095.673-.097.767.097.769.095.767.19.673.194.672.29.671.286.577.48.576.384.48.576.48.48.48.577.383.672.288.672.289.575.095.672.097.672.096zm0-7.68l.29.097h.287l.384.288.191.191.192.289.192.384.097.384.286 1.631.098.48.191.384h1.632l-.096-.287-.192-.48-.193-.673-.191-.96-.095-.48-.097-.48-.192-.383-.095-.288-.193-.385-.288-.095-.29-.192h-.285v-.192l.384-.097.287-.191.385-.192.287-.289.192-.288.19-.384.098-.384v-.48l-.097-.672-.095-.48-.288-.48-.384-.287-.48-.288-.672-.288-.863-.193h-.577v1.152h.096l.481.193.479.095.288.193.29.287.094.289.19.384v.288l-.094.384-.096.384-.192.287-.288.192-.384.193-.384.095-.48.097zm.096-9.6l.865.097h.863l.768.288.767.288.769.288.672.48.67.576.578.48.577.671.479.672.479.672.289.768.384.769.192.864.096.863.095.864-.095.96-.096.768-.192.96-.384.769-.29.767-.478.672-.479.673-.577.671-.577.576-.671.384-.672.48-.77.384-.766.288-.768.193-.863.095h-.961v-1.247h.096l.672-.096.768-.097.672-.095.576-.289.575-.288.577-.383.48-.385.576-.575.479-.48.385-.48.288-.673.288-.576.193-.671.287-.769v-2.976l-.287-.672-.193-.672-.288-.671-.288-.576-.385-.576-.479-.576-.576-.384-.48-.48-.577-.384-.575-.288-.576-.288-.672-.192-.768-.096h-.768v-1.344h.096" fill="#283c83"/>
</svg>
