<svg version="1.1" id="Layer_1" xmlns="http://www.w3.org/2000/svg" x="0" y="0" viewBox="0 0 350.98 68.93" xml:space="preserve"><style>.st2{fill:#002c42}</style><path d="M5.66 6.4H63.5s12.81-.98 19.49 8.46c0 0 5.07 3.47 4.72 17.17-.36 13.71-9.52 15.75-14.51 17.62 0 0-6.41 1.15-9.88 1.24H46.15s-10.59-.35-12.01-13.61c0 0-13.7-.89-14.15-15.57 0 0-14.33-1.07-14.33-15.31" fill="#fff"/><path d="M114.87 6.36H76.58c-4.92-2.18-9.26-2.23-9.42-2.23l-61.78.08c-1.13 0-2.05.88-2.15 1.98-.04.12-.06.24-.07.37L3.1 7.67c-.01.24-.25 6.05 4.31 10.6 2.51 2.5 5.94 4.1 10.17 4.79.71 4.03 3.42 13.85 13.07 15.84.14.03.29.04.44.04h1.58c.69 6.1 3.85 9.99 7.36 12.33l-2.64 10.47c0 1.84 1.49 3.33 3.34 3.33h63.54c1.84 0 3.33-1.49 3.33-3.33l10.62-52.06a3.344 3.344 0 00-3.35-3.32M37.03 38.94l27.41.01c1.2 0 2.17-.97 2.17-2.17s-.97-2.17-2.17-2.17l-33.12-.01c-6.09-1.39-8.39-7.63-9.21-11.16.2 0 .38.02.58.02.73 0 1.48-.02 2.24-.06l23.47-.15c1.2-.01 2.17-.99 2.16-2.19-.01-1.2-.98-2.16-2.17-2.16h-.01l-23.58.15c-6.55.36-11.34-.93-14.28-3.81-2.48-2.45-2.97-5.41-3.06-6.69l59.71-.07c.72 0 17.03.22 19.15 19.02.72 6.35-.74 11.51-4.31 15.32-5.74 6.11-15.29 7.37-20.14 7.13l-13.42-.04c-1.06-.13-10.05-1.5-11.42-10.97" fill="#d61c0d"/><path class="st2" d="M139.64 57.3V24.2h-11.68v-5.62h28.87v5.62H145.2v33.1h-5.56zM166.96 37.58h6.5c4.68 0 7-3.36 7-6.72 0-3.3-2.31-6.66-7-6.66h-8.54v32.94h-5.51V18.58h14.05c8.37 0 12.56 6.17 12.56 12.28 0 5.45-3.36 10.63-9.97 11.79l12.17 14.49H181l-14.05-16.91v-2.65zM194.33 51.57h17.9v5.56h-23.52v-38.5h23.47v5.56h-17.85v10.85h17.46v5.62h-17.46v10.91zM245.34 32.4c-1.54-6.23-7.49-8.48-12.39-8.48-7.55 0-13.39 5.89-13.39 13.99 0 8.15 5.84 14.16 13.39 14.16 4.74 0 9.81-2.2 12.12-7.82H230.8v-5.56h20.77c-.28 3.25-.55 5.4-1.05 6.67v-.06c-2.64 7.38-10.58 12.12-17.57 12.12-10.8 0-18.95-8.15-18.95-19.5 0-11.4 8.32-19.56 18.95-19.56 7.38 0 16.31 3.8 18.34 14.05h-5.95zM285.27 32.4c-1.54-6.23-7.49-8.48-12.39-8.48-7.55 0-13.39 5.89-13.39 13.99 0 8.15 5.84 14.16 13.39 14.16 4.74 0 9.81-2.2 12.12-7.82h-14.27v-5.56h20.77c-.28 3.25-.55 5.4-1.05 6.67v-.06c-2.64 7.38-10.58 12.12-17.57 12.12-10.8 0-18.95-8.15-18.95-19.5 0-11.4 8.32-19.56 18.95-19.56 7.38 0 16.31 3.8 18.34 14.05h-5.95zM299.31 23.92c3.53-3.58 8.48-5.84 13.88-5.84 5.45 0 10.36 2.26 13.94 5.84 3.47 3.58 5.73 8.48 5.73 13.94s-2.26 10.36-5.73 13.94c-3.58 3.64-8.48 5.84-13.94 5.84-5.4 0-10.36-2.2-13.88-5.84-3.47-3.58-5.73-8.48-5.73-13.94s2.26-10.36 5.73-13.94zm23.85 3.97c-2.59-2.59-6.17-4.19-9.97-4.19-3.8 0-7.33 1.6-9.86 4.19a14.079 14.079 0 00-4.13 9.97c0 3.91 1.6 7.44 4.13 9.97 2.53 2.59 6.06 4.19 9.86 4.19s7.38-1.6 9.97-4.19c2.48-2.53 4.08-6 4.08-9.97 0-3.97-1.6-7.44-4.08-9.97z"/><g><g id="_x38_1bvMl_2_"><path class="st2" d="M340.99 25.67c-3.83-.04-6.97-3.22-7.02-7.09-.04-3.79 3.13-6.96 6.97-6.98 3.87-.02 7.13 3.26 7.1 7.12-.03 3.83-3.23 6.99-7.05 6.95zm6.04-7.07c-.02-3.47-2.64-6.05-6.17-6.05-3.33 0-5.91 2.66-5.89 6.08.02 3.37 2.68 6.05 6.03 6.07 3.42.03 6.05-2.62 6.03-6.1z"/><path class="st2" d="M345.61 22.01c-1.49.39-2.27.02-2.9-.84-.37-.51-.85-.94-1.25-1.43-.39-.47-.9-.43-1.37-.32-.57.14-.28.67-.33 1.03-.04.36-.03.73-.01 1.09.03.49-.22.62-.66.6-.39-.02-.73-.01-.73-.55.01-2.09.01-4.18.01-6.26 0-.37.13-.62.55-.59 1.26.1 2.54-.18 3.78.27.75.27 1.26.72 1.37 1.52.12.82-.08 1.61-.83 1.99-.83.42-.7.75-.12 1.25.78.68 1.54 1.38 2.49 2.24zM339.76 17c-.06.75-.15 1.43.96 1.32.93-.09 1.9-.04 1.91-1.34.01-1.21-.92-1.07-1.74-1.16-.99-.11-1.33.28-1.13 1.18z"/></g></g></svg>