<svg xmlns="http://www.w3.org/2000/svg" viewBox="0 0 144 171.4">
  <path fill="none" d="M-59.4-59.4h262.8v290.2H-59.4z"/>
  <path d="M72 171.4c-4.5-1.9-40.9-17.8-52.6-27.5C6.7 133.5 0 118.6 0 100.8V16C20 5.4 44.2 0 72 0c27.8 0 52 5.4 72 16v84.8c0 17.8-6.7 32.8-19.4 43.1-11.5 9.5-48.4 25.7-52.6 27.5zm39.7-9.4c1.1 0 1.5.7 1.5 1.3 0 .6-.4 1-1 1.2.1.2 1.3 1.9 1.3 1.9h-1s-1.1-1.8-1.2-1.8h-.1v1.8h-.8V162h1.3zm-.4.6v1.3h.1c.9 0 1-.3 1-.7 0-.3-.1-.6-.8-.6h-.3zm.5-1.4c-1.6 0-3 1.3-3 3 0 1.6 1.3 3 3 3s3-1.3 3-3c-.1-1.7-1.4-3-3-3zm3.6 3c0 2-1.6 3.6-3.6 3.6s-3.6-1.6-3.6-3.6 1.6-3.6 3.6-3.6c2-.1 3.6 1.6 3.6 3.6z" fill="#febe10"/>
  <path d="M6.6 100.8c0 15.8 5.8 29 16.9 38 9.8 8 40 21.6 48.5 25.4 8.4-3.7 38.5-17.2 48.4-25.4 11.2-9.2 17-22.1 17-38v-83C95.5 13.9 45.9 16.3 6.6 52.3v48.5zm6.4-5.1V56.3h12.5v39.9c0 3.6.9 8.8 6.6 8.8 2.5 0 4.6-.6 5.9-1.5V56.3h12.5v54.4c-4.8 3.3-11.2 5-18.9 5-12.3 0-18.6-6.7-18.6-20zm56.5 45.5H57V59.5c4.5-2.9 10.1-4.5 16.9-4.5 15 0 23.2 11.3 23.2 29.6s-8 30.8-21.9 30.8c-2.6 0-4.4-.3-5.6-.7v26.5zm0-75.1c1-.5 2.7-.9 4.4-.9 7.3 0 10.3 5.8 10.3 19.8 0 13.7-3.4 20.3-10.7 20.3-1.7 0-3.2-.4-4.1-.8V66.1zm30.4 5.3c-.1-10.1 8.6-16.1 16.8-16.3 6.9-.2 11.5 2.4 13.7 4.1V70c-2.6-2.7-6.8-5.1-11.2-5.1-3.5 0-7.2 1.5-7.4 6-.1 4.6 3.6 6.4 8.2 9.1 10.5 6.2 12.5 11.7 12.3 19-.2 8-5.8 16.8-18.1 16.8-5 0-9.8-1.5-13.8-3.9v-11.5c3.2 2.8 8 5.1 12 5.1 4.6 0 7.6-2.6 7.5-7-.1-3.9-2.3-6.1-7.8-9.3-10.3-6.2-12.2-11.1-12.2-17.8z" fill="#371400"/>
</svg>
