<svg version="1.1" id="Layer_1" xmlns="http://www.w3.org/2000/svg" x="0" y="0" viewBox="0 0 537.8 152" xml:space="preserve">
  <style>
    .st1{fill-rule:evenodd;clip-rule:evenodd;fill:#0076ff}
  </style>
  <g id="Design-7">
    <path id="background" fill="none" d="M0 0h537.8v152H0z"/>
    <g id="Logo-compuesto" transform="translate(94.000000, 128.000000)">
      <g id="Page-1" transform="translate(157.000000, 38.000000)">
        <path id="Fill-1" class="st1" d="M-91.7-106.3v11.4h24.6l-24.6 26.6v11.4h41.4v-11.4H-75l24.7-26.6v-11.4z"/>
        <g id="Group-11" transform="translate(74.469787, 0.398378)">
          <path id="Fill-2" class="st1" d="M22.2-69.6c-6.6 0-12-5.6-12-12.4 0-6.9 5.4-12.4 12-12.4s12 5.6 12 12.4c0 6.9-5.4 12.4-12 12.4m2.1-37.9c-.7-.1-1.4-.1-2.1-.1-5.6 0-10.7 1.9-14.8 5.2v-22.1H-6.1v67.2H7.4v-4.2c4.1 3.2 9.2 5.2 14.8 5.2.7 0 1.4 0 2.1-.1C37-57.6 46.9-68.6 46.9-82s-10-24.4-22.6-25.5"/>
          <path id="Fill-4" class="st1" d="M-55.4-106.7V-82c0 6.4-5 11.6-11.2 11.6S-77.7-75.6-77.7-82v-24.7h-13.5V-82c0 14.1 11 25.6 24.7 25.6 13.6 0 24.7-11.5 24.7-25.6v-24.7h-13.6z"/>
          <path id="Fill-6" class="st1" d="M113-106.7V-82c0 6.4-5 11.6-11.2 11.6S90.6-75.6 90.6-82v-24.7H77.2V-82c0 14.1 11 25.6 24.7 25.6 13.6 0 24.7-11.5 24.7-25.6v-24.7H113z"/>
          <g id="Group-10" transform="translate(251.858493, 0.000000)">
            <path id="Fill-8" class="st1" d="M-77.9-124.5v17.8h-13.4v11.4h13.4v38h13.5v-67.2z"/>
          </g>
        </g>
        <ellipse id="Oval" class="st1" cx="278.4" cy="-100.7" rx="6.7" ry="6.9"/>
      </g>
      <path id="Combined-Shape" class="st1" d="M30.9-83.5L-29.2 20l-61.6-35.4 30.5-52.5 32 18.4 59.2-34zM5.4-30.1l27.2 15.6-54.4 31.3L5.4-30.1zm-97.1-55.8l27.2 15.6-27.2 46.9v-62.5zm63.4-39.1l60.9 35-60.9 35-60.6-34.8-.3-.2 60.9-35z"/>
    </g>
  </g>
</svg>
