<svg id="Layer_1" data-name="Layer 1" xmlns="http://www.w3.org/2000/svg" viewBox="0 0 268.58 253.19"><defs><style>.cls-2{fill:#acddfc}</style></defs><g id="Logo"><g id="Upper_Shape" data-name="Upper Shape"><path id="Upper_Shape-2" data-name="Upper Shape" d="M268.82 110.47a127.5 127.5 0 00-5.05-17.14A126.52 126.52 0 0032.92 79.19c.41.46.83.91 1.28 1.37 6.36 6.57 16.2 13.07 28.45 18.82a90.93 90.93 0 01167.76 6.38 91.77 91.77 0 014.6 17.41c-23.37 5.17-53.2 6.71-85.48 3.51-34.65-3.44-65.88-11.74-88.93-22.52-12.87-6-23.2-12.82-30.14-20-6.77-7-10.34-14.31-9.91-21.61.46-7.89 5.54-14.91 14.21-20.75-19 9.2-30.64 21.64-31.5 36.29-.7 11.91 5.82 23.81 17.8 34.72 8.53 7.76 19.82 15 33.25 21.43 25.69 12.28 59.22 21.47 96.19 25.14 30.64 3 59.37 1.87 83.58-2.64a164.49 164.49 0 0037.46-11.22 125.51 125.51 0 00-2.72-35.05z" transform="translate(-3.21 -10.9)" fill="#1b8ce0"/></g><g id="Globe"><path class="cls-2" d="M97.5 110.85a1.41 1.41 0 00-.3.57v.16h.16c.46-.14.58-.46.64-1v-.13h-.27a1.75 1.75 0 01-.23.4z" transform="translate(-3.21 -10.9)"/><path class="cls-2" d="M100.54 111.49v-.15h.12v-.1c0-.11 0-.22-.08-.33v-.08h-.07v-.29a2.66 2.66 0 01.71-.21v.07a.34.34 0 00.38-.24h.68v-.19a2.81 2.81 0 00.33-.88v-.12h-.1c.31-.17.31-.27.33-.8v-.07h-.08a1.15 1.15 0 00-.43 0h-.17v.12h-.26c-.21.35-.21.35-1 .58h-.06v.2h-.29v.14a2 2 0 01-.58.1h-.34a1.12 1.12 0 00-.5.2v.07l-.38.06v.43h.15a1.74 1.74 0 01-.11.18 1.12 1.12 0 01-.39.28v.57l-.5.29c-.92.51-.93.52-1.21 1a.81.81 0 01-.41.38h-.07v.08l.06.16-.14.1-.24.31v.18a1.15 1.15 0 00-.34.93v.12l.5-.09H96v-.08c.1 0 .19 0 .34-.09v-.09l1-.18V114l.09-.2.39-.06v-.05l.08-.21h.19l.19-.34h.11v-.06a.37.37 0 00-.07-.38l.07-.24h.41v-.16l.33-.16h.06v-.06a1.3 1.3 0 000-.38.75.75 0 00.33-.18v-.08h.29v-.08l.38.08zM112.84 92.28h-.23v.7l.47-.08v-.23a.29.29 0 01-.08-.07.28.28 0 00-.16-.32zM74.56 89a.16.16 0 00.1.09h.06l.08-.09h.11l.09-.14v-.08a.67.67 0 00.06-.12 2.09 2.09 0 01.08-.23l.07-.11v-.16a.89.89 0 00.11-.41c.14-.23.18-.29.18-.37v-.23l-.17.24-.24.34a.46.46 0 000 .22c-.28.42-.43.68-.29.85-.24.04-.27.11-.24.2zM140.11 52.12h8.58V52H140.05v.19zm.44-.21zM165.55 56.11l-.19-.08a1.57 1.57 0 00-.43-.1H164.58v.18a2.7 2.7 0 01.6.29l.43.16h.23l.09-.09-.06-.07a1.24 1.24 0 00-.23-.15v-.07h-.05zM160 55.77h.13l.14.06a1.39 1.39 0 00.69.21v-.11h.34l-.34-.13-1-.33h-.39a.11.11 0 00-.1.11c0 .05 0 .09.09.12a3 3 0 00.44.07zM163.29 56.07l-.59-.23a.59.59 0 00-.26 0v.18l.33.11a.8.8 0 01.15 0zM195.85 119.13l-.08-.08-.05-.17h-.25v.28a1.64 1.64 0 000 .22 1.38 1.38 0 000 .29v.14l.13-.07a.94.94 0 00.17-.11l.09-.12.07-.09h.05v-.06a.14.14 0 010-.06.6.6 0 00-.13-.17zM199.73 103.37l-.1-.27-.28-.07h-.19l.2.47zM144 198.24l-.43.07v.06c0 .11-.05.22-.07.32h-.13l.08.26h.66l-.08-.65zM133.29 52.75h.24v-.19H133.11v.19zM135.31 52.53v.19h.8a.08.08 0 00.07 0h.45v.06h-1.13v.29h.91v-.09H136.74v-.08a.81.81 0 01.39 0h.44l.45.07v-.15.18-.1h.08v.12H138.76l.33.09h.34v-.19l-.51-.06h.1v-.06H139.86v-.15h.25a3.82 3.82 0 001 .1.18.18 0 00.08-.05l.11-.12h-.31s-.74-.07-.83-.06-.05 0-.68-.07v-.1h-2v.19h.15v.05a1 1 0 00.42 0 1.33 1.33 0 01.2 0h.17v.07h-.76v.12H136.71 137.28l.19-.05-.12-.11h-2.09zm2.56.31zM94.55 74.92l.31-.14a1.6 1.6 0 00.38-.32c.19.06.3 0 .35-.05v.06a3.33 3.33 0 01.56-.29.84.84 0 00.19-.18 4.4 4.4 0 001.07-.52l.14-.09L98 73a1.44 1.44 0 00.57-.25h.06l.08-.12.29-.23h.23l.45-.19a7.08 7.08 0 00.68-.32c.24-.07.3-.1.33-.15l.26-.19a.16.16 0 000-.09 1.37 1.37 0 01.4-.23l.1-.12.07-.1c.12-.08.24-.16.37-.23a1.56 1.56 0 00.72-.65l.08-.16.4-.1a2.91 2.91 0 00.32-.35l.15-.19h-.15l.16-.13.66-.73h-.16c.08-.14.15-.29.21-.41a.24.24 0 000-.23l.15-.15-.07-.1a.39.39 0 00.06-.19h.1l-.08.17.51-.09.07-.08.13-.11.08-.08v-.06a.53.53 0 00-.06-.13l.1-.08a3 3 0 00.35-.27l.2-.18h-.19a1.14 1.14 0 00.23-.13h.06v-.07a1 1 0 01.08-.11l.13-.1a.69.69 0 00.13-.11l.11-.1h-.24l.18-.15.25-.22-.35.06.08-.06-.07-.08h-.06.15l-.06.06h.27a.19.19 0 00.19 0l.27-.1.07-.05h.13l.2-.13.06-.06h.31v-.06.1l-.14.2h.25l-.11.23h.07a.14.14 0 000 .09 1.3 1.3 0 00-.1.15l-.13.18h.13a.82.82 0 00-.11.23c-.39.43-.44.49-.41.64l-.28.36h.09l-.06.12h.14a.53.53 0 01.16 0 .66.66 0 00.32.05.84.84 0 00.39-.21 1.71 1.71 0 000 .31l-.21.29h.11v.13l.68-.12.23-.22h.06l.1-.15a4.3 4.3 0 011.22-1 .39.39 0 00.11-.06 1.22 1.22 0 00.25-.4 1.63 1.63 0 01.09-.19v-.15a1.77 1.77 0 01.16-.22l.14-.19c.16-.16.31-.33.47-.5l.19-.2h-.16a5.23 5.23 0 00.53-.66l.12-.18.13-.14c.19-.17.33-.31.49-.48l.08-.08-.1-.06h-.07l.16-.18h.26l.1-.11h-.07v-.06l-.26.05.06-.06h-.12l.06-.06h-.35v-.06l-.13-.08-.1.1a7.13 7.13 0 01-1.12.58 1.54 1.54 0 00-.57.25h-.11v-.07h-.07a.27.27 0 00-.09-.12.57.57 0 01.13-.08l.15-.1.07-.06.2.16.24-.23-.02-.51-.12.06.25-.2h-.18L111 62h-.13l.17-.07a.18.18 0 00.13 0l-.08.12.47-.08a1.13 1.13 0 01.31-.2h.12l.06-.06.3-.27.24-.22h-.19l.23-.2.11-.16a.56.56 0 00.12-.23l.21-.17.12-.11v-.05l.18-.13h.06s.06 0 .29-.17l-.16.16v.06l-.07.06-.25.22v.06a1.11 1.11 0 000 .17v.16l.17-.14.12-.11H113.74c.14 0 .18 0 .38-.14a.16.16 0 00.12 0c.07 0 .15-.06.39-.27h.07l.17-.16a3 3 0 00.31-.2h.16l.06-.06a.8.8 0 00.16-.13v-.08l.22-.19h-.12.06-.13l.07-.08h-.19l.07-.06.12-.15.15-.14h-.11l.08-.08h-.12v-.06l.06-.06.22-.21h-.1c.07-.07.08-.08.09-.11v-.08l.06-.09h-.12a.49.49 0 00-.21 0l.18-.13h-.19l.5-.26.57-.27.17-.11.24-.13.28-.14c.32-.15.44-.22.57-.29h.06c.3-.1.33-.11 1.24-.49l.42-.2.27-.14h-.16.16a.75.75 0 00.2 0l.3-.13.26-.11.34-.14.37-.16.15-.06.64-.18.24-.1.26-.08.25-.09h.28l.31-.14v-.18l.47-.13h.14l.9-.26h.32l.85-.2.29-.06.33-.07.45-.09v-.09.09h.05v-.19h.63-.19l-1.6.32-.31.07-.4.09h-.13l-.28.06h-.15l-.35.08-.42.1-.35.08-.57.13-.81.2-.54.13-1.05.28-.75.2-.25.08-2 .59-1.08.33h-.1l-.28.1-.35.12h-.23l-.35.12h-.08l-.27.08-.74.26h-.1l-.45.16-.61.23-.22.08-1.2.46-.46.18h-.13l-.93.38-.27.12-.68.29-.47.21-1.24.55-.21.09-.53.25h-.32l-.27.12h-.34l-.55.26a3.59 3.59 0 01-.34.17l-.22.11-.63.32-.18.09-.36.18-.37.19h-.11l-.6.32-.51.27-.3.16.07.12-.33.2-.6.35-.38.25-.17.11a1.78 1.78 0 00-.18.12l-.28.18a.71.71 0 00-.18.08 1.31 1.31 0 00-.26.18 1.23 1.23 0 00-.26.19l-.12.08-.17.09-.12.06-.21.13v.05l-.19.11L98 65l-.31.19-.18.13-.39.27-.26.18-.17.13-.43.31c-.13.1-.26.2-.4.29l-.25.17a.34.34 0 00-.12.12l-.22.16-.14.09-.43.31-.44.31a2.21 2.21 0 00-.45.25l-.52.37-.34.24-.43.31a11 11 0 00-.93.71l-.18.14.08.13a3 3 0 00-.42.35l-.25.22.4-.07.19-.16-.16.21a.75.75 0 00-.09.09h-.09l-.47.39a.78.78 0 01-.11.17h-.1a.47.47 0 01.13-.18l.2-.17h-.27c-.28 0-.36 0-.4.08l-.19.13-.36.31-.21.18-.26.23h.15l-.23.23a24.75 24.75 0 00-2.45 2l-.1.1.17.06a.41.41 0 01-.1.09h-.21l-.36.38H86.32l.08-.08h.12l.09-.09c.16-.13.37-.29.54-.4l.13-.1-.06.06v.07l-.28.24-.15.15h-.15l-.46.44a.88.88 0 00-.15.17l-.21.22a.31.31 0 00-.09.12l-.17.19-.24.25-.08.05.46-.47h-.38v.36h-.13a2.63 2.63 0 00-.39.35l-.17.12a1.87 1.87 0 00-.34.28L84 77a1.7 1.7 0 00-.21.18l-.14.26c-.28.09-.31.12-.84.61-.29.28-.42.43-.55.56l.06.06-.08.09L82 79a.93.93 0 00-.17.21l-.21.24-.12.14a.67.67 0 00-.06.17l-.22.25v.06l-.17.17a1 1 0 01-.17.14l-.2.27-.35.41a2.48 2.48 0 00-.32.33c-.07.14-.11.22-.08.28l-.12.09-.5.61.26-.07a2.42 2.42 0 00-.2.26v.06a.81.81 0 01-.18.12h-.1l-.07.1a6.42 6.42 0 01-1 1.06l-.14.18-.44.55L77 85l-.07.09-.16-.09-.13.08h-.08l-.29.38-.14.19-.28.39v.08a.71.71 0 00-.07.22v.3l.2-.24c.08-.09.15-.18.23-.26h.11a.29.29 0 01.07-.08h.11a2.51 2.51 0 01.28-.29 1.89 1.89 0 00.2-.2l-.43.62a.74.74 0 01-.16.32.84.84 0 00-.2.49v.06h.06l-.13.18a3.28 3.28 0 01-.2.31l-.12.18h.26c-.11.17-.2.35-.29.52a6.2 6.2 0 01-.42.75l.14.13.16-.14a.53.53 0 00-.09.2v.05h.07l-.16.18-.19.26.09.08a.16.16 0 000 .08l-.6.77.28-.12a.94.94 0 00-.21.23l-.1.18h.16l-.27.42.06.06v.09h-.07l-.22.53-.1.17.38-.06.18-.31h.06l.18-.21a.16.16 0 00.19 0h.06l-.17.3h.32a2.22 2.22 0 00-.15.23l-.11.18h.31a2.58 2.58 0 00.25-.3l.07.06a2.88 2.88 0 00-.41.46 3.16 3.16 0 00-.23.31l.14.12.14-.13a.14.14 0 010 .06v.1l.13.11v.11h.17v.13a.21.21 0 00-.08-.12h-.1l-.06.09a1.89 1.89 0 00-.26.51l-.06.15.38-.06.05-.11.14-.28.47-.4a.69.69 0 010-.18h.24v-.08a1.83 1.83 0 010-.34c.1-.15.24-.36.38-.54a.39.39 0 010-.17l.09-.16h.09l.05-.1a7.74 7.74 0 011-1.36l.32-.56.42-.56.13-.17.19-.31h-.1a.09.09 0 000-.05c.15-.21.33-.41.5-.61a5.86 5.86 0 00.54-.67l.12-.18h-.11l.17-.23a.23.23 0 00.23.09 6.15 6.15 0 01.75-1.16v-.09l.19.19.06-.11.43-.7.14-.2c.15-.17.35-.4.5-.59l.09-.1-.26-.1h.08c.4-.13.41-.15.81-.66a.62.62 0 00.1-.22 8 8 0 01.81-1 7.94 7.94 0 00.74-.89l.31-.06a.56.56 0 00.23-.16h.32a.42.42 0 00.14-.09h.07l.26-.24v.06a2.41 2.41 0 01-.13.33l-.14.19.3-.06.47-.45.46-.53-.09.15a.16.16 0 000 .16.1.1 0 00.12 0l.32-.38.22-.2a.83.83 0 00.08-.18h.13l.08-.1a2.78 2.78 0 00.46-.45c.13-.15.16-.18.15-.18a2.38 2.38 0 01.38-.32 2.6 2.6 0 00.87-.69 1.59 1.59 0 00.25-.18 3.87 3.87 0 001.09-.81 3.1 3.1 0 00.3-.33A9.73 9.73 0 0093 75.56c0-.07.06-.14 0-.2l.14-.22.08-.1a.89.89 0 01.05.22l-.15.19.59-.1.06-.08a.23.23 0 00.2-.12 1.79 1.79 0 00.5-.31zM113 60.18l.11-.06.11-.06.32-.22h.24l-.12.12-.22.14-.2.17a1 1 0 00-.3.2l-.06-.06zm-2.25 1.76v.07h-.05zm-.51.46l-.11.15v-.06zm-.15.28h-.11l-.06.06zM106.4 65zm0-.06zm-1.81 2zm0 .25h.07zm.17-.93l.06-.07-.06-.06v.05-.06a.76.76 0 00.16-.06.5.5 0 00.08-.06l.09-.06V66h.16a.38.38 0 00-.2.18l-.06.08a2.22 2.22 0 00-.4.41l-.07.07h.06l-.07.07a1.15 1.15 0 00-.19-.15 1.12 1.12 0 00.46-.39zm-3 1.66l.06.07.28-.1.07-.07h.1l-.09.1h-.07l-.07.07-.43.07zm-1.12 1.78zm-.14-.52zm.11.74a.14.14 0 000-.07h.17a1.05 1.05 0 00.44-.18c.08 0 .08 0 .5-.56l.16-.19h-.24l.09-.05.38-.07.24-.3a.22.22 0 000-.2v-.09h.3c-.45.94-.47 1-.4 1.38l-.2.26.27-.07a1 1 0 00.3-.11h.08l-.15.19-.35.1-.2.04.06-.07h-.25l.17-.2h-.35c-.22 0-.3 0-.35.06h-.11c-.19.15-.23.15-.26.16v.07h-.14l-.06.06h-.22a2.23 2.23 0 00.15-.15zm-25 23.55zm1.86-8.57l-.26.36c0-.08.15-.2.34-.45a.41.41 0 00-.06.1zm9.94-5.37a.44.44 0 01.08-.11l-.06-.07h.08a.94.94 0 00.16-.14zM88.59 73a1.12 1.12 0 01-.18.15l-.82.76c.14-.15.37-.39 1.09-1.18l.06.08h.09zm3.1-2.73zm.44-.49l-.2.13h.06-.26l.12-.07.17-.13h.1v.08z" transform="translate(-3.21 -10.9)"/><path class="cls-2" d="M133.84 52.73h1.44v-.19H133.77v.19zM134.12 54.76l.17-.07h.11l.14-.06.16-.07-.25-.16h-.15a.45.45 0 00-.31 0 .17.17 0 00-.12.06h-.2l.33.23zM128.08 54.77a.09.09 0 00-.09 0 1.33 1.33 0 00-.13.35v.16h-.14v.56h.06v.12h.33v.09h.28v.53h.12v.26a.47.47 0 010 .16v.1h.53v.13h.28a.56.56 0 00.17-.06c.12.23.15.27.23.32v.1h.21v-.1h.07l.11-.06v-.06l-.1-.26.37-.06a.84.84 0 01.06-.14.63.63 0 00.1-.25.3.3 0 00.21-.11v-.32l.1-.06h.07l-.2-.29-.05-.12v-.07l.16.07a1.76 1.76 0 00.33.07V56h.15a.09.09 0 00.08 0h-.08l.06.08.12.15h.09v.06a.49.49 0 000 .24v.1h.09l.25-.12.23-.11.11.2.08-.06.23-.06h.33v-.06l.12-.06.37-.06-.07-.09h.05l-.2-.27h-.08a.25.25 0 00-.19 0h-.12l-.08-.06h-.05c-.08 0-.08 0-.18-.11h-.41v.08H132l-.05-.07h.1l-.07-.09a.5.5 0 00-.27-.2h-.43a.38.38 0 00-.3-.19h-.48c-.11-.33-.3-.33-.35-.31l-.06-.13.05.07h.28c0 .07.05.08.19.18H130.82l.23-.07h.72a6.19 6.19 0 00.66-.09.23.23 0 00.15-.11h.18l-.18-.13.16-.1.05-.05v-.07h.1l-.16-.17v-.07a.25.25 0 00-.08-.1h-.2c-.28 0-.28 0-.37-.07h-.05l-.12.06-.17-.11v.13l-.13-.07-.1-.05h-.23l.1.09h-.18l-.32.07.14.08H130.6l-.07-.05H130.41L130 54l.09.13h-.51l.07.14c.06.11.09.14.18.16l.11.15h.06v-.05h-.08l-.12-.08v-.07h-.09a.16.16 0 00-.11.07l-.09-.14h-.19v.07s0 .16-.2.25h-.06V54.78a1.27 1.27 0 01-.07-.12v-.1H128.75v-.07h-.53zm-.28.56zm.06.43a.25.25 0 010-.09v-.06h.07v.12s-.07.04-.07.03zm.06.1zm0 0zm3-.34zm-1.19.7h-.08c.09.03.09.03.11.05zm-1.27-.37h.3v-.14h.06c.01 0 0 .07 0 .12v.09l.33-.06v.08a1.41 1.41 0 01-.28 0h-.07V56a.19.19 0 00-.11.08V56h-.26zM133.62 55l.11.06.47-.07-.28-.12h-.16l-.1-.06h-.06l-.2.13zM150.1 53.62h.24a.28.28 0 00.11.07v.05h-.24l.21.14h-.11a2.82 2.82 0 00-.51 0 .15.15 0 00-.07 0h-.06v.07a.16.16 0 00.11.09h.23v.05h-.34l.39.15v.1h.07a.24.24 0 00.11.06v.07h.05a.16.16 0 00-.13 0h-.09v.18l-.05.18.27.13h.13a.47.47 0 00.12.09v.09h.07-.15l.31.13h.13V56l.13.05v.06a.26.26 0 00.07.1h-.1l.13.08h-.23l.23.13a1.1 1.1 0 00.69.18h.13-.11l.28.13.29.13.2.05h.19a.21.21 0 00-.1.06l-.08.07.08.08h-.11l.89.4h-.12l.24.13.3.16h-.21l.33.12.37.14h-.49l.22.15a13 13 0 001.43.87l.08.05.47-.08-.21-.14h.11a.28.28 0 00.12-.14c.08 0 .13 0 .22.11a.5.5 0 00.21.17 1.32 1.32 0 00.71.16l.17.11h-.25l.25.13.31.16h.23-.18l.47.3.09.05h.09a.35.35 0 00.23-.09h.09a1 1 0 00.32.13h.45l.07-.18-.22-.13.17.05h.06c.13 0 .18 0 .35-.15h.12l.11.06.34-.06-.2-.12h.06l.06-.17v-.1h.27l-.09-.05-.31-.18h-.19l-.1-.06-.25.05-.09-.05h-.3l-.46-.17h-.12l-.67-.19-.33-.18h-.05a10.28 10.28 0 01-1.23-.58H156.41l-.08-.05-.36-.18a3 3 0 01-.31-.15h.16l-.28-.13a2.81 2.81 0 01-.7-.36v-.08h-.06a1.43 1.43 0 00-.65-.15v-.17a.93.93 0 00-.32-.18l.17-.1-.32-.12h.18l-.33-.13-.18-.06-.11-.1h.19l-.32-.13-.29-.14a2.64 2.64 0 00-.38-.18h.08l-.14-.07v-.02l.21-.07-.15-.1a1 1 0 00-.2-.11l-.12-.08h.19l-.4-.16h.28l-.1-.15h.05v-.18l-.15-.06v-.46h-.08l-.26-.08h-.08a.76.76 0 00-.24-.08h-.19l-.5-.11h-.12a1.59 1.59 0 01-.3-.06 2.11 2.11 0 00-.62 0h-.23l.19.14a.33.33 0 00.56-.12zm10.2 6.09H160.47l-.23-.09zM130.48 68.37h-.09v.09a1.08 1.08 0 01-.47.52h-.07v.25h.07v.11l.12-.07a1.31 1.31 0 00.34-.27 1.74 1.74 0 01.22-.18.37.37 0 010-.11v.28l.13-.08a1.18 1.18 0 00.15-.11v.23l.41-.07v-.21h.23l.15-.27h.14l.14-.18a.3.3 0 000-.13.29.29 0 010-.1v-.06c-.06-.19-.07-.23-.2-.29v-.13l-.46.19v.18-.07h-.08v-.33h-.3v.06l-.09.46v.14h-.05l-.06-.41v-.11h-.11a.53.53 0 00-.34.25h-.12v.25h.57-.1c0 .16 0 .17-.08.25v.1c.14-.09.09-.11-.05-.18zM136.36 63.58c.12.26.18.34.43.36v.05h.07v-.08.09l.12.06v-.14a.68.68 0 010-.14 1.6 1.6 0 000-.23 1 1 0 000-.27h-.09l.08-.05-.06-.09h-.1l-.09.05-.11.06h-.33v.07h-.07zM137.21 63.08c.2 0 .22-.11.22-.16s-.05-.09-.12-.11l-.09-.17-.34.06.29.38zM132 67.1a.35.35 0 000-.12.31.31 0 000-.15v-.15h-.22v.21h-.07v.06a1.43 1.43 0 000 .22v.13h.26a.06.06 0 01.03-.2zM120.29 86a.13.13 0 00.08.06h.25v-.31l-.5.1zM142.66 84.63v.08h.08c.28-.12.34-.19.35-.44h.18l-.1-.13a.57.57 0 01-.1-.19.71.71 0 00-.13-.26h-.07v-.09h-.23l-.05.13a.24.24 0 000 .08.48.48 0 01-.05.12.21.21 0 00-.08 0c-.08 0-.11 0-.24.24l-.14.19.39-.07a1.12 1.12 0 01.19.34zM134 64.54v.06l.38-.06-.05-.12a.54.54 0 00-.15-.21.51.51 0 00-.16-.09l-.09-.05h-.22v.11a.63.63 0 00.14.22.63.63 0 01.15.14zM134.52 64.36a.25.25 0 000 .07h.05v.09h.22v-.07a.74.74 0 000-.35v-.08h-.29v.08l-.05.1zM136.78 81.9l.22.1a.19.19 0 00.09 0h.28l-.07-.3h-.28zM120.71 86.11l-.37.07v.76h.31v-.11-.14a.18.18 0 00-.09-.07l.25-.05zM141.29 72.37l.39-.07-.09-.12v-.08h-.09l-.23-.14.08.22h-.09zM138.16 82.28c-.06.06-.07.15-.08.3v.09h.36a2.33 2.33 0 00.38 0l.07.26.11-.11.25-.23v-.18c-.06-.27-.08-.3-.3-.42v-.13h-.29v-.08h-.55l.12.22c.06.12.08.15.2.19h-.06c-.13.04-.18.05-.21.09z" transform="translate(-3.21 -10.9)"/><path class="cls-2" d="M135.37 63.76h.06l.06.15.1-.07.16-.1.21-.15h.31v-.11a.57.57 0 00.07-.44h-.1.09v-.1h-.15c-.12 0-.2.05-.25.14s0 0 0 .21l-.52.08v.12h-.12zM95.5 82.35v.05h.1a.71.71 0 00.19-.08c.06.06.08.07.32.08v.08h.07l-.39.33-.15.34.21-.09A.94.94 0 0096 83h.15c.36 0 .57 0 .73-.08a.88.88 0 00.48-.2l.22.1.12-.15.29-.37h.1v-.06a.24.24 0 00-.05-.26 1.71 1.71 0 01.09-.27h.31v.31l.63-.23.11-.26a.35.35 0 010 .06v.15l.13-.07a1.51 1.51 0 00.47-.34v-.08h.12l.12-.16h.28V81h.14v-.09h.27v-.1h.11l.14-.18h.22v-.09h.06a.51.51 0 00.09-.31h.1l.11-.27h.27v-.09h.07l.1-.24v.08l.33-.06v-.09h.08l.07-.33.1-.23-.17-.06a.8.8 0 01.14-.11 2.24 2.24 0 00.11-.22v-.06a.3.3 0 010-.13.76.76 0 000-.15V78h.36-.18a.2.2 0 00-.12 0l-.23.08.14-.21.15-.23.06-.1h-.11c0-.11.07-.18.24-.33v-.06h.17l.07-.07a1.36 1.36 0 01.12-.12.42.42 0 00.09-.14l.09-.19-.2.06a1.08 1.08 0 00-.32.14v.08a4.45 4.45 0 01-.46.18v-.06l.06-.12-.1-.07.09-.34-.22.07-.43.14c-.26.51-.36.69-.45.7h-.06v-.22h-.13a1.57 1.57 0 00-.44.25 1.75 1.75 0 01-.35.2v.06h-.09a.3.3 0 000-.16h-.2v.09-.07l.12-.18h-.21a8 8 0 00-1 .64h-.09v.06c0 .24-.07.31-.16.38a2 2 0 01.18-.52l.11-.22-.23.09h-.11a.36.36 0 00-.27.14 3 3 0 00-.36.65 2.56 2.56 0 01-.11.24h-.08c-.24 0-.24 0-.62.63H97l.08-.14a2.35 2.35 0 00.29-.57v-.11l.14-.22.11-.18h-.12l.14-.25h-.13v-.35l.18-.29h-.15a.16.16 0 000-.11.17.17 0 00-.16 0v.09-.09h-.12c-.23 0-.32.11-.55.42l-.18.25.29-.1.13-.06a.59.59 0 01.2-.07v.07h.2l-.14.07a.32.32 0 00-.13 0l-.29.38s0-.07.05-.1l.08-.23-.22.11a.84.84 0 00-.36.33l-.06.1h-.08a.24.24 0 00-.15.12l-.1.17h.06l-.05.09h.17l-.18.33a2.81 2.81 0 00-.62.48l-.06.08h-.23l-.06.11h-.08l-.06.23c.06.06.07.06.46.08l.31-.33h.08a2.47 2.47 0 00.59-.35.25.25 0 000 .07h-.06v.05a.28.28 0 00-.12.08h-.06a2 2 0 00-.18.44v.08h-.23a.31.31 0 00-.08.1c-.63.41-.63.41-.81.45a.2.2 0 00-.08.08h-.06a1.65 1.65 0 00-.14.36v.15l.44-.08v-.08h.12a2.58 2.58 0 00.39 0 .39.39 0 000 .18v.09l-.08.16h.22l-.11.22h.12l-.28.26h-.16L94.8 82c-.31.09-.5.24-.52.41a.26.26 0 00.16.28.44.44 0 00.28 0h.13a.32.32 0 00.08-.09h.12v-.09l.37-.06zm4.21-4.55a2 2 0 01-.08.26c-.01-.06.04-.17.08-.26zm-3.11.33l.1.05.16.08-.06.12-.31.05c.02-.06.04-.13.11-.3zM157.57 62.15l.43.4h.06a1.67 1.67 0 00.37.24l.28.09a.9.9 0 01.29.12h.28v-.08c0-.08 0-.11-.13-.18v-.08l-.11-.22h.05l-.11-.13a2.48 2.48 0 00-.53-.35h-.21a1.75 1.75 0 00-.43 0 .15.15 0 00-.1.06v.07l.06.05a.3.3 0 000 .1z" transform="translate(-3.21 -10.9)"/><path class="cls-2" d="M120.4 68.47l.08-.02v-.36l-.36.06v.28l.09-.01v.08l.19-.03z"/><path class="cls-2" d="M129.74 69.24l-.06-.07a.93.93 0 01-.05-.1V69h-.29v.18l-.07.06-.06.07v.07l.08.12.45-.07v-.08h.15l-.1-.13zM104.54 93.9c0 .17 0 .35-.07.52v.13h.28v-.14l.19-.13.07-.48-.47.08zM106 98.09V98a.45.45 0 010-.11.24.24 0 00-.08-.09l-.15-.15v.55zM105.5 92.38h-.06a2.75 2.75 0 01-.08.64l-.65.11v.09a.34.34 0 010 .11.15.15 0 000 .06v.23l.3-.14.23-.1v-.13l.15-.08a.73.73 0 00.43-.46l.37-.07a5.62 5.62 0 01.27-.86 1.06 1.06 0 01.19-.33.22.22 0 00.06-.07l.08-.56h-.18a.11.11 0 00-.1 0h-.09l-.25.15a1.4 1.4 0 01-.26.16h-.05l-.06.36-.09.06-.16-.2v.24c0 .25 0 .32.1.41.02.3.01.31-.15.38zM105.7 96.64a.18.18 0 00-.08-.09l-.14-.16-.06.54.31-.05v-.09a.17.17 0 010-.1z" transform="translate(-3.21 -10.9)"/><path class="cls-2" d="M106.25 110.25a1 1 0 00.42-.58 1 1 0 01.24-.41l.17.11v-.12c.08-.3.09-.31 1.08-.58v.16a.21.21 0 00.22.1c.5-.7.57-.8.61-.88l.67-.2v.09h.21v.06h.82v-.37l.44-.17v.37l.13-.07h.11a.13.13 0 00.07-.08h.15v-.31l-.42.07v-.13a2.09 2.09 0 01.34 0 1.75 1.75 0 00.46 0 .28.28 0 00.07-.11h.22v-.2l.53-.09v-.13h.17a.77.77 0 01.7.25.3.3 0 00.24.08h.06l.07-.29a1.28 1.28 0 01.39-.13h.08v-.15a1.43 1.43 0 01.58-.4V106a1.51 1.51 0 01.07-.39v-.06a.38.38 0 00-.37-.08l-.61.14a.49.49 0 000-.11s0-.09-.07-.12 0-.07 0-.11a.82.82 0 01.29-.09h.06v-.06a2.06 2.06 0 01.17-.41h.68v-.37a1.92 1.92 0 00.59-1.56v-.3a.76.76 0 01-.2-.27 4 4 0 00-1.1-.14c-.17 0-.24.12-.34.27h-.19a.49.49 0 010-.12 1.42 1.42 0 000-.76 7.5 7.5 0 00-.85-.85h.08c.58.32.58.32.63.32h.1v-.47c-1-.69-1.16-.88-1.18-.93v-.07h-.07V99h-.16l-.13-.19a.67.67 0 00-.36 0 2.51 2.51 0 01-.19-.24 1.69 1.69 0 00-.22-.26 4.06 4.06 0 00-.07-.8v-.07h-.23a1 1 0 000-.27v-.08h-.13a.8.8 0 01-.11-.23.49.49 0 00-.28 0c-.07-.25-.1-.39-.14-.52v-.09h-.1l-.54.17.17-.29.33-.06v-.22H110.78v-.43h-.22v-.11a.73.73 0 00-.09-.22h.26v-.06h.42v-.06a2.48 2.48 0 00.2-.4h.11v-.31h.26c0-.06 0-.06.19-.22v-.27h.09v-.33c.26-.19.28-.27.33-.91V92h-.1v-.14l-.14.07a1.86 1.86 0 00-.48.33 2.5 2.5 0 01-.33.26.34.34 0 000-.2 1 1 0 00-.18-.09l.14-.11.06-.69a2.38 2.38 0 01.18-.3 2.73 2.73 0 00.24-.45v-.14h-.28a1 1 0 00-.94.65h-.11v.06a.28.28 0 000 .29l-.16.19a.14.14 0 00-.06.07.61.61 0 010 .11v.15h.15a2.09 2.09 0 01-.08.23h-.08a14.81 14.81 0 00-1.41.67.55.55 0 000-.16h.07v-.07a1.75 1.75 0 01.66-.9c.44-.41.94-.87.57-1.63a.76.76 0 00-.39 0h-.12a.29.29 0 00-.15-.09 3.94 3.94 0 01-.52.4h-.1v.07c-.09-.08-.15-.08-.36-.06h-.05a5.86 5.86 0 00-.38 1.11h-.18c-.14.43-.18.53 0 .65a.64.64 0 01-.3.2.67.67 0 00-.44.37l-.07.15h.17v.13l-.26.12a.68.68 0 00-.08.26v.09h.09c.13 0 .13 0 .15.18v.1h.06c0 .07-.09.14-.26.26v.06h-.37v-.39c.06-.27.12-.55.19-.83v-.14h-.3v.31h-.26v.13h-.09v.08a2.08 2.08 0 00.11.86 1.63 1.63 0 01.09.43v.1h.16v.32l.31-.06h.06v-.06c0-.18.1-.37.14-.55v-.17a.56.56 0 00.06.21h.09a.11.11 0 010 .08c-.2.14-.21.2-.37 1.06v.1h.1a.6.6 0 00.37-.11.79.79 0 01.22-.09c.05.28-.13.35-.48.46h-.1v.1c.07.15.08.17.07.26h-.07v.17a.74.74 0 000-.18l-.16-.12-.09-.05.08-.06-.06-.07h.09a1.08 1.08 0 000-.32.77.77 0 00-.1-.18.83.83 0 01-.08-.12v-.07l-.43.07v.62h-.17v.26h.19v.09h.09a1.54 1.54 0 00.24-.1l.1-.07v.14c0 .23 0 .23-.18.35v.25h.09v.11h.27v-.06c.06-.19.06-.19.16-.27v.55h.28v-.06a.89.89 0 01.22-.45v.06l.38-.07v-.17a.83.83 0 01-.09.35.76.76 0 00-.06.16h-.27v.09c0 .21 0 .42.08.63l-.34.06V98.05a3.57 3.57 0 01-.1.81v.13h.14v.21h.09v.16l.31-.16.37.26.1.06v-.11a1.36 1.36 0 00.12-.47 1.63 1.63 0 00.49 0l.43-.1a2.56 2.56 0 01.46-.11c-.39.55-.45.64-.17 1.16h-.07a1.22 1.22 0 00-.54.32.3.3 0 000-.08l-.68.11a.47.47 0 00-.15-.06h-.19V100.41a3.06 3.06 0 00.13.43c0 .09.07.18.09.27s0 .34 0 .51v.14h-.14v.09a.71.71 0 00-.31.33.24.24 0 000 .22h-.15c-.09.13-.1.15-.14.5a.1.1 0 010 .06 1.4 1.4 0 00-.34.16v.28h.17a.51.51 0 00.2.12c0 .09-.07.17-.11.26a2.15 2.15 0 00-.19.5v.18l.16-.08a.6.6 0 00.46-.52l.4-.16a.12.12 0 00.09 0 3.3 3.3 0 00.18-.3v.57l-.18.09a.31.31 0 00-.1.17l-1.09.83a1.85 1.85 0 010 .66v.13h.21v.34h.12c.44-.09.57-.19.67-.56h.21l-.12.59h.15a1.39 1.39 0 001-.68 2 2 0 01.3.39v.06l.35-.06v-.12h.1v-.46l.51-.16a2.33 2.33 0 01-.07.25 4.8 4.8 0 00-.11.57h-.11v.12l-.94.16v-.15h-.13l-.38.16v-.09l-.62.1h-.08v.15c-.26.3-.26.3-.36.36a1.86 1.86 0 01-.68 1.31v.35a3.17 3.17 0 01-.87.57v.51h.11a2.87 2.87 0 01.61 0v.31zm8-7.93c0 .07.08.13.07.17s-.07.07-.14.11a1.2 1.2 0 010-.38zm-3.67-10.83s.06 0 .06.06a.47.47 0 01-.1.09zm-.79 8.77a.6.6 0 00-.11.25v.06l.1.07-.19.14c0 .26-.08.52-.13.78v.05h-.19v.19a1 1 0 00-.35 0l-.24.06a.14.14 0 000-.06c0-.06 0-.06.16-.12h.06v-.19c0-.15 0-.31-.05-.46l.16-.1v-.76l.44-.07v-.1h.3z" transform="translate(-3.21 -10.9)"/><path class="cls-2" d="M105.42 101.46v-.09l.54-.09v-.23a2.81 2.81 0 01.53-.19h.07v-.37h-.29v-.8h-.3a1.78 1.78 0 00.24-.54v-.1h-.1a1.22 1.22 0 01-.24-.1 1 1 0 00-.3-.12h-.06a4.15 4.15 0 01-.52.48v-.53h-.12c0-.19-.08-.22-.32-.26h-.1v.46l-.18.07v-.15h-.12a2 2 0 00-.78.24v.4l-.26.06-.1.28-.08.21.41-.07v.11h.06a.27.27 0 010 .08h-.1c-.13 0-.19.12-.4.46h-.14V101.09h-.08v.06a1.05 1.05 0 00-.51-.11c-.12 0-.2.1-.32.24a.19.19 0 00-.08-.07v-.29l-.37.07v.43h-.1V102h.1v.1h.3v.13h-.07v.22l-.47.08v.11h-.18v.28h.12-.11v.08h-.28l-.06.63h.11a1 1 0 01.35 0v.23l.16-.09.19-.11a.49.49 0 000 .11v.07h.25v-.11h.25v.1l-.29.16v.53h-.1v.27l-.06.06a.76.76 0 00-.11.14h-.22v.42h.27l-.15.12a1.7 1.7 0 01-.28.21v.39h.19a2.37 2.37 0 01-.56 0h-.09v.13h-.1v.08c0 .24 0 .35.09.42a.21.21 0 00.16.06l-.08.1v.29h-.09v.34l.14-.06a.81.81 0 00.42-.29h.25a1.51 1.51 0 01-.27.19v.56l.15-.08a3.64 3.64 0 00.49-.36 3.26 3.26 0 01.36-.29v.24l.52.21v-.07a2.19 2.19 0 01.78-.78v-.29h.54v-.05l.09-.2h.22v-.08a2.21 2.21 0 01.1-.5l.52-.09v-.33h.1a.7.7 0 00.29.1h.11v-.11c0-.28 0-.35-.14-.44l.28-.05a.32.32 0 00.08-.09v-.15-.57h.09v-.63h-.14a1.33 1.33 0 010-.43v-.12h-.18.17v-.31h-.09a8 8 0 00.06-.82l.24-.12zM148.57 64.23h-.15l-.52-.23-.13.06a1.79 1.79 0 00-.61-.11l-.5-.07c-.27 0-.3 0-.32-.07h-.77l-.38.06h.21v-.06a.6.6 0 01.08-.17v-.19a6.06 6.06 0 00-.89-.05l-.39.07v.06h-.05v-.05l-.43.08-.06-.1-.08.07a.81.81 0 00-.23.24l-.37.15-.27-.19h.21l-.07-.11c.39-.34.52-.36.67-.38h.19l-.14-.13c-.29-.25-.36-.28-.44-.27h-.46a3.28 3.28 0 00-.23-.35v-.05h-.16l-.11.11-.6-.36-.06.68a2 2 0 00-.49-.31c.13-.16.15-.24.09-.33h-.12l-.13-.2a2.38 2.38 0 00-.67 0h-.14l.17.27h-.13l.09.53-.14-.12c-.23-.21-.3-.23-.39-.22h-.13l.1.16h-.07v.08a.7.7 0 010 .23h-.07v.55h-.12v.07a.64.64 0 010 .07 2.33 2.33 0 01.08-.31c-.07-.19-.11-.29-.17-.33v-.08H139v-.06h-.09l.13-.11H139v-.09h.06l-.13-.23h-.15v-.14h-.05l-.33-.12h-.15v.22h-.15l.06.12c0 .07.07.14.11.22v.06h.07l.05.1h-.12l.06.12-.7-.31.32.75h-.05c-.29-.3-.4-.3-.52-.28h-.15l.09.13.06.09a2 2 0 00-.06.31 2.5 2.5 0 00-.22.21.26.26 0 00-.08.21l-.49-.11a.35.35 0 01-.11-.16h.06l-.12-.3-.44.07.07.2h-.1a2.06 2.06 0 01-.57.22h-.17l.12.13a1.81 1.81 0 01.21.24h.06-.52v.13L135 65l-.06-.18h-.18a.22.22 0 00-.15.08h-.16l.09.29-.25.26c-.16-.32-.2-.36-.29-.35h-.08v-.62h-.53v.09a.33.33 0 01-.05.12V64.98l-.28.09h-.09v.17h-.07v.1a.85.85 0 00.16.33v.06h.06c.2-.06.22-.06.3-.13h.14v.05a3.79 3.79 0 01.3.45l-.24-.13v-.07l-.35.06.07.12.11.18-.1-.05v-.06h-.24l.05.53h-.15a.24.24 0 01.06-.11v-.25a.75.75 0 00-.17-.4v-.19l-.15.14a.18.18 0 00-.05.07s-.05.07-.08.08h-.05a.22.22 0 00-.15.09.32.32 0 00-.07.19l-.14.07h-.06v.44l.11.49.11-.06a.36.36 0 00.26-.3h.33V67h.04a.17.17 0 010 .09h-.05l.07.33v.46a1.15 1.15 0 00-.24.2h-.18v.06l-.32.06c-.07.18-.1.18-.11.18h-.09l.07.4h.1l.46-.13v.6l-.41-.25h-.73l.11.14a.81.81 0 01.09.15h-.07l.06.34c.28.23.41.29.51.3l-.72.12.18.54-.37.26a2.08 2.08 0 00-.13.25h-.22l-.44.08v.3h-.1a.5.5 0 01-.33.19h-.05c-.13.26-.14.35-.12.46l.06.48h.1l-.11.32-.02-.03h-.24v.1l-.06.24v.14l.37-.06a1.81 1.81 0 01-.62.31h-.09v.25l-.51.19.07.55a2.1 2.1 0 01-.81.36h-.13v.33c-.26.16-.36.25-.38.35-.2 0-.27 0-.32.07h-.12v.37a3.21 3.21 0 00-.62.84 1 1 0 01-.45.22h-.08v.36h.16v.2c0 .04.06 0 .13 0l.58-.2v-.07h.12a1.78 1.78 0 00.35-.41l.11-.08a.34.34 0 00-.1.21c-.1.08-.15.14-.16.19-.91.62-1 .67-1.22.69l-.16-.4v-.17h-.22a1.63 1.63 0 01-.76.39 1.14 1.14 0 00.11-.11h.13v-.27H125v-.08l-.28.05v.08c-.31.07-.43.14-.5.48v.15h.14a1.43 1.43 0 00.37-.14l.08.45-.45.27v.06a2 2 0 00.08.28l-.27-.12a.62.62 0 00-.13.37 2.91 2.91 0 00-.93 0 .69.69 0 00-.21 0h-.13l.06.12c.13.24.23.32.34.34v.1h.09a1.36 1.36 0 00-.34.52l-.53-.07c-.26.15-.33.27-.34.4h-.09v.28l.62-.11-.36.21c-.2-.13-.27-.13-.36-.12h-.08v.36h-.25v-.22l-.59.26h-.4v.65h.15a3.7 3.7 0 01.58 0c-.2.06-.41.1-.61.15l-.51.12h-.07v.44l.07.67.58-.28a1.8 1.8 0 00.43.15l-.64.12v.07l-.19.05V84c-.2 0-.22.13-.23.22v.1h.55v.12c-.13.2-.21.21-.29.23h-.12v.11a1.13 1.13 0 00.06.14h-.27v.18a2.25 2.25 0 00.54.1h-.1l.29.13c.41.18.41.25.41.31v.1H120.76v.14a.13.13 0 000 .1.1.1 0 00.05.06v.15h.28v-.07h.1v-.26c.21-.15.45-.35.66-.52l-.22.55h-.21v.59a.88.88 0 00-.27.22l-.47.14c-.14.08-.2.13-.21.2a.6.6 0 00-.19.45v.08h.07c.41.1.41.17.41.22v.11l.28-.05v-.1h.1v-.29h.1v-.09l.36-.06h-.07l.1.54h-.06l-.14.53c-.21.22-.29.23-.37.24h-.1v.1a3.1 3.1 0 00.54 1.13h.62c.23-.06.35-.12.39-.21l-.08.49 1.17-.2c.23-.31.28-.32.32-.32h.09v-.1l.35-.06.64-.45.25-.06c.16-.2.24-.21.33-.23.22-.3.28-.31.32-.32a1.24 1.24 0 00.18-.3l.62-.1v-.12a1.19 1.19 0 00.36-.23h.18c.13-.18.17-.19.22-.2.13-.19.18-.19.22-.2h.09v-.06c.18 0 .22.11.24.22h-.1l.08.86h.1v.1l.34-.06a5.93 5.93 0 01.32 1.43c.26.35.42.39.59.38a5.33 5.33 0 00.67.82c.16.18.33.37.49.58l.22.2h-.26l.06.54.09.06a1.38 1.38 0 00-.18 1l.21.52c0 .19 0 .27.1.31v.14l.33-.06v.1h.3v-.1a2.34 2.34 0 001.44-.54l-.1-.65v-.06h.05c.17-.4.28-.42.41-.44h.09l-.06-.42.45-.14v.08h.16a10.58 10.58 0 001.07-.24 1.4 1.4 0 00.3-.28v.15l.12-.09a1.8 1.8 0 00.62-.87 2.38 2.38 0 000-.44v-.21l-.47.62v-.37h.09l-.12-.69h.07v-.07a2 2 0 01.08-.35v.19h.11v.1l.49-.09v-.29h.28v-.08a1.13 1.13 0 00.59.11h.12v-.11h.13l-.06-.12c-.1-.16-.14-.24-.13-.34a.66.66 0 01.08-.25 1.09 1.09 0 00.1-.25V88h-.08a1.17 1.17 0 00-.8-.07h-.05c0 .11-.05.13-.15.17a1 1 0 00-.14-.18l.15-.1h.09l-.25-.53h-.07c-.33.09-.35.1-.44.19v.11a.21.21 0 00-.11 0 3.58 3.58 0 00-.08-.46c.18-.1.24-.16.22-.26v-.09h-.18l-.45-.08A7.07 7.07 0 00136 86a1 1 0 01.63-.29h.07l.11.17h.2l.28-.47a1.31 1.31 0 00.43-.23h.14l-.06-.28h.1v-.09l.35-.07-.09-.12a1.3 1.3 0 01-.15-.22v-.09l-.48.08a3.26 3.26 0 00.67-.67 2.46 2.46 0 01-.31-.73v-.06l-.52-.1-.08-.39-.4.07-.53-.43-.06.07a1 1 0 00-.19.23h-.35v-.1h-.11l-.07-.26v-.11a9 9 0 00-.37-.93 1.15 1.15 0 000-.37v-.09h-.09v-.19c.13-.08.16-.08.17-.08h.12l-.25-.58h.1v-.17h.1l-.16-.66a1.36 1.36 0 01-.2-.29 1.4 1.4 0 00.21 0 .2.2 0 00.11-.06l.43-.32c0-.24 0-.35-.06-.41l.43-.18a.44.44 0 00.17-.24h.1l-.06-.26h-.11l.2-.41h.2a.2.2 0 00.12-.06 1.17 1.17 0 00.28-.17h.17l.36-.45h.36c.08-.15.11-.15.15-.16h.05a2.88 2.88 0 01.53-.9v-.06c-.16-.27-.24-.37-.3-.4l-.15-.28.05-.09-.14-.49c.13-.21.17-.25.16-.25h.08v-.08a1.88 1.88 0 010-.32c.18-.22.24-.31.25-.38l.25-.23h.12l-.05-.11a1.11 1.11 0 01-.1-.21l.34-.23c.16.07.17.11.18.14v.07h.16A2.08 2.08 0 01141 71a.19.19 0 01.05.1h.06l.44.06c0 .2 0 .25.05.29l.4.55a.73.73 0 010 .15h-.13l.1.12v.08l-.47.38a1.73 1.73 0 01-.29 1.19v.11h-.09l.1.29a.31.31 0 00-.09.13h-.15c-.09.15-.14.16-.22.17l-.25.51a.29.29 0 01-.15.07h-.1l.1.35-.45.19V76a1.06 1.06 0 000 .38l-.44.43v.06a3.94 3.94 0 00.9 1.33.67.67 0 00.16.19v.39h-.14l.21.42h-.06l.12.43h-.1l.07.27h.12l.2.35.33-.15.15.43c.24.26.36.26.5.24h.17l-.12-.13a1.77 1.77 0 01-.24-.3l.7.16.11.37H143.02l-.4.11a.77.77 0 00-.33.18h-.16l.06.12.08.14.13.46h.09v.11h.1a1.6 1.6 0 00.46-.26h.14l-.11-.35.38.49h.25l.09.28.57-.19a.23.23 0 00.07-.11l.43-.07c.55-.91.55-.91 1.06-1.07a.56.56 0 000-.34l.38-.1h.22c.28 0 .42-.11.47-.2a.22.22 0 000-.1l.16-.07v.08h.09a4.12 4.12 0 00.78-.4l.19.12a6.83 6.83 0 001.42.66h.28a.34.34 0 00.37.1c.06 0 .09 0 .23.08h.1l.23-.13h.1l.11.07.3.12a3.9 3.9 0 01-.79.09h-.14v.12h-.11c-.12.26-.17.27-.2.28h-.11v.07h-.13a1.35 1.35 0 00-.59.22l-.27.51-.52.14c-.24 0-.26-.09-.27-.11v-.06h-.05a1.84 1.84 0 00-.53 0h-.11v.08h-.09l.09.27-.83.14h-.26l-.08-.23-.1.08c-.25.19-.32.3-.32.42l-.49.09v-.09h-.22c-.09.16-.12.17-.17.18h-.1v.1l-.38.06c-.31.16-.4.23-.39.33l-.08.54v.13h-.06l.06.19h-.11v.11a2.82 2.82 0 00.61.89.17.17 0 00.12-.1l.1.5v.28h-.06v.09a3.29 3.29 0 00.26.84 4.48 4.48 0 01.22.68 1.27 1.27 0 01-.59.33 6.48 6.48 0 01-.72 0c-.24-.27-.33-.34-.4-.35l-.41-.34v-.54h-.11a2.36 2.36 0 00-.9.63h-.1l.05.19h-.11l.07.25a.53.53 0 00-.14.27h-.08l-.07.59h-.08v.59h-.1l.16.67a5.7 5.7 0 00.11 1.1c.06.08.11.13.17.14v.22a.24.24 0 000 .12v.09h.11l.07.32h-.16l-.27.52h-.07a1.2 1.2 0 000-.63h.21l-.08-.39-.4.07.08.35c-.23.23-.54.51-.8.73v.65h.05a.49.49 0 00.28 0 6.62 6.62 0 00-.46 1h-.09a.28.28 0 000-.2v-.12l-.11.06a5.17 5.17 0 01-1 .43.58.58 0 01-.26 0h.06c.21-.14.24-.14.27-.14h.1l-.06-.26-.56-.12a1 1 0 00-.3 0 .14.14 0 00-.1 0l-.53.17a.43.43 0 00-.2.16l-.42.07c-.13.2-.18.21-.23.22h-.09v.09h-.22v.1l-.51.09-.26.48h-.27v.09h-.44a.17.17 0 00-.1.11h-.24v.12l-1.78.6v-.1H133v-.1l-.39.07a.66.66 0 00-.41-.15v-.16l-.22.14h-1v-.15h-.11a1.86 1.86 0 00-.86.69 1.81 1.81 0 00-.1.2.2.2 0 00-.11 0 .12.12 0 00-.1.06l-.36.06v.11l-.46.24c-.23-.12-.25-.22-.26-.34v-.1h-.11v-.14l-.58.27-.19.06a.56.56 0 01-.25-.44V97h-.11v-.21h-.14l-.23-.41v-.11h.08l.25-.55a.14.14 0 000-.12.11.11 0 00-.09 0l-.26-.2v.35l-.32.12v-.31h.14l-.17-.55a2.85 2.85 0 00.12.31v.06h.06c.29 0 .29 0 .38.28v.06h.7v-1h-.15l-.1-.22-.06-.06h-.15a3.6 3.6 0 00-.65.16v-.49h.2v-.07a9.73 9.73 0 00.1-1 .91.91 0 00.59.14h.06l.15-.71h-.08c-.45-.12-.64-.47-.83-.84a2.59 2.59 0 00-.38-.59h.32v-.14l.39-.38-.12-.54a4.24 4.24 0 000-.68v-.2l-.14.14c-.23.23-.29.24-.34.24h-.09v.11l-.44.17a.5.5 0 00-.12.34l-.33.6-.52.15h-.48V91a8.39 8.39 0 00-.75.71v.05l.29.68.1-.15a4.26 4.26 0 01.35-.45v.14h.28v.31h.11l.27-.1.15-.12c-.23.41-.39.53-.61.56a2.32 2.32 0 01-.54 0h-.09v.08a8.24 8.24 0 000 1.09.36.36 0 00.35.16 1.4 1.4 0 00.16.22 2 2 0 00-.1 1.11c.29.25.43.29.55.29l.15.4v.13h-.08v.08c0 .31 0 .41.1.46a.09.09 0 00.07 0l.15.53h.09v.44h-.11v.09a2 2 0 00.46 1h-.37a.93.93 0 00-.13.67c-.11.16-.19.26-.23.33v-.21h-.08c-.66 0-.69 0-1.46.58h-.06v.06a2.6 2.6 0 00-1.07.18h-.05v-.09h-.21v-.12h-.11a1.78 1.78 0 00-.87.56.13.13 0 01-.07 0 2.26 2.26 0 01-.9.57 2.33 2.33 0 01-.12.3h-.08v.22H120v.07c-.07.37-.18.75-.28 1.1a7.86 7.86 0 00-.34 1.47v-.1a.09.09 0 010-.05.76.76 0 000-.11.23.23 0 00-.07-.07v-.15h-.88l.06.17a.77.77 0 00.07.17l.08.1h-.14c-.2.07-.29.12-.32.19l-.45.16c-.1.06-.16.11-.18.17l-.46.07v.11l-.37.07-.39.34c-.4.16-.49.22-.51.31a6.05 6.05 0 00-.27 1.56.42.42 0 00.13.24v.19c-1.38.27-1.56 1.1-1.62 1.38h-.07v.11l-.36.06a3.31 3.31 0 01-1.3.45 2.36 2.36 0 00-.77-.61h-.1v.1a2.36 2.36 0 00-.2.93v.11h.1v.23h.11a8.84 8.84 0 00.17 1 .57.57 0 01-.48.39v.08l-.14.1a.73.73 0 01-.39.17 2.39 2.39 0 00-.83.68.33.33 0 01-.13.07l-.24-.47h-.63c-.28.17-.38.27-.41.37a2.39 2.39 0 00-1 .31h-.06l.18.59.17.12v.16l-.31.32c8.41 2 17.17 3.68 26.16 5-.27-.32-.28-.41-.31-1 0-.13 0-.15.05-.15v-.06c.35-1 .33-1.14-.21-1.52v-.22h.12l.14.06h.06a.14.14 0 00.12-.08h.2a.74.74 0 01.52-.32 1 1 0 01.66-.34h.06a3.08 3.08 0 01-.35.44l.12.37a.43.43 0 00.22.14c0 .11.07.23.1.34a2.89 2.89 0 00.31.78 1.06 1.06 0 00.24 0 .14.14 0 00.1-.07h.15l-.05-.36h.12v-.12l.36-.06v-.07c0-.24 0-.56.06-.8l.18-.15c.44.27.44.32.44 1.53v.07h.07a1.55 1.55 0 01.68.39 2.24 2.24 0 00.43.31l-.13.21a.68.68 0 000 .45v.07l.39.06v.09h.31a.74.74 0 00.49.16v.13h.12v.22h.42a.34.34 0 00.19-.07v.1l.41-.14h.08c.31.17.31.17 1.32.8 2.69.33 5.4.65 8.11.92 3.28.32 6.56.59 9.82.82a1.34 1.34 0 00.11-.14l1-.17v-.13h.24v-.13l.47-.07v-.18a.5.5 0 00.15-.46V121h-.05c-1.37-.45-1.37-.45-1.6-.72h.03l-.07-.37h-.12l-.08-.37h-.14a1.06 1.06 0 00-.44-.35v-.24c.17-.18.2-.18.22-.19h.08v-.08c0-.25 0-.54-.07-.75l.18-.26a.62.62 0 00.09-.32h.07l.17-.37c.15-.19.2-.2.27-.21h.09v-.09a8 8 0 00-.34-1.58h.18l.07-.38c.07-.13.1-.14.11-.15h.12l-.05-.11a1.12 1.12 0 01-.1-.53l.28-.06c.18-.2.21-.2.23-.21h.13l-.2-.38v-.07h.08l-.06-.23h.15l-.22-.37.2-.43-.32.06v-.17a1 1 0 00.39 0h.12l-.2-.43a2 2 0 01.26-.4 1.35 1.35 0 00.38-.91c0-.17.08-.17.14-.18h.06v-.07a2.87 2.87 0 000-.31v-.16l.37-.27h.09l1-.29h.06v-.07a1.15 1.15 0 000-.16l.29.25h.28L163 109h-.1v.12h-.12l.08.28h.59l.07.24h.08a.74.74 0 01.83.3l.35-.06v-.07a1.37 1.37 0 000-.41 2.29 2.29 0 00.71-.22l.16.25v.07l.42-.19a2.35 2.35 0 01.34.55H166v.08a1.29 1.29 0 010 .19l-.64.23a.79.79 0 01-.21.39 1 1 0 00-.25.56v.12l1-.18v.08a.8.8 0 00.46 0l.45 1h-.05v.06a1.25 1.25 0 00-.07.66v.15l.13-.07a.57.57 0 00.17-.18.31.31 0 01.1-.12 3.22 3.22 0 01.55-.18l.3-.08h.09v-.13c.18-.11.36-.22.55-.32h.06v-.08l.4-.07v-.28l.63-.36v-.06a.37.37 0 00.24 0 .34.34 0 00.25-.24v-.06l.62-.11v-.11h.09v-.25l.07.28.61-.36.5.29a.32.32 0 00.16 0 2.65 2.65 0 01.34.48v.06l.66.13c.2.2.3.22.39.21l.47.25.07.27h.14a1 1 0 00.28.3v.14l.36-.06a1.62 1.62 0 00.38.29l.06.21c.42.25.5.32.51.35v.08h.25c.2.17.3.19.39.18a.78.78 0 00.59.15c.2.16.3.19.39.18a.65.65 0 00.34.19v.08c.23.14.25.2.27.27a2.56 2.56 0 011.18 1.65h-.07v.09a1.93 1.93 0 01-.27 1.08.35.35 0 00-.06.16h-.23v.12h-.21v.12l-.33.06v.16l-.37.33a9.82 9.82 0 00-1.15-.24h-.14v.15h-.16a.7.7 0 01-.54.32h-.1v.11a4.37 4.37 0 01-1.13-.14 3.09 3.09 0 00-.55.06 2 2 0 00-1.14-.45l-.4.41-.53-.31a4.14 4.14 0 01-.37-.53v-.12l-.63.29h-.13l-.61-.42a4.84 4.84 0 01-.8.22l-.22.08h-.06a1.78 1.78 0 01-.43-.1v-.08l-1.26.21a4.33 4.33 0 01-1.11.68 1.85 1.85 0 01-.8.84.37.37 0 00-.13.27h-.18c-.39.57-.64.8-1.46.49a2.92 2.92 0 01-1.09.36 4.91 4.91 0 00-.73.19l-.06.54.85.09h.13l-.26.07c-.35.21-.45.26-.46.32a3.2 3.2 0 01-.5.36c7.1.46 14.14.7 21 .7 2.9 0 5.77-.05 8.62-.13l-.12-.54v-.09h-.11l-.11-.5h-.09a2.42 2.42 0 01.18-1.05.86.86 0 000-.58l-.13-.14a1.44 1.44 0 00.06-.6h.1v-.1c-.07-.3-.15-.59-.23-.89h.05l.24-.64a1 1 0 01.58-.27h.1l-.08-.3h-.14a3.48 3.48 0 01-.51.22v-.09h-.19v-.13h-.2v-.07c-.23-.16-.24-.22-.26-.28l-.4-.49a.65.65 0 00-.21-.24l-.06-.21-.5-.43a.38.38 0 00-.3-.12c-.25-.28-.58-.63-.84-.9a.17.17 0 00-.11-.06l-.1-.33c-.23-.15-.24-.21-.26-.27l-.49-.43c-.1-.14-.17-.21-.23-.23a12 12 0 01-.4-1.36v-.09h-.2L186 111h-.09a4.44 4.44 0 00-.33-1.13v-.07l-.68.14h-.36l-.06-.65c0-.24.05-.25.07-.25h.11v-.09c-.08-.35-.19-.8-.28-1.15a.55.55 0 00.1-.32h.1l-.14-.43a8 8 0 00-.24-1l.39-.06-.05-.16a.58.58 0 00.18-.22l.08.23.29-.05v.11h.07v.5l.16-.19a.77.77 0 00.08-.19h.25l-.07-.17c.09-.17.1-.2.07-.32v-.12a.34.34 0 00-.12-.06h.19v-.08-.26h.22a.17.17 0 00.12-.07h.19l.11-.5.74-.12V104c.1-.32.15-.33.17-.34h.06c.05-.19.08-.2.11-.2h.07v-.07a1.54 1.54 0 000-.64h.07v-.09h.34c.45.3.51.43.56.56v.09l.59-.23v.06l.58.06c.12 0 .13 0 .16.11a2 2 0 01.44.23l.47.28a.43.43 0 00.16.12l.1.25.44-.08v.11h.09c.07.18.15.37.22.56a1.09 1.09 0 01.36.5v.07h.12c.25.23.56.55.8.81a.81.81 0 000 .09h-.1l.21.57a2.72 2.72 0 00-.68.64c.15-.34.13-.44.09-.55v-.05h-.05c-.23 0-.46-.08-.68-.13a6.57 6.57 0 00-1.34-.2h-.13l.21.72c-.15.09-.23.15-.25.22h-.22v.06l-.45-.05c-.12 0-.17 0-.18.06h-.16l.43.65c.1.17.16.24.22.27v.14l.43-.07-.2.3a2 2 0 00-1.17.24l-.14.08.66.39c.17.09.18.12.19.13.36.24.38.31.4.37v.08h.12l.42.42a.91.91 0 00.27.3c.05.29.09.43.16.48v.12h.06a6.84 6.84 0 011.17.35 2 2 0 01.43 0v.07h.08c.34 2.19.34 2.19.44 2.35.21.14.22.17.22.19v.08h.28v-.11a1.77 1.77 0 01.1-1.06h.2a1.85 1.85 0 01.71 0c.07.22.14.45.2.67l1.15.79.06.52a2.8 2.8 0 01-.37.29 3.56 3.56 0 01-1.08.43c0-.11 0-.16-.07-.19-.31-.43-.43-.45-.57-.43h-.11v.1a4.91 4.91 0 01.25 1.39 5.8 5.8 0 00.16.83 3.53 3.53 0 01.21.45v.09h.23c.16-.37.24-.38.3-.39h.09a6.46 6.46 0 00.57 1.11c0 .14 0 .19.05.23.22.25.33.32.44.32v.13h.1a6.32 6.32 0 01.35 1h-.1v.13h-.26v.1a8.61 8.61 0 00.41 1.53 234.75 234.75 0 0031.35-3.6 87.47 87.47 0 00-7.27-19.83l-.06-.12v-.06A87.59 87.59 0 00159 53.2l-.95-.17-1-.15-.26-.05h-.62l.1.13V53h.09a5.45 5.45 0 00.69.1H157.75a1.09 1.09 0 00.24.09h.17l.55.12v.09l.53.08h.43l.32.07h.1V54l.75.16.51.1h.07a2.66 2.66 0 00.51.17l.31.05c.41.08.56.13.72.17h.18a.74.74 0 00-.16 0h.02v.33h.09l.42.19-.28-.07h-.09v.1a1.85 1.85 0 00.42.24l.58.16.3.07h.15v-.18l.21.07.43.14c.61.21 1 .34 1.33.43h-.45l.07.15a.18.18 0 00.13.1h-.21l.32.11h-.1l.46.18h.19l-.51.08.43.16a5 5 0 001.47.52 1.61 1.61 0 00.4.08l.26.08h.15l.24.07h-.19L169 58a1.45 1.45 0 01-.3-.06l-.54-.26H168l-.53-.2-.35-.11-.61-.24h-.05l-.38-.15h.05l-.3-.13a3.11 3.11 0 00-.61-.2l-.61-.21-.31-.11-.24-.05-.56-.17h-.09v.18h.08a21.22 21.22 0 012.81 1l.2.07a.59.59 0 00.25.13h-.13l.39.16.5.21a8.56 8.56 0 001.44.64h.05l.2.09.2.1a9 9 0 011 .45l.12.08h-.06l.4.19.89.44h.15l.79.41h.16l.41-.07-.31-.16a.15.15 0 00.08-.13.31.31 0 01.07-.08H173.25a2.8 2.8 0 01.58.08.66.66 0 00-.21 0h-.23l.24.16h-.14l.18.09.05.07a16.94 16.94 0 002.57 1.71h-.06l.2.12h-.05l.25.13a6.22 6.22 0 011 .73.8.8 0 00.18.15 4 4 0 000 .6h-.12l.32.21c.27 0 .27 0 1.14.48l.09.06a6.63 6.63 0 00-1.24-.11.12.12 0 00-.06.08h-.13l-.09-.06h-.22a1.75 1.75 0 00-.29-.11h-.06a2.19 2.19 0 01-.48-.21l.06-.12h.24c.18 0 .26 0 .27-.13a.1.1 0 000-.11l-.07-.15h.3v-.22h.17L177 63a4.19 4.19 0 00-.46-.38l-.28-.17-.21-.24h-.08l-.3-.17-.23-.13-.47-.27-.26-.21L174 61l-.64-.21a2.28 2.28 0 01-.41-.17 4.68 4.68 0 01-.56-.23 1 1 0 00-.18-.07l-.28-.12h-.08l-.11-.06h.08l-.28-.12-.46-.22-.3-.15-.37-.19h.09l-.34-.14-.16-.22-.52-.24a4.72 4.72 0 01-.55-.21 3.38 3.38 0 00-.63-.23l-.3-.07-.62-.26h-.06l-.36-.17-.26-.13-.28-.14c-.14-.08-.29-.15-.44-.22h.05l-.2-.08L165 57l-.57-.24h-.06l-.6-.22a1.16 1.16 0 00-.27-.09l-.21-.08a3.48 3.48 0 00-1.53-.28 1.13 1.13 0 00-.31.1h-.19v.07c0 .07 0 .09.12.12l.21.17h-.08l.2.07.3.12.2.07.2.08.2.08.32.12.17.07a1.09 1.09 0 00.31.18 4 4 0 00.7.48l.15.09H164l.16.1h-.1l.18.13a2.24 2.24 0 00.56.29l.27.13c.13.05.25.12.38.18h.18l.3.15.26.12a6.86 6.86 0 011 .48h-.18l.23.14 1.09.61h.08a1.17 1.17 0 01.46.13h.26v-.08l.19.12a1.08 1.08 0 00.27.24l.64.32h.15l.35.2h.27a.12.12 0 00.05 0l.49.35c.25.17.35.23.44.28l-.15-.08a.48.48 0 00-.2-.08l-.1-.06h-.12l-.18-.11a4.94 4.94 0 01-.62-.24l-.49-.16-.15-.07h-.15a5.65 5.65 0 01-1.08-.25l-.54-.15-.06.12a4.28 4.28 0 00-.7-.31.34.34 0 01-.13-.05l-.38.07a2 2 0 01-.4-.18h-.06a.4.4 0 01-.28-.06l-.36-.08-.47.3h-.59l-.18-.1-.21-.1h-.07a2.92 2.92 0 00-.4-.1 3.06 3.06 0 01-.43-.13h-.09a7.9 7.9 0 01-1-.32l-.5.08.08.05h-.08l.3.14h.08-.06l.24.12a5.79 5.79 0 00.95.44h.05a.13.13 0 00.07 0h.19l.29.14h.09l.17.1.31-.05.08.05h.24l.11.06h.07-.26.08-.08l.72.36a1.3 1.3 0 00.34.12l.43.26a1.7 1.7 0 00.34.16l.28.18.24.16-.45.06.44.46a6.19 6.19 0 01-1.4-.72h-.07v.06a1.44 1.44 0 01-.28.28h-.08l-.41.07.16.11c-.17 0-.4 0-.78.07l-.32.55.23.19h-.12v.06a.86.86 0 00-.13.21h-.32v-.11h.23l-.78-.36a2.16 2.16 0 01-.37-.24h-.26l-.46-.42v.16a.31.31 0 00.07.33l.09.38-.07-.06-.06.05c-.45.35-.54.37-.64.38h-.2l.09.07a1.24 1.24 0 00-.06.31h-.06l-.23.48c-.11 0-.22.08-.24.17a.19.19 0 00.07.18h-.06a.11.11 0 00-.1.08v.62h-.1l.54.54.3.35-.33.23a.15.15 0 00-.06.09l-.42.07v.07c0 .07 0 .09-.06.1-1-.79-1.2-1-1.29-1.06h.11l-.22-.22c.17-.09.22-.12.24-.17l.39-.19h.25l-.21-.13a2.58 2.58 0 00-.33-.18l-.14-.13-.18-.15-.52-.2a1 1 0 01-.35-.23 2.2 2.2 0 00-1.57-.31l-.06-.07h-.12l-.06-.06-.26.05-.56-.13a.74.74 0 00-.3-.08h-.24l.21.13a4.93 4.93 0 001.08.52l.14.13h.12l.2.2h-.05l.12.13h-.06l.13.13v.09l.07.24h-.06l.06.12a2.64 2.64 0 00.43.69h.08l.55.28a.59.59 0 00.15.16l.08.48.09.16.35.57c.07.2.06.25.05.26l-.32-.39H158a1 1 0 00-.56-.13c-.48-.21-.6-.21-.72-.19h-.08v.08a1.16 1.16 0 010 .15 2.08 2.08 0 00-.33 1c0 .15-.06.17-.08.18h-.15l.13.17a2 2 0 00.7.81c.13.07.14.09.15.1l.5.2c.22.16.34.26.42.33h-.24l-.51.09v-.06a1 1 0 01-.33-.06v-.05l-.29.05-.1-.13-.07.11-.13.17-.36-.5a4.24 4.24 0 01-1-.28l-.16-.07.13.69h-.27v.08h-.12l.14.13c.31.29.42.35.5.35a2.83 2.83 0 00.95.43 2.78 2.78 0 01.62.72.16.16 0 00.05.11l.05.07-.38.07.15.22-.09-.14h-.05a5.25 5.25 0 00-1.48 0l-.25-.4-.59-.17a.39.39 0 00-.08.1c-.31-.12-.37-.22-.43-.32v-.06a1.18 1.18 0 00-.24-.27l-.11-.16h-.07l-.33-.53v-.06h-.08a1.78 1.78 0 00-.33-.31l-.1-.53-.5-.31a1.76 1.76 0 01-.42-.24l-.51.09V69h-.14l-.05-.07-.41.07-.28-.06h.05v-.07h.07l-.24-.38h-.55l-.15-.51h-.09a1.91 1.91 0 01-.4.07h-.08a2.77 2.77 0 00-.78-.66c.45.19.49.25.51.29v.06h.11c.21.08.26.11.26.12h.69l.52.19c.21.08.24.13.28.19v.05l.35-.05-.15-.23a3.29 3.29 0 001.28.35 2.47 2.47 0 00.63 0l.49.12h.05l.63-.11v.07h.22v.07h.05l1.24-.14h.17l-.06-.07H155v-.08-.09h.15v-.07h.14v-.07h.1l.18-.59-.11-.14.07-.43h.17l-.12-.13-.79-.83h-.08a.6.6 0 00-.3-.1l-.44-.22a.48.48 0 01-.21-.13h-.59c-.16-.08-.19-.11-.22-.15h-.06l-.12-.12h-.21c-.32-.1-.74-.2-1-.27a1.55 1.55 0 00-.46-.15v-.05a7.27 7.27 0 01-1.06-.2h-.22l-.59-.08c-.62-.2-.63-.19-.66-.17zm-14.84 1.07v.07a.66.66 0 000 .13v-.3h.23zm-11.89 18.28v.07h-.09v-.09h-.18c.17-.16.24-.24.26-.31l.19.06v.06H122h.27a2.47 2.47 0 01-.43.21zm9.74 2.69a.58.58 0 01-.2.18.71.71 0 00-.14.1v.1l-.07.07-.17.14h-.31v.16a1.51 1.51 0 01-.71.28v-.09h.1v-.09-.67a.55.55 0 01.21-.12.28.28 0 01.13 0h.15c.14 0 .19-.15.24-.39h.14l-.15-.46h.08v-.29h.11v.27h.53c.17.41.18.44.17.47zm1.29.27v.32h-.16c0-.09 0-.2.07-.31a.31.31 0 000-.1.4.4 0 010-.13h.07zm3.23-2.3v.1h.12a.27.27 0 00.16-.1.16.16 0 01.09-.07l.22.16h-.75a1 1 0 01-.07-.15zm-.66-19.1v-.06h-.06a1.84 1.84 0 00-.06-.23l.15.27zm3.59-.89a2.54 2.54 0 010-.39 1.64 1.64 0 01.07.3zm.92-.75l-.08-.14h.14a.91.91 0 01-.01.14zm.07-.18l-.1-.11h-.05l-.06-.1a.3.3 0 000-.11h.15v.06a.87.87 0 00.12.31zm-20.61 41.41zm4.51-4a.9.9 0 01-.08-.3l.15.28.07.06zm1.76-9a.51.51 0 010-.09v-.05a.13.13 0 00-.07-.06v-.19l-.13.07a.41.41 0 00.15-.14h.37l.23.47a.51.51 0 01.08.17c-.39-.17-.5-.17-.63-.14zm24.16-7.12a1 1 0 00-.35-.39h-.09a.53.53 0 01-.11-.26.48.48 0 00-.23-.3.55.55 0 010-.44l.34-.06.32.66v.06h.09l.06.18h.07a2.31 2.31 0 00.05.58zm35.1 34.39a.42.42 0 00.17-.08.84.84 0 00.34.26h-.08l-.05.07a.75.75 0 01-.6-.3zm7.37-10.31l-.34.09h-.28l.45-.06v-.06a.23.23 0 000-.16.56.56 0 00.08-.31l.1.28h-.09zm.11-.86a1.59 1.59 0 00-.11.23h-.09a2.86 2.86 0 01.23-.29zm23.67.12l.18-.11c.19-.1.29-.17.33-.36a.67.67 0 01.24 0v.08a.41.41 0 010 .21v.05h-.18v.18c.06.34.08.46.08.47s0 0-.07 0a.24.24 0 00-.24.13l-.22-.14-.26-.17a.33.33 0 01.14-.29zm-5.49-6.88l-.06-.37a2.37 2.37 0 000-.24l.29.08v-.16a4.9 4.9 0 01-.13-.55l.17-.23c-.06-.34-.07-.41.3-.55v.07l.4-.07v-.11h.1v-.07c.46.06.54 0 .68 0 .11.1.17.15.22.16l.07.15.36-.18a.25.25 0 000-.07l.22.09v-.09a1.14 1.14 0 000-.66 1.39 1.39 0 000-.17.12.12 0 00.06-.06.14.14 0 000-.09h.1l.08.17a.35.35 0 010 .12h-.07l.06.12c.05.11.11.21.16.32l.05.11h-.09l-.29-.07.1.18.14.28a1.23 1.23 0 00-.81 0 .16.16 0 000 .07.54.54 0 00-.37-.12l-.05-.12h-.21l-.05-.11-.4.07.05.11c.09.18.17.35.26.52a.91.91 0 000 .27h-.29v.09a4.34 4.34 0 01-.05.63v.13h.05a.71.71 0 000 .16h-.13l.05.11h-.22l.09.2a.79.79 0 000 .35c-.07.24-.1.29-.09.29h-.12v.11a2.92 2.92 0 01.18.8l.2.45h-.05a2.27 2.27 0 00-.49-.8c-.33-.4-.64-.78-.39-1.38l.06-.15zm-12.69 3.49l.24.37.42-.07v-.11h.06l-.17-.75c0-.32.07-.33.14-.34h.08v-.08a1 1 0 00-.07-.38l.58-.09-.35-.5.42-.18a2.54 2.54 0 00.1-.25.73.73 0 01.22.09l.41.43c.34 0 .68 0 1-.06l-1.11.19-.06.69h-.1l.36.67H200l.05.11a3.52 3.52 0 001.27 1.72c.33.12.43.18.47.23-.15.17-.19.21-.2.21h-.14l.37.55h-.2l.07.19a.58.58 0 00-.05.29v.07c0 .36-.11.84-.19 1.2v.16l-.51.23-.09.07c-.08-.34-.12-.48-.19-.53l-.09-.26h-.08v-.11h-.25v.09a8.75 8.75 0 01.08.92c-.14-.33-.32-.7-.48-1a.3.3 0 01-.07-.11l-.05-.16-.51.61c-.31 0-.36-.09-.42-.27a.19.19 0 000-.17l-.09-.26h-.07c0-.18-.07-.29-.13-.32a8.18 8.18 0 01-.59-3.05zm-29-47.74l-.32-.06h-.07l-.63-.19h-.08.16l.94.25zm4.18 1.64l-.49-.24-.21-.09c.24.09.47.19.7.3zm3.65 2.81l-.93-.5.36.16c.17.08.35.16.52.22l.18.1a1.77 1.77 0 00.14.17c-.12 0-.21-.06-.3-.11zm1.44.79h.08l.29.11h-.06l.12.07zm-11 46.7l.06.21 1.38-.24v-.27a.41.41 0 00.2-.14v-.07h.17l.19-.51h.08l.08.25h.09A10.45 10.45 0 00172 106l.19-.07v.07l1-.32.07-.09h.16v.09l-.35.29a.51.51 0 01-.28.13h-.11l.05.17-.26.29v-.06l-.38.07v.09c.07.42.1.48.15.52v.08a7.47 7.47 0 00-1 .3v.12h-.15l.23.13c.46.27.63.27.78.25a2.29 2.29 0 01.24.25h-.15l-.15.63h-.15v.1l.15.5-.23.11v-.09l-.62.1v.11c0 .12.07.25.11.38l-.54.19v-.25h-.12v-.14h-.09l-.63.23h-.08v.07h-.58v.14-.06l-.73.24c-.28-.49-.29-.51-.32-.81v-.08h-.61c-.1-.16-.15-.24-.21-.26a.26.26 0 00-.23 0h-.07v-.07l-.35-.16-.09-.29a1.39 1.39 0 00.49-.1zm-6-27.14h.07a.2.2 0 00.09 0l.4-.06-.06-.12c-.08-.14-.15-.29-.23-.44l.13.1h.14a.37.37 0 00.19.12.5.5 0 00.17 0H162.75l-.14.09h-.08l.31.44h-.37l.21.4a.93.93 0 00-.27.12l-.28-.1-.06-.12h-.29a1.55 1.55 0 00-.29-.22h-.06l-.07-.15-.51-.24h.25zm-.42-1.34a3.63 3.63 0 01.27.28h-.11l-.06-.13h-.08v-.06a.05.05 0 00-.03-.05zm-1.52-2v-.08h.14a.9.9 0 01.23.08h.11v.12l-.34.06v-.07H158.96zm-4-1.89v-.08h-.08v-.07a.33.33 0 00.13 0 .27.27 0 00.07.08.14.14 0 00.08 0zm.34-1.47l.23.31h-.06l.32.58h.08l.17.31a1.72 1.72 0 01.94.61h.06v.16h-.07v.09a.76.76 0 00.06.18.65.65 0 01.06.23.4.4 0 01-.1.13h-.07l-.18-.33H157l-.82-.5h-.25a.36.36 0 01-.06-.11.44.44 0 00-.17-.19.64.64 0 00-.17 0h.17l-.23-.42h-.08.26a.21.21 0 00.14-.19v-.06l-.31-.57h-.09l-.06-.11-.43.26a.42.42 0 00-.19-.09l-.11-.21zm-2.17-1.79v.06l.29.1.09.15a.55.55 0 00.35 0v.05a.9.9 0 01-.29.09l-.36.05a1.48 1.48 0 00-.5-.47 1 1 0 01-.17-.12zm-3 4.32a1.57 1.57 0 00.35 0h.13l-.12-.26h.09v-.09h.07l.07.17H151.59c.05 0 .08.07.12.14a.52.52 0 00.18.21h.25a.87.87 0 00.59.26l.21.11.06.01a4.06 4.06 0 011 .89h-.06l-.25-.05h-.18l.08.16a1.82 1.82 0 00.22.34h-.23a1 1 0 00-.44.14.56.56 0 00-.21.39h-.44c-.21-.46-.32-.6-.68-.7l-.07-.17c-.36-.14-.36-.14-.5-.42a1 1 0 00-.76-.57l-.16-.16-.11-.12a1.68 1.68 0 00.21-.29zM195.2 177.19a2.36 2.36 0 00-.49.39h-.26v.11h-.17v.13a1.44 1.44 0 00-.43.26h-.27v.1l-.55.08c-.43.12-.56.17-.61.23h-.15a.93.93 0 01-.58.29h-.07v.13l-.49.29c-.18.2-.22.2-.26.21h-.06v.11h-.18v.1h-.19a4.38 4.38 0 00-1.95.45 3.05 3.05 0 01-.62.3.36.36 0 00-.17-.16v-.13h-.26l-.27-.61c-.2-.24-.18-.32-.17-.42l-.43-.41a2.31 2.31 0 00.16-.27h.16c.2-.35.26-.42.26-.43h.08v-.53-.41h-.07a.82.82 0 01-.19-.09 11.69 11.69 0 01-.82-1.07c0-.3-.06-.36-.11-.4a5.75 5.75 0 01-.56-.74 3.44 3.44 0 00-1.06-1.16h-.15v-.1h-.1v-.38l-.58-.45c-.14-.14-.2-.18-.26-.17l-.45-.19v-.62a10.26 10.26 0 01-.08-1.66v-.11h-.08V169h-.1v-.34h-.1v-.23h-.11v-.57h-.15c-.21-.27-.24-.3-.28-.3a5.48 5.48 0 01-.44-.4 4.21 4.21 0 00-1-.79 1.33 1.33 0 00-.05-.19c-9.95-.12-20.12-.68-30.29-1.69a344.52 344.52 0 01-45.09-7.5c0 .52 0 .58-.46 1.61l.06.25c-.2.62-.31.93-2 3.34 0 .17-.06.27-.07.33H102l-.12.73a.49.49 0 01-.07.19h-.1l.15.55a.73.73 0 00-.06.5l-.4.44.07.25-.35.56.08.26a1.51 1.51 0 000 .87l-.06.6a.62.62 0 00-.06.32h-.1l.11.35h-.1l.08.23h-.1l.11.35h-.1l.14.43-.11.59c-.07.09-.1.1-.15.11h-.06v.06a.78.78 0 01-.06.19h-.09l.07.23h-.07v.09c.06.36.09.52.11.61h-.09l.15.7a1.18 1.18 0 000 .69l-.09.64c0 .34-.09.4-.11.4h-.06v.06a2.31 2.31 0 01-.09.32h-.11l.34.66h-.07l.08.23h-.1l.32.66c.09.2.17.26.26.26l.39.52c.4.31.43.37.45.43v.07H102v.59a.37.37 0 00.18.15l.31.5a2.82 2.82 0 00.24 1.11v.07h.11c.2.26.28.35.34.38l.15.35h.08a11.81 11.81 0 001 2.34 2.77 2.77 0 01.16.37l.15.31h-.09v.11a2.92 2.92 0 01.14.31h-.08l.09.21h-.08l.3.78c.13.28.19.39.26.43l.22.46.07.7a1.77 1.77 0 00-.1.19h-.11l.19.57c-.09.07-.11.08-.12.08h-.23l.2.13a5.76 5.76 0 011.09 1.06 8.52 8.52 0 00.71.77.31.31 0 010 .09h-.12l.44.63a1.58 1.58 0 01.27.18.37.37 0 000 .35 6.23 6.23 0 011 .76 1 1 0 00.45.07l.11.19.34-.06.3.43c.09.21.15.32.24.32l.53.2.13.22h.28l.52.43h.05c.1.24.15.34.21.37l.12.2h.1l.21.22a2.41 2.41 0 01.84.84v.06h.17l.23.4.61.1.27.47h-.13l.14.13c.23.21.3.27.36.27a2.85 2.85 0 01.42.31c-.06.05-.08.05-.08.05h-.14l.15.25.61.1.27.45h-.15l.17.19a.46.46 0 00.07.07.25.25 0 00.08.05l.07.12.28-.05v-.06a3 3 0 01.53.45.61.61 0 00.28 0 1.1 1.1 0 00.68.08l.5.32c.21.17.24.22.27.27.36.17.4.22.42.27h.12a.7.7 0 00.43.12 27.42 27.42 0 013.27 1.7l.38-.06v.05l.68.3c1-.53 1.11-.57 1.5-1.56l1.67-.28v.07a2.77 2.77 0 01.36.06v.06h.22a3.08 3.08 0 001.23 0h.13l-.07-.12a1.77 1.77 0 00.36-.29l.23-.05v-.08h.26v-.08l.45-.08v-.05c.11-.26.17-.27.24-.28h.12v-.09h.18v-.09l1-.16v-.09l.28-.05a.7.7 0 01.5-.26h.15l.03-.07h.09c.2.16.21.19.21.2v.07l.39-.07a.24.24 0 000 .12v.11l.1-.07a1.75 1.75 0 01.34-.24h.12l-.06-.15a.15.15 0 00.12 0l.26-.05a1.77 1.77 0 01.81-.77c.09-.17.16-.18.24-.19h.11v-.09h.09l.1.27 1.37-.23c.32.17.76.38 1.13.54s.28.18.32.29v.07h.21a1.73 1.73 0 01.32 1v.12h.13l.1.27h.09v.15l.58.27.08.22.75-.21c.14-.08.21-.16.22-.25.42-.1.47-.13.5-.18.22-.08.34-.15.34-.27a1 1 0 01.34-.21v.09h.08l.09.26.38-.06-.08-.27.64-.05.08.56.75.11.11-.11c.12.3.18.43.24.47l.1.33c.19.09.2.13.21.17v.08h.11a2.1 2.1 0 01.09.25l.1.35h-.09l.2.69.13.66h-.07v.08a2.2 2.2 0 00.5 1.74l-.49.09.11.34h.11a.56.56 0 01.09.14h-.11v.1a4 4 0 01.24 1.18l-.36.06.17.5h.08v.08h.29l.49.28a.34.34 0 00.18.23l-.47.08.73.5.06.2h.21l.5.32c.32.18.43.22.51.22l.38.38c0 .09 0 .18.11.21v.14l.59.25a1.34 1.34 0 00.47.28l.07.23h.17l.32.55h.13v.15h.16V210.13c.36.37.42.4.48.39h.36l-.38.06.12.26a.33.33 0 00.11.1v.16h.08l.05.19h.09c.13.24.16.29.3.34v.16h.09l.22.55h.14a.19.19 0 010 .07V212.7a.19.19 0 00.11.14l.07.09a.18.18 0 00.09.07l-.12.12v.06c.07.11.07.12 0 .22h-.05l.17.38.11.43h.07l.06.24h.06c0 .27.05.33.24.41a.39.39 0 01.05.14v.05h.13c0 .06 0 .11.06.18v.08h.06l.11.4c0 .19.07.37.1.56h-.07l.08.27v.07a1.36 1.36 0 010 .21h-.16v.09l-.1.07.09.28v.05s-.06.13-.09.19h-.16v.1c0 .14.06.28.1.42h-.14l.05.11c.07.14.13.28.2.43-.08.09-.12.18-.05.4v.19h-.08V219v.24h.64v.11a.83.83 0 00.18.3.56.56 0 01.16.39l.15.37h-.05l.06.12.27.5a1 1 0 01.37.19 1.36 1.36 0 00.39.22.51.51 0 01.06.2s0 .07.06.09l.06.14.14.26h.06v.07h.06a.63.63 0 00.29.2s.05.06.08.07v.08c0 .05 0 .15.11.18l.12.11a.52.52 0 01.11.1v.09a.22.22 0 00.08.15.57.57 0 000 .14l.18.35v.33h.05l.07.1v.08a.88.88 0 01.07.23V224.53l.05.14.08.14a.26.26 0 00.1.07h.07v.13a.17.17 0 000 .08V225.26h.37l.68-.19.16-.06h.15a5.72 5.72 0 00.79-.32h.07l.1-.06h.14a5.74 5.74 0 00.66-.35l.25-.16a.79.79 0 00.22-.18l.08-.07.29-.16.3-.12.11-.06h.19l.15-.06.14-.08h.12a3.66 3.66 0 00.42-.26h.05l.19-.16.16-.13.32-.27.26-.23.14-.14.3-.29.07-.08.17-.18.08-.07h-.05a4.4 4.4 0 01.31-.33v-.05a1.49 1.49 0 01.81-.88.39.39 0 00.13-.11 3.38 3.38 0 00.36-.27 3.48 3.48 0 01.39-.28l.28-.35.07-.1h.26l.17-.09h.25l.09-.11a2.27 2.27 0 00.34-.19 2.69 2.69 0 01.48-.24.28.28 0 00.08-.06h.08v-.05h.12l.05-.07a1.82 1.82 0 00.47-.35.24.24 0 01.12 0l.2-.17.3-.33a2.94 2.94 0 00.47-.34l.1-.09c0-.07.09-.17.14-.24a1.71 1.71 0 00.48-.63 4 4 0 01.23-.37l.07-.07.08-.11c.12-.17.24-.34.35-.52a.67.67 0 00.11-.07.12.12 0 000-.09l.17-.25h-.06l.22-.39.29-.46.31-.52.11-.18.16-.2h-.11l.16-.34.08-.17v-.06a.23.23 0 01.06-.06l.25-.47.09-.17h-.15a.44.44 0 00-.13-.49l.07-.19a.07.07 0 000-.05l.27-.56.07-.16H175c.06-.14.13-.27.19-.41l.07-.16h-.06a4.78 4.78 0 01.33-.5 2 2 0 00.51-1.05.18.18 0 00-.06-.09v-.11l-.11-.07a1.06 1.06 0 000-.27l.15-.51v-.09a.69.69 0 00.13-.17h.07l.12-.31c.16-.3.23-.41.25-.44l.32-.57a5.46 5.46 0 00.42-.59h.07l.16-.64a1.87 1.87 0 00.2-.41h.12a7.86 7.86 0 01.85-1l.28-.05.36-.51a1.34 1.34 0 00.29-.39h.07v-.11l.51-.3a2.6 2.6 0 01.22-.42l.13-.37a1.65 1.65 0 00.52-.75c.25-.23.29-.31.32-.39l.33-.49a2.38 2.38 0 00.5-.62h.05c.15-.17.19-.18.22-.18a9.1 9.1 0 01.8-.92.35.35 0 01.08-.06 4.31 4.31 0 00.47-.57h.05c.26-.28.3-.29.32-.29.16-.18.2-.19.22-.19l.49-.4c.14-.08.19-.13.21-.18s.21-.23.23-.31c.32-.31.74-.72 1-1s.42-.53.45-.63c.27-.14.34-.19.36-.25l.49-.45.17-.56.45-.38c.16-.09.2-.14.22-.2l.38-.59a1 1 0 00.24-.31h.08l.07-.24.19-.2.08-.22a7.64 7.64 0 001.26-2.21v-.07h.05l.25-.66v-.06h.06l.08-.31h.07a7.58 7.58 0 01.61-1.17l.25-.57c.35-.4.39-.53.42-.64a4.65 4.65 0 001.14-2.3l.05-.09h.06v-.06l.11-.47h.09v-.2h.08v-.06c0-.19.09-.39.13-.58h.71v-.07c.11-.48.2-1 .3-1.45h.11v-.88zm-45.79 4.51c-.2 0-.21 0-.28-.13a.34.34 0 00-.35-.09 1.31 1.31 0 00-.27.08 1.88 1.88 0 00-.18.12.5.5 0 01-.31.13.79.79 0 01-.23-.09.16.16 0 010-.07.39.39 0 00-.06-.11h-.07l-.05-.25v-.05h.32v.12l.37-.06.15.18a.5.5 0 00.33-.11.52.52 0 01.37-.14v.11h.36v.26h-.12zm16.89 29.45h-.06l-.1.09-.08.13c.07-.23.11-.25.2-.29a.83.83 0 00.16-.09zm5.7-13.72l.07-.11a.35.35 0 000-.08h.16v.08h.08v.24a.39.39 0 01-.15 0 .53.53 0 00-.18 0zm-1.28 0h.08a.88.88 0 00.2-.43v.24c-.06.06-.18.16-.33.32zm-.41.48a1.11 1.11 0 01.12-.16h.14a4.26 4.26 0 00-.31.47 1 1 0 00.09-.35zm-2.11 3.25l.25-.13v-.23h.06l.11-.27h.23v.1a4.34 4.34 0 00-.52.71.26.26 0 00-.09-.09zm-.29 1.26h.15V202.83h.05a1 1 0 01-.07.15c0 .06 0 .12-.08.17l-.29.1c.18-.72.19-.75.33-.87zm.42 6.6a2.89 2.89 0 01-.25-.24.31.31 0 00-.17-.13v-.52a.28.28 0 00-.06-.08l.05-.29-.13-.05v-.2l.16-.46v-.44l.05-.3h-.08v-.15h-.06l.12-.48a2.9 2.9 0 010-.35l.12-.69c.38.48.4.66 0 2.17-.12.56-.14.68-.16.8l-.05.26.37.07.12.05v.2h.13v.08a.46.46 0 00.16.06v.08a3.71 3.71 0 00-.23.68zm.69 1.24v.06h-.1v-.15h-.15a.5.5 0 00-.31.14l.07-.23v-.06-.06l.05-.21h-.07l.08-.36h-.09v-.24h.14a1.49 1.49 0 010 .18.36.36 0 00.07.1v.11a.25.25 0 00.1.08l-.08.27h.21a.71.71 0 01.07.16zm.54 3.67v.08h.08l-.09.21a1 1 0 00-.07.15h-.05c0 .07-.05.09 0 .15a.61.61 0 010 .12 1.11 1.11 0 00-.07.16v-.05c.31-.57.35-.66.26-.73a3.44 3.44 0 01.26-.47l.06-.09c-.21.16-.27.29-.34.43zm.9-2l-.08.17h.1v.05h-.05l-.05.13h-.06v.05c-.09.28-.19.56-.29.84H170a3.78 3.78 0 00-.17.35h-.18l.05-.08h.08l.13-.34.11-.06.15-.38.06-.16h-.05c.1-.27.21-.54.31-.82l.06-.16h-.08v-.21.08h.09l.12.09c-.03.06-.1.22-.18.37zM174 200c-.14.43-.14.43-.25.51s-.16.15-.27.54c-.16.59-.16.6-.23.63l-.31.18v.14h-.61v.39h.6v-.13a.33.33 0 000-.1v-.05h.15-.05l.07.29.28-.05v.13a1.61 1.61 0 00-.56.1c0 .06-.05.11-.07.16v.07l-.33-.07-.55-.12h-.12v.29l-.47.24v.06c0 .11 0 .17.05.22h-.1l-.11-.07.13-.21h-.23L171 203a.17.17 0 00-.11-.08v-.09h.08l.05-.25H171a.93.93 0 000-.22.47.47 0 010-.17c0-.06 0-.08.15-.18v-.06a.68.68 0 00-.16-.29.46.46 0 01-.13-.22 1.22 1.22 0 00.32-.58.44.44 0 00-.09-.35 1.28 1.28 0 01.08-.24h.11v-.29l.41-.3h.45v-.07a.08.08 0 01.07-.05v.16l.45-.08v-.05c0-.13.1-.26.14-.39h.08v.17h.23v.15h-.1v.44l.27-.05a.31.31 0 00.08.24v.14h.1a.3.3 0 00.29-.13zm3.11-5c-.09 0-.09-.06-.07-.2a.68.68 0 00-.05-.41 1.1 1.1 0 00-.29-.28l-.1-.08v-.36h-.15c0-.16.09-.32.13-.47h.09l.09-.57v-.25h.11c0 .14 0 .28-.07.42v.13h.2v.18c-.05.21-.11.42-.16.63v.14h.13l.06.43.16.1zm2.32-14a.88.88 0 01-.22-.1l-.14-.06v-.4l.66-.2a1.18 1.18 0 01-.28.76zM217.15 164.77v.14h.06c-.05.23-.11.45-.16.68v.14l-.11.47-.11.46-.06.23h.07l-.06.3a1 1 0 000 .29l-.08.33h.05l-.06.23h.06l-.07.23h.05l-.09.35h.05l-.1.34h.06l-.1.35h.05c0 .14-.08.29-.13.44v.14h.06c-.07.28-.15.62-.22.88v.14h.05c-.09.3-.18.58-.28.88v.14h.05l-.11.34H216l-.08.23h.08l-.09.35a1.12 1.12 0 000 .32l-.06.18a2.51 2.51 0 01-.07.82v.65a.38.38 0 000 .15 6.07 6.07 0 00-.3 1.36 1.09 1.09 0 01-.07.4l-.06.15h.06l-.08.25-.17.22-.06.17a8.17 8.17 0 00-.14.84v.4l-.16.37-.1.22h.05v.06a.41.41 0 010 .27l-.07.16h.05v.08c0 .2.12.27.26.25h.05l.07-.14.33-.36a6 6 0 00.35-.66l.29-.29a2.27 2.27 0 00.32-.49l.1-.25.19-.25.08-.21.29-.37a3.36 3.36 0 00.22-.4h.2c.17-.33.26-.55.36-.79l.06-.16.09-.22.38-1v-.11a37.66 37.66 0 001.72-4.35c.26-.77.39-1.16.67-2l.07-.23h.05l.06-.47c.07-.28.14-.54.21-.79v-.16l.21-.37a1.11 1.11 0 00.1-.21c.14-.06.22-.16 1.14-1.22.15-.39.21-.57.25-.71q-2.73.36-5.51.68c-.14-.06-.16.03-.19.13z" transform="translate(-3.21 -10.9)"/><path class="cls-2" d="M185.24 166.9a2.54 2.54 0 00.49 1c.08.11.13.17.19.19v.31c.25.27.25.36.25.45l.43.46a6.11 6.11 0 01.11 1.94h-.09v.23a1.66 1.66 0 01.11.91c-.15.32-.16.38-.12.43v.63a.28.28 0 00.08.12v.26h.08l-.12.49c.13.21.12.27.12.33a2.75 2.75 0 01.05 1.25v.13h.12v.62h.08l1.32.09a.88.88 0 01.52-.29h.14v-.11h.24l.36-.65a.63.63 0 01.41-.23h.08v-.13l.53-.16h.08v.08l.55-.09v-.14l.42-.35a.58.58 0 01.16-.05 2 2 0 00.44-.6l.43-.15c0 .05 0 .08.1.07h.2v-.06a.13.13 0 000-.06l.5-.08.31-.55a2.48 2.48 0 00.43-.45h.16c.21-.24.3-.26.4-.27h.07v-.13l.55-.32v-.09l.26-.05v-.11h.17v-.11h.22a3.54 3.54 0 00.41-.5h.14a8.1 8.1 0 00.93-1.09c.14-.18.21-.19.28-.21h.17v-.11h.11v-.1a1.08 1.08 0 00-.1-.33h.07v-.07l.06-.42c.39-.37.44-.37.47-.38h.07v-.12h.3l.51-.48c.42-.19.51-.29.54-.39a1.36 1.36 0 00.43-.29l.48-.08c.14-.22.18-.23.21-.23h.07v-.17a1.21 1.21 0 00.24-.59q-8.15.47-16.61.49a3.27 3.27 0 01.39.31zM106.75 97.56h-.27v.05a1.83 1.83 0 00-.14.57v.13l.39-.07zM128.58 95.43h-.27v.06c-.07.33-.15.67-.22 1v.18l.17-.07h.05a.24.24 0 00.1 0 .13.13 0 00.07-.08h.16v-.32h.12zM134 94.36a.7.7 0 01.25.17h.05a1.52 1.52 0 00.42-.17l.09-.06v-.07a.76.76 0 00-.33-.47c-.12-.07-.13-.07-.73-.16h-.14v.2a1 1 0 00.15.43.44.44 0 00.24.13zM142.1 86.06h.12a.54.54 0 00.44.28h.08-.24l.12.47h.26v-.08-.33h.12v-.12a.12.12 0 010-.07 1.67 1.67 0 01.58-.16h.07v-.08a1.09 1.09 0 01.11-.42A1.47 1.47 0 00144 85v-.19h-.1l-1 .07h-.11v.11h-.2v.14a.47.47 0 01-.22.15s-.09 0-.22-.1h-.24zM138.15 87.84l-.12.39c-.05.15-.09.3-.14.45h-.25v.1a2.12 2.12 0 00.23.62l.18.21a.55.55 0 00.15.08s.07 0 .08.05a.21.21 0 00.14.16l.12.07v-.14a.49.49 0 000-.12.39.39 0 010-.16.41.41 0 01.15-.14l.11-.09v-.19l.2-.14-.19-.44v-.07a1.74 1.74 0 00.06-.77l.22-.12h.07l-.07-.35-.48.08v.37h-.05a.58.58 0 00-.32 0s-.05.13-.09.15z" transform="translate(-3.21 -10.9)"/><path class="cls-2" d="M130.93 95.74c0-.19 0-.19.15-.29v-.27l-.22.06-.75.23h-.07v.11l-.36.15h-.07v.1a.84.84 0 01-.33 0 1.19 1.19 0 00-.47-.05h-.16l.08.14.09.18h-.1v.11a.86.86 0 00.14.32.74.74 0 00.17.18.52.52 0 01.11.1h.06l.43-.18h.06v-.1a.68.68 0 01.21 0H130.14v-.07a1.1 1.1 0 000-.18 2.53 2.53 0 01.66-.49zM121.35 100.43l.19-.07.57-.2h.06v-.41l-.72.26v.09h-.11zM128.13 94c.09.39.16.48.49.51 0 .22 0 .43.07.65v.1l.59-.1.08-.22h.06v.1h.11l.05.41.51-.08v-.09h.12v-.33l.48-.34.13-.1v-.06c-.09-.37-.16-.46-.44-.5a.76.76 0 01.2-.21 3.11 3.11 0 00-.25-1.13v-.08h-.18l-.64.2h-.07v.09h-.11l.06.53a.17.17 0 00.11.06l-.06.26h-.07l-.16-.4-.62.22h-.06v.28l-.44.08zM176.44 206.4a.42.42 0 00-.09-.24l-.1-.1-.1.23h-.06l-.11.28-.08.13h.06v.15l.28-.05v-.1a.57.57 0 00.11-.14v-.08a.21.21 0 01.09-.08z" transform="translate(-3.21 -10.9)"/></g><g id="Bottom_Shape" data-name="Bottom Shape"><path id="Bottom_Shape-2" data-name="Bottom Shape" d="M219.78 189.52A91 91 0 0154.29 140c-.75-.35-1.49-.69-2.23-1-12.75-6.09-23.51-12.85-32-20.13a126.55 126.55 0 00240.26 71.31c1.41-3.09 2.68-6.21 3.84-9.36a190.69 190.69 0 01-23.36 5.83q-10.05 1.79-21.02 2.87z" transform="translate(-3.21 -10.9)" fill="#f60"/></g></g></svg>